<svg xmlns="http://www.w3.org/2000/svg" height="48" width="48" style="" viewBox="0 0 48 48"><g class="nc-icon-wrapper"><defs><linearGradient id="nc-firefox-linear-gradient" x1="-568.761" y1="321.577" x2="-568.834" y2="321.505" gradientTransform="matrix(480.004, 0, 0, -495.999, 273048.066, 159510.105)" gradientUnits="userSpaceOnUse"><stop offset="0.05" stop-color="#fff44f"></stop><stop offset="0.37" stop-color="#ff980e"></stop><stop offset="0.53" stop-color="#ff3647"></stop><stop offset="0.7" stop-color="#e31587"></stop></linearGradient><radialGradient id="nc-firefox-radial-gradient" cx="-568.674" cy="321.585" r="0.119" gradientTransform="matrix(384.001, 0, 0, -390.468, 218412.221, 125579.6)" gradientUnits="userSpaceOnUse"><stop offset="0.13" stop-color="#ffbd4f"></stop><stop offset="0.28" stop-color="#ff980e"></stop><stop offset="0.47" stop-color="#ff3750"></stop><stop offset="0.78" stop-color="#eb0878"></stop><stop offset="0.86" stop-color="#e50080"></stop></radialGradient><radialGradient id="nc-firefox-radial-gradient-2" cx="-568.64" cy="321.419" r="0.119" gradientTransform="matrix(393.601, 0, 0, -390.468, 223841.138, 125529.229)" gradientUnits="userSpaceOnUse"><stop offset="0.3" stop-color="#960e18"></stop><stop offset="0.35" stop-color="#b11927" stop-opacity="0.74"></stop><stop offset="0.43" stop-color="#db293d" stop-opacity="0.34"></stop><stop offset="0.5" stop-color="#f5334b" stop-opacity="0.09"></stop><stop offset="0.53" stop-color="#ff3750" stop-opacity="0"></stop></radialGradient><radialGradient id="nc-firefox-radial-gradient-3" cx="-566.961" cy="319.441" r="0.13" gradientTransform="matrix(115.236, 0, 0, -195.642, 65362.695, 62494.956)" gradientUnits="userSpaceOnUse"><stop offset="0.13" stop-color="#fff44f"></stop><stop offset="0.53" stop-color="#ff980e"></stop></radialGradient><radialGradient id="nc-firefox-radial-gradient-4" cx="-567.939" cy="320.429" r="0.093" gradientTransform="matrix(213.483, 0, 0, -233.98, 121263.751, 75011.144)" gradientUnits="userSpaceOnUse"><stop offset="0.35" stop-color="#3a8ee6"></stop><stop offset="0.67" stop-color="#9059ff"></stop><stop offset="1" stop-color="#c139e6"></stop></radialGradient><radialGradient id="nc-firefox-radial-gradient-5" cx="-567.685" cy="320.5" r="0.055" gradientTransform="matrix(192.135, 0, 0, -233.98, 109095.213, 75011.144)" gradientUnits="userSpaceOnUse"><stop offset="0.21" stop-color="#9059ff" stop-opacity="0"></stop><stop offset="0.97" stop-color="#6e008b" stop-opacity="0.6"></stop></radialGradient><radialGradient id="nc-firefox-radial-gradient-6" cx="-561.879" cy="312.677" r="0.269" gradientTransform="matrix(58.524, 0, 0, -58.732, 32905.963, 18368.566)" gradientUnits="userSpaceOnUse"><stop offset="0.1" stop-color="#ffe226"></stop><stop offset="0.79" stop-color="#ff7139"></stop></radialGradient><radialGradient id="nc-firefox-radial-gradient-7" cx="-568.69" cy="321.382" r="0.167" gradientTransform="matrix(450.155, 0, 0, -377.88, 256035.18, 121437.857)" gradientUnits="userSpaceOnUse"><stop offset="0.11" stop-color="#fff44f"></stop><stop offset="0.46" stop-color="#ff980e"></stop><stop offset="0.72" stop-color="#ff3647"></stop><stop offset="0.9" stop-color="#e31587"></stop></radialGradient><radialGradient id="nc-firefox-radial-gradient-8" cx="-564.741" cy="324.441" r="0.323" gradientTransform="matrix(16.084, 151.871, 153.033, -15.962, -40536.151, 90941.819)" gradientUnits="userSpaceOnUse"><stop offset="0" stop-color="#fff44f"></stop><stop offset="0.3" stop-color="#ff980e"></stop><stop offset="0.57" stop-color="#ff3647"></stop><stop offset="0.74" stop-color="#e31587"></stop></radialGradient><radialGradient id="nc-firefox-radial-gradient-9" cx="-568.014" cy="320.246" r="0.221" gradientTransform="matrix(195.142, 0, 0, -191.714, 110865.893, 61405.693)" gradientUnits="userSpaceOnUse"><stop offset="0.14" stop-color="#fff44f"></stop><stop offset="0.48" stop-color="#ff980e"></stop><stop offset="0.66" stop-color="#ff3647"></stop><stop offset="0.9" stop-color="#e31587"></stop></radialGradient><radialGradient id="nc-firefox-radial-gradient-10" cx="-567.056" cy="319.785" r="0.29" gradientTransform="matrix(178.594, 0, 0, -159.773, 101306.513, 51105.612)" gradientUnits="userSpaceOnUse"><stop offset="0.09" stop-color="#fff44f"></stop><stop offset="0.63" stop-color="#ff980e"></stop></radialGradient><linearGradient id="nc-firefox-linear-gradient-2" x1="-568.766" y1="321.577" x2="-568.823" y2="321.512" gradientTransform="matrix(480, 0, 0, -495.999, 273045.791, 159510.105)" gradientUnits="userSpaceOnUse"><stop offset="0.17" stop-color="#fff44f" stop-opacity="0.8"></stop><stop offset="0.6" stop-color="#fff44f" stop-opacity="0"></stop></linearGradient></defs><path id="shape-base" d="M44.655,16.428c-.969-2.33-2.931-4.846-4.471-5.641a23.138,23.138,0,0,1,2.256,6.764l.005.037c-2.52-6.281-6.794-8.814-10.283-14.329-.177-.279-.353-.559-.526-.854q-.131-.225-.245-.461a4.043,4.043,0,0,1-.333-.881A.059.059,0,0,0,31.007,1a.075.075,0,0,0-.042,0l-.011.006-.016.009.009-.012a16.264,16.264,0,0,0-7.673,12.379,11.16,11.16,0,0,0-6.134,2.364,6.609,6.609,0,0,0-.577-.436A10.317,10.317,0,0,1,16.5,9.866a16.523,16.523,0,0,0-5.366,4.146h-.01c-.883-1.119-.821-4.811-.771-5.582a4.014,4.014,0,0,0-.744.395,16.2,16.2,0,0,0-2.178,1.866,19.409,19.409,0,0,0-2.081,2.5v0A18.8,18.8,0,0,0,2.36,19.939c-.011.048-.02.1-.03.147-.042.2-.193,1.178-.219,1.391l-.005.049A21.32,21.32,0,0,0,1.744,24.6c0,.038,0,.075,0,.114A22.29,22.29,0,0,0,46,28.486c.038-.285.068-.572.1-.86A22.9,22.9,0,0,0,44.655,16.428ZM18.966,33.872c.1.05.2.1.309.152l.015.009C19.181,33.981,19.073,33.927,18.966,33.872ZM42.447,17.594l0-.022,0,.024Z" fill="url(#nc-firefox-linear-gradient)"></path><path id="body-outer-ring" d="M44.655,16.428c-.969-2.33-2.931-4.846-4.471-5.641a23.138,23.138,0,0,1,2.256,6.764s0,.005,0,.021l0,.024a20.18,20.18,0,0,1-.694,15.041c-2.554,5.481-8.738,11.1-18.416,10.824-10.458-.3-19.67-8.055-21.39-18.217a9.61,9.61,0,0,1,.158-3.718A16.683,16.683,0,0,0,1.744,24.6c0,.038,0,.076,0,.114A22.29,22.29,0,0,0,46,28.486c.038-.285.068-.572.1-.86A22.9,22.9,0,0,0,44.655,16.428Z" fill="url(#nc-firefox-radial-gradient)"></path><path id="body-outer-ring-shadow" d="M44.655,16.428c-.969-2.33-2.931-4.846-4.471-5.641a23.138,23.138,0,0,1,2.256,6.764s0,.005,0,.021l0,.024a20.18,20.18,0,0,1-.694,15.041c-2.554,5.481-8.738,11.1-18.416,10.824-10.458-.3-19.67-8.055-21.39-18.217a9.61,9.61,0,0,1,.158-3.718A16.683,16.683,0,0,0,1.744,24.6c0,.038,0,.076,0,.114A22.29,22.29,0,0,0,46,28.486c.038-.285.068-.572.1-.86A22.9,22.9,0,0,0,44.655,16.428Z" fill="url(#nc-firefox-radial-gradient-2)"></path><path id="tail-tip" d="M33.824,19.048c.048.034.092.068.138.1a12.1,12.1,0,0,0-2.069-2.7c-6.928-6.928-1.817-15.021-.955-15.432L30.948,1a16.263,16.263,0,0,0-7.673,12.38c.26-.018.518-.04.783-.04a11.248,11.248,0,0,1,9.766,5.7Z" fill="url(#nc-firefox-radial-gradient-3)"></path><path id="globe-base" d="M24.072,20.431c-.037.554-1.995,2.466-2.68,2.466-6.338,0-7.367,3.833-7.367,3.833a9.411,9.411,0,0,0,5.25,7.294c.124.064.25.122.376.179.215.1.434.185.654.268a9.873,9.873,0,0,0,2.9.559c11.109.521,13.261-13.28,5.245-17.287a7.69,7.69,0,0,1,5.374,1.3,11.249,11.249,0,0,0-9.766-5.7c-.264,0-.523.022-.783.04a11.142,11.142,0,0,0-6.134,2.364c.34.287.723.671,1.531,1.467,1.512,1.491,5.392,3.034,5.4,3.215Z" fill="url(#nc-firefox-radial-gradient-4)"></path><path id="globe-shadow" d="M24.072,20.431c-.037.554-1.995,2.466-2.68,2.466-6.338,0-7.367,3.833-7.367,3.833a9.411,9.411,0,0,0,5.25,7.294c.124.064.25.122.376.179.215.1.434.185.654.268a9.873,9.873,0,0,0,2.9.559c11.109.521,13.261-13.28,5.245-17.287a7.69,7.69,0,0,1,5.374,1.3,11.249,11.249,0,0,0-9.766-5.7c-.264,0-.523.022-.783.04a11.142,11.142,0,0,0-6.134,2.364c.34.287.723.671,1.531,1.467,1.512,1.491,5.392,3.034,5.4,3.215Z" fill="url(#nc-firefox-radial-gradient-5)"></path><path id="ear" d="M16.1,15.007q.233.15.462.306A10.327,10.327,0,0,1,16.5,9.866a16.508,16.508,0,0,0-5.365,4.146c.107,0,3.34-.061,4.965.995Z" fill="url(#nc-firefox-radial-gradient-6)"></path><path id="body" d="M1.948,25.244c1.72,10.162,10.932,17.921,21.39,18.217,9.678.274,15.862-5.343,18.416-10.824A20.18,20.18,0,0,0,42.448,17.6v0l0-.022c0-.016,0-.026,0-.021l.005.037c.79,5.163-1.836,10.164-5.94,13.545l-.013.029c-8,6.513-15.652,3.929-17.2,2.872-.109-.053-.217-.106-.324-.162-4.664-2.228-6.59-6.477-6.177-10.12a5.723,5.723,0,0,1-5.28-3.321A8.407,8.407,0,0,1,15.7,20.1a11.1,11.1,0,0,0,8.369.329c-.009-.181-3.888-1.724-5.4-3.214-.808-.8-1.192-1.18-1.532-1.468a6.609,6.609,0,0,0-.577-.436q-.229-.156-.462-.306c-1.626-1.057-4.859-1-4.966-1h-.01c-.883-1.119-.821-4.811-.771-5.581a4,4,0,0,0-.744.394A16.278,16.278,0,0,0,7.432,10.69a19.487,19.487,0,0,0-2.081,2.5v0A18.8,18.8,0,0,0,2.36,19.939c-.011.048-.8,3.509-.412,5.305Z" fill="url(#nc-firefox-radial-gradient-7)"></path><path id="tail-flame" d="M31.893,16.45a12.122,12.122,0,0,1,2.069,2.7c.123.093.237.185.335.274,5.052,4.656,2.405,11.241,2.208,11.71,4.1-3.382,6.73-8.382,5.94-13.545-2.52-6.281-6.794-8.814-10.283-14.329-.177-.279-.353-.559-.526-.854q-.131-.225-.245-.461a4.043,4.043,0,0,1-.333-.881A.059.059,0,0,0,31.007,1a.075.075,0,0,0-.042,0l-.011.006-.016.009c-.862.411-5.973,8.5.955,15.432Z" fill="url(#nc-firefox-radial-gradient-8)"></path><path id="tail-small" d="M34.3,19.423c-.1-.089-.212-.181-.335-.274-.045-.034-.09-.068-.138-.1a7.7,7.7,0,0,0-5.374-1.3c8.016,4.008,5.864,17.809-5.245,17.288a9.907,9.907,0,0,1-2.9-.56c-.22-.083-.439-.172-.654-.267-.126-.058-.252-.116-.376-.18l.015.01c1.55,1.057,9.2,3.64,17.2-2.872l.013-.029c.2-.469,2.844-7.054-2.208-11.71Z" fill="url(#nc-firefox-radial-gradient-9)"></path><path id="cheek-tufts" d="M14.025,26.731S15.054,22.9,21.391,22.9c.686,0,2.644-1.912,2.681-2.466s-4.053,1.7-8.369-.329a8.407,8.407,0,0,0-8.194.329,5.723,5.723,0,0,0,5.28,3.321c-.413,3.643,1.513,7.892,6.177,10.12.1.05.2.1.309.152A9.408,9.408,0,0,1,14.025,26.731Z" fill="url(#nc-firefox-radial-gradient-10)"></path><path id="overlay-yellow" d="M44.655,16.428c-.969-2.33-2.931-4.846-4.471-5.641a23.138,23.138,0,0,1,2.256,6.764l.005.037c-2.52-6.281-6.794-8.814-10.283-14.329-.177-.279-.353-.559-.526-.854q-.131-.225-.245-.461a4.043,4.043,0,0,1-.333-.881A.059.059,0,0,0,31.007,1a.075.075,0,0,0-.042,0l-.011.006-.016.009.009-.012a16.264,16.264,0,0,0-7.673,12.379c.26-.018.519-.04.783-.04a11.247,11.247,0,0,1,9.766,5.7,7.7,7.7,0,0,0-5.374-1.3c8.017,4.008,5.865,17.809-5.244,17.288a9.9,9.9,0,0,1-2.9-.559c-.221-.083-.439-.173-.655-.268-.126-.057-.251-.115-.375-.18l.015.01c-.109-.053-.217-.107-.325-.162.1.05.2.1.309.152a9.411,9.411,0,0,1-5.25-7.293S15.053,22.9,21.391,22.9c.685,0,2.644-1.912,2.68-2.466-.008-.181-3.888-1.724-5.4-3.214-.808-.8-1.191-1.18-1.531-1.468a6.623,6.623,0,0,0-.578-.436A10.327,10.327,0,0,1,16.5,9.866a16.481,16.481,0,0,0-5.365,4.146h-.011c-.883-1.12-.821-4.811-.77-5.582a3.987,3.987,0,0,0-.745.395,16.2,16.2,0,0,0-2.178,1.866,19.484,19.484,0,0,0-2.08,2.5v0A18.8,18.8,0,0,0,2.36,19.939c-.011.048-.02.1-.03.147-.042.2-.231,1.192-.257,1.406h0A25.948,25.948,0,0,0,1.744,24.6c0,.038,0,.076,0,.114A22.29,22.29,0,0,0,46,28.486c.038-.285.068-.572.1-.86A22.9,22.9,0,0,0,44.655,16.428Zm-2.211,1.144,0,.024v0Z" fill="url(#nc-firefox-linear-gradient-2)"></path></g></svg>