<?xml version="1.0" encoding="UTF-8" standalone="no"?>
<!DOCTYPE svg PUBLIC "-//W3C//DTD SVG 1.1//EN" "http://www.w3.org/Graphics/SVG/1.1/DTD/svg11.dtd">
<svg width="100%" height="100%" viewBox="0 0 690 750" version="1.1" xmlns="http://www.w3.org/2000/svg" xmlns:xlink="http://www.w3.org/1999/xlink" xml:space="preserve" xmlns:serif="http://www.serif.com/" style="fill-rule:evenodd;clip-rule:evenodd;stroke-miterlimit:10;">
    <g transform="matrix(1,0,0,1,-255,-75)">
        <path d="M524.16,576.69L384.31,576.69C369.9,576.69 358.12,587.62 358.12,600.97L358.12,628.37C358.174,629.61 359.23,630.589 360.47,630.55L407.37,630.55C404.197,630.466 401.505,632.979 401.37,636.15L401.37,638.79C401.505,641.961 404.197,644.474 407.37,644.39L430.42,644.39L430.42,787.53L396.16,787.53C391.73,787.53 388.1,790.89 388.1,795L388.1,798.53C388.1,802.64 391.73,806 396.16,806L518.48,806C522.91,806 526.54,802.64 526.54,798.53L526.54,795C526.54,790.89 522.91,787.53 518.48,787.53L478,787.53L478,702.89L507.1,702.89C510.822,703.013 513.994,700.071 514.15,696.35L514.15,693.27C513.994,689.549 510.822,686.607 507.1,686.73L478,686.73L478,644.4L502.82,644.4C505.993,644.484 508.685,641.971 508.82,638.8L508.82,636.16C508.685,632.989 505.993,630.476 502.82,630.56L548,630.56C549.24,630.599 550.296,629.62 550.35,628.38L550.35,601C550.35,587.62 538.56,576.69 524.16,576.69Z" style="fill:url(#_Linear1);fill-rule:nonzero;"/>
    </g>
    <g id="a29f8df2-37c7-4f0a-b150-52ed2d0903e8">
        <path id="_1ae8be24-bc05-4fdd-8e2e-97717234ca3e" serif:id="1ae8be24-bc05-4fdd-8e2e-97717234ca3e" d="M257.4,612.71C257.4,609.812 255.048,607.46 252.15,607.46L208.74,607.46C205.842,607.46 203.49,609.812 203.49,612.71L203.49,618.33C203.49,621.228 205.842,623.58 208.74,623.58L252.15,623.58C255.048,623.58 257.4,621.228 257.4,618.33L257.4,612.71Z" style="fill:rgb(197,202,233);"/>
        <path id="ea36bd22-9cd6-47e2-b85e-642ef326de2e" d="M223.12,537.56C223.12,530.385 217.295,524.56 210.12,524.56L190.99,524.56C183.815,524.56 177.99,530.385 177.99,537.56L177.99,713.44C177.99,720.615 183.815,726.44 190.99,726.44L210.12,726.44C217.295,726.44 223.12,720.615 223.12,713.44L223.12,537.56Z" style="fill:rgb(197,202,233);"/>
        <path id="cc9c0523-5ba7-4ef5-a4a7-dc9938e8067e" d="M129,497.7L272.16,497.7C282.857,497.7 291.66,506.503 291.66,517.2L291.66,549.68C291.66,550.64 290.87,551.43 289.91,551.43L111.21,551.43C110.25,551.43 109.46,550.64 109.46,549.68L109.46,517.2C109.46,506.503 118.263,497.7 128.96,497.7C128.973,497.7 128.987,497.7 129,497.7Z" style="fill:rgb(26,35,126);fill-rule:nonzero;"/>
        <path id="aa3b4f98-38f9-44a2-89c3-c74ddcab3699" d="M252.38,555.93C252.38,553.446 250.364,551.43 247.88,551.43L154.92,551.43C152.436,551.43 150.42,553.446 150.42,555.93L150.42,560.75C150.42,563.234 152.436,565.25 154.92,565.25L247.88,565.25C250.364,565.25 252.38,563.234 252.38,560.75L252.38,555.93Z" style="fill:rgb(83,109,254);"/>
        <path id="_4c7f51d0-c2f5-432e-a9e1-ccfdf3b3c539" serif:id="4c7f51d0-c2f5-432e-a9e1-ccfdf3b3c539" d="M269.09,714.02C269.09,710.709 266.401,708.02 263.09,708.02L143.88,708.02C140.569,708.02 137.88,710.709 137.88,714.02L137.88,720.44C137.88,723.751 140.569,726.44 143.88,726.44L263.09,726.44C266.401,726.44 269.09,723.751 269.09,720.44L269.09,714.02Z" style="fill:rgb(26,35,126);"/>
    </g>
    <g transform="matrix(1,0,0,1,-255,-75)">
        <path d="M539.11,168.94C530.59,173.46 518.98,172.37 511.62,166.36C504.26,160.35 501.73,149.89 505.62,141.58C472.785,133.059 441.205,120.284 411.68,103.58C402.12,98.15 390.82,92.09 380.36,95.85C374.11,98.1 367.36,103.66 361.84,100.17C358.36,97.98 358.01,93.41 355.61,90.23C351.1,84.23 341.53,84.98 333.61,85.23C325.69,85.48 315.46,82.32 315.61,75.06C313.06,80.802 314.61,87.585 319.4,91.65C324.577,95.786 331.674,96.647 337.69,93.87L343.33,108.64C320.83,111.91 301.68,129.5 298.12,150.18C294.56,170.86 306.87,193.02 327.17,202.51C316.85,199.83 306.51,205.97 297.86,211.8L255,240.63C271.34,244.63 290,238.63 300.1,226.13C302.46,223.2 304.9,219.64 308.84,219.2C313.47,218.68 317.06,222.77 321.45,224.2C327.77,226.26 334.37,222.6 340.55,220.2C354.789,214.876 370.658,215.97 384.03,223.2C396.93,230.39 405.73,243.44 407.03,257.25C407.51,262.47 407.03,267.91 409.21,272.74C411.03,276.74 414.51,279.87 416.83,283.63C420.53,289.63 421.1,296.82 424.13,303.11C427.16,309.4 434.65,315.11 441.64,312.6C438.28,313.07 436.24,308.95 437.02,305.91C437.8,302.87 440.12,300.29 440.73,297.22C441.73,292.38 438.29,287.84 435.62,283.58C431.457,276.694 428.454,269.17 426.73,261.31C440.43,269 456.64,273.31 472.73,274.31C476.43,274.55 480.24,274.62 483.73,273.44C487.22,272.26 490.31,269.6 490.82,266.22C491.12,264.22 490.49,262.08 491.09,260.11C492.02,257.06 495.52,255.37 497.54,252.8C499.25,250.62 498.6,246.65 496.32,245.94C499.32,245.48 500.86,241.29 500.25,238.19C499.55,234.63 497.79,230.64 500.05,227.68C501.82,225.35 505.59,224.57 506.74,221.93C508.36,218.2 503.66,215.03 500.46,212.3C492.05,205.11 492.03,193 493.59,182.54C493.99,179.81 494.45,177.03 494.82,174.24C503.162,177.927 512.735,177.673 520.87,173.55L521.99,182.28C526.349,183.241 529.899,186.422 531.33,190.65L555.47,190.65C544.7,189.46 536.53,178.59 539.11,168.94Z" style="fill:url(#_Linear2);fill-rule:nonzero;"/>
    </g>
    <g id="_6720e991-48ce-4b6f-bf66-be2a7100720d" serif:id="6720e991-48ce-4b6f-bf66-be2a7100720d" transform="matrix(1,0,0,1,-255,-75)">
        <path d="M421.4,155.42C431.09,147.96 441.87,140.98 454.31,138.95C466.75,136.92 481.18,141.09 487.08,151.35C492.19,160.23 489.94,170.97 488.46,180.92C486.98,190.87 487,202.39 495,209.23C498,211.83 502.51,214.85 501,218.39C499.91,220.9 496.32,221.64 494.63,223.86C492.48,226.68 494.16,230.47 494.82,233.86C495.48,237.25 493.42,241.98 489.82,241.19C493.01,240.49 494.21,245.32 492.29,247.76C490.37,250.2 487.04,251.76 486.15,254.76C485.58,256.63 486.15,258.64 485.89,260.57C485.41,263.78 482.45,266.32 479.14,267.43C475.83,268.54 472.2,268.43 468.68,268.25C444.11,266.68 419.28,257.14 404.46,239.08C381,210.52 394.13,176.42 421.4,155.42Z" style="fill:rgb(251,211,175);fill-rule:nonzero;"/>
    </g>
    <g transform="matrix(1,0,0,1,-255,-75)">
        <path d="M612.72,286.38C612.55,282.92 610.22,281.08 607.9,281.69C605.58,282.3 603.36,284.8 601.57,287.69C600.78,288.95 600.05,290.28 599.32,291.63C593.56,291.2 587.18,294.53 581.96,300.78C576.36,307.49 572.2,317.45 570.81,327.46C570.63,328.79 570.43,330.1 570.15,331.39C542.09,363.19 502.76,397.71 471.07,427.39L471.13,424.93C461.53,380.86 434.91,340.68 427.13,296.34C425.55,287.34 424.38,277.54 417.31,270.99C408.93,263.23 393.47,263.24 384.6,270.54C373.77,279.45 377.31,289.96 380.32,300.85C387.25,325.92 393.08,350.18 402.99,374.63C412.69,398.57 423.12,422.38 429.78,447.18C432.33,456.66 434.49,466.62 441.08,474.4C446.55,480.86 456.22,485.21 464.77,483.71L464.77,484.28C466.063,483.863 467.31,483.313 468.49,482.64C468.94,482.46 469.39,482.28 469.82,482.05L469.82,481.81C472.786,479.727 475.513,477.322 477.95,474.64L528.8,422L584.8,364.17C587.103,361.93 589.18,359.468 591,356.82C592,355.73 593.07,354.65 594.09,353.52C598.76,348.562 602.672,342.941 605.7,336.84C608.83,330.23 610.77,322.11 609.92,315.23C609.654,313.867 609.59,312.472 609.73,311.09C610.11,308.76 611.73,306.82 612.02,304.49C612.38,301.98 611.19,300.11 611.02,297.73C610.78,294.13 612.9,290 612.72,286.38Z" style="fill:url(#_Linear3);fill-rule:nonzero;"/>
    </g>
    <g id="_7052da1e-4b21-4f06-90d1-56ef790211c9" serif:id="7052da1e-4b21-4f06-90d1-56ef790211c9" transform="matrix(1,0,0,1,-255,-75)">
        <path d="M570.27,319.91C571.58,310.15 575.52,300.44 580.82,293.91C586.12,287.38 592.71,284.1 598.47,285.14C600.078,285.355 601.554,286.148 602.62,287.37C603.941,289.147 604.542,291.359 604.3,293.56C599.285,295.002 594.438,296.973 589.84,299.44C586.352,301.177 583.171,303.47 580.42,306.23C577.088,309.733 574.64,313.981 573.28,318.62C572.692,321.223 571.967,323.793 571.11,326.32C570.39,328.06 568.88,330.32 567.67,329.99C567.969,328.657 568.418,327.362 569.01,326.13C569.631,324.103 570.053,322.019 570.27,319.91Z" style="fill:rgb(251,211,175);fill-rule:nonzero;"/>
    </g>
    <g transform="matrix(1,0,0,1,-255,-75)">
        <path d="M770.5,806L755.32,788.77C753.787,787.188 752.482,785.401 751.44,783.46C750,780.47 750,777.19 750,774C750.04,754.26 750.373,734.52 751,714.78C752.16,680.113 754.28,645.51 757.36,610.97C758.63,596.68 762.13,581.39 762.52,566.86L766.09,563.38C772.16,557.45 778.34,551.38 781.87,543.96C785.4,536.54 785.81,527.45 780.64,520.87C773.26,511.48 758.34,510.7 745.53,510.87L659.81,511.78L617,512.2C614.09,512.2 582.16,510.41 582.89,511.9C586.24,518.78 583.97,526.67 583.04,534.14C582.11,541.61 583.53,550.6 590.95,554.08C594.28,555.64 598.19,555.74 601.95,555.8L713.44,557.69L710.05,561.35C680.78,562.54 651.4,563.67 622.15,561.56C615.01,561.04 603.66,558.14 599.07,564.82C592.83,573.92 603.43,583.29 612.37,585.82C618.37,587.51 622.97,593.17 629.26,593.19C647.47,593.19 651.79,590.61 670,590.66C644,618.66 633.79,643.79 607.83,671.83C594.43,686.31 580.56,701.14 562.14,710.15C554.58,713.85 546.21,716.61 540.14,722.08C534.07,727.55 531.2,737.08 536.75,742.94C540.34,746.75 546.43,748.09 549.96,751.94C558.12,760.86 547.14,774.38 550.24,785.59C552.16,792.54 559.46,797.45 567.16,799.31C574.86,801.17 583.01,800.53 590.95,799.87C594.81,799.55 598.83,799.19 602.14,797.36C605.45,795.53 614.07,790.28 612.71,787.02C610.413,781.636 606.377,777.174 601.25,774.35C596.04,771.42 591.2,769.73 591.07,764.21C590.54,741.68 605.91,730.13 622.9,713.53C659.17,678.09 683.38,648.88 719.65,613.45C716.21,659.87 713.93,694.9 713.28,741.45C713.13,752.36 711.45,761.71 704.37,770.59C698.98,777.35 692.26,782.59 692.91,790.86C693.58,799.34 709.4,806.13 717.91,809.86C725.26,813.06 732.17,817.06 739.68,819.94C749.099,823.471 759.102,825.188 769.16,825C773.722,824.974 777.461,821.212 777.461,816.65C777.461,814.429 776.575,812.297 775,810.73C773.4,809.17 771.9,807.55 770.5,806Z" style="fill:url(#_Linear4);fill-rule:nonzero;"/>
    </g>
    <g id="_28e42494-b735-43b2-9937-17aee1b58b01" serif:id="28e42494-b735-43b2-9937-17aee1b58b01" transform="matrix(1,0,0,1,-255,-75)">
        <path d="M744.89,770C744.89,773.08 744.89,776.25 746.22,779.08C747.197,780.946 748.425,782.668 749.87,784.2L764.17,800.82C766.762,803.937 769.653,806.794 772.8,809.35C774.087,810.343 774.843,811.88 774.843,813.506C774.843,816.154 772.84,818.409 770.21,818.72C758.351,820.049 746.345,818.502 735.21,814.21C728.14,811.43 721.63,807.57 714.71,804.49C706.71,800.91 696.71,796.74 696.08,788.56C695.46,780.56 704.31,775.14 709.39,768.62C716.06,760.06 716.33,748.78 716.47,738.25C717.22,683.35 721.3,628.55 725.38,573.78C725.66,569.98 726,566.01 728.15,562.78C733.87,554.11 756.21,551.6 756.74,564.33C757.39,580.06 753.29,597.07 751.92,612.8C749.02,646.133 747.02,679.503 745.92,712.91C745.267,731.93 744.923,750.96 744.89,770Z" style="fill:rgb(251,211,175);fill-rule:nonzero;"/>
    </g>
    <g id="_3f1bacaa-d88a-4b56-af1e-375f8267b0c5" serif:id="3f1bacaa-d88a-4b56-af1e-375f8267b0c5" transform="matrix(1,0,0,1,-255,-75)">
        <path d="M707.92,564.92C714.11,564.66 720.4,564.4 726.45,565.64C732.5,566.88 738.45,569.81 741.67,574.64C744.89,579.47 744.91,586.38 740.58,590.46L632.84,590.17C626.92,590.17 620.84,590.17 615.23,588.5C606.82,586.08 596.82,577.05 602.71,568.27C607.03,561.83 617.71,564.63 624.45,565.13C652.22,567.2 680.13,566.08 707.92,564.92Z" style="fill:rgb(251,211,175);fill-rule:nonzero;"/>
    </g>
    <g id="_3c9c89b7-12bf-4c61-be7e-c89d9115da7d" serif:id="3c9c89b7-12bf-4c61-be7e-c89d9115da7d" transform="matrix(1,0,0,1,-255,-75)">
        <path d="M740.72,516.22C752.78,516.09 766.84,516.84 773.79,525.89C778.66,532.23 778.27,541.02 774.95,548.16C771.63,555.3 765.81,561.16 760.09,566.89L620.62,706.38C604.62,722.38 587.62,740.71 588.11,762.44C588.23,767.76 589.87,773.64 594.78,776.44C599.69,779.24 607.6,779 609.63,784C610.91,787.15 608.7,790.76 605.63,792.52C602.56,794.28 598.73,794.63 595.09,794.94C587.61,795.57 579.93,796.19 572.68,794.4C565.43,792.61 558.55,787.86 556.74,781.17C553.82,770.36 564.17,757.33 556.48,748.72C553.16,745 547.42,743.72 544.04,740.03C538.81,734.34 541.51,725.19 547.23,719.92C552.95,714.65 560.84,711.99 567.96,708.42C585.31,699.73 598.37,685.42 610.96,671.42L710.45,561.42L605.45,559.6C601.91,559.54 598.23,559.44 595.09,557.94C588.09,554.59 586.76,545.94 587.64,538.71C588.52,531.48 590.64,523.91 587.49,517.27C586.81,515.83 616.88,517.59 619.62,517.56L660,517.1L740.72,516.22Z" style="fill:rgb(251,211,175);fill-rule:nonzero;"/>
    </g>
    <g id="_474b98a1-190c-4566-9beb-ffed98568861" serif:id="474b98a1-190c-4566-9beb-ffed98568861" transform="matrix(1,0,0,1,-255,-75)">
        <path d="M469.56,449.58C473.74,453.44 474.98,459.41 474.61,464.93C474.24,470.45 472.5,475.8 471.61,481.27C470.35,489.27 471.77,498.83 479.1,502.97C483.41,505.4 488.73,505.34 493.74,505.21L609.74,502.09C613.67,501.98 618.2,502.09 620.63,505.09C622.36,507.17 622.45,510.09 622.47,512.7L622.88,594.7C585.12,594.227 547.38,595.243 509.66,597.75C477.66,599.88 443.89,602.75 415.2,589.23C391.75,578.16 374.33,556.23 369.6,531.8C364.87,507.37 372.92,481 390.69,462.74C400.79,452.36 413.19,445.45 428.1,447.48C441,449.16 458.68,439.54 469.56,449.58Z" style="fill:url(#_Linear5);fill-rule:nonzero;"/>
    </g>
    <g id="de0f5c02-982e-4d07-abeb-5972028f19d6" transform="matrix(1,0,0,1,-255,-75)">
        <path d="M469.57,456C473.57,459.6 474.8,465.19 474.45,470.35C474.1,475.51 472.45,480.51 471.58,485.63C470.36,493.1 471.74,502.05 478.81,505.91C482.97,508.18 488.11,508.13 492.95,508L604.95,505.09C608.74,504.99 613.12,505.09 615.47,507.86C617.14,509.81 617.23,512.5 617.24,514.98L617.63,591.61C581.17,591.163 544.733,592.113 508.32,594.46C477.47,596.46 444.82,599.14 417.12,586.46C394.48,576.11 377.67,555.61 373.12,532.77C368.57,509.93 376.32,485.27 393.48,468.21C403.23,458.51 415.2,452.04 429.6,453.94C442,455.6 459.07,446.61 469.57,456Z" style="fill:rgb(92,107,192);fill-rule:nonzero;"/>
    </g>
    <g transform="matrix(1,0,0,1,-255,-75)">
        <path d="M490.47,343.33C485.68,335.96 477.76,330.05 470.67,323.8C463.58,317.55 457,310.41 455.92,302.26C455.46,298.87 455.92,295.26 454.03,292.19C451.91,288.74 447.28,286.6 442.85,284.73C441.26,284.06 438.85,282.89 435.9,281.52C426.29,270.41 413.44,259.85 397.83,261.92C382.22,263.99 373.34,279.63 374.83,293.1C376.32,306.57 384.97,318.56 391.83,330.78L392.21,331.48C389.39,374.876 389.841,418.422 393.56,461.75C412.019,464.721 430.729,465.83 449.41,465.06C456.83,464.76 464.88,463.93 470.06,459.95C474.58,456.48 475.87,451.38 476.77,446.59C480.511,426.666 480.917,406.257 477.97,386.2C477.5,382.99 476.97,379.63 478.55,376.62C480.69,372.62 486.14,370.12 489.66,366.62C496.27,360.15 495.26,350.7 490.47,343.33Z" style="fill:url(#_Linear6);fill-rule:nonzero;"/>
    </g>
    <g id="_3b5bb8ef-3798-47b9-ad8e-77eb1f199cc8" serif:id="3b5bb8ef-3798-47b9-ad8e-77eb1f199cc8" transform="matrix(1,0,0,1,-255,-75)">
        <path d="M440.92,284.72C445.02,286.59 449.31,288.72 451.28,292.18C453.04,295.28 452.61,298.86 453.03,302.25C454.03,310.4 460.14,317.54 466.7,323.79C473.26,330.04 480.61,336 485,343.33C489.39,350.66 490.37,360.15 484.21,366.67C480.94,370.13 475.9,372.58 473.91,376.67C472.44,379.67 472.91,383.04 473.37,386.25C476.1,406.318 475.726,426.686 472.26,446.64C471.43,451.44 470.26,456.53 466.04,460C461.24,464 453.78,464.81 446.91,465.11C429.594,465.88 412.246,464.77 395.17,461.8C390.862,407.65 391.28,353.227 396.42,299.15C396.97,293.32 397.28,274.41 405.66,271.75C412.93,269.42 434.45,281.77 440.92,284.72Z" style="fill:rgb(28,117,188);fill-rule:nonzero;"/>
    </g>
    <g id="_0b33ad1d-f45f-4704-8b1d-b0b523832c47" serif:id="0b33ad1d-f45f-4704-8b1d-b0b523832c47" transform="matrix(1,0,0,1,-255,-75)">
        <path d="M431.42,251.73C435.22,254.85 439.13,258.09 441.29,262.33C444.29,268.25 441.82,278.23 440.92,284.71C430.33,280.8 421.38,273.8 410.79,269.88C409.02,269.23 407.14,268.48 406.13,266.99C405.12,265.5 405.24,263.87 405.3,262.24C405.47,257.99 403.63,235.47 407.91,233.8C411.56,232.4 428.26,249.07 431.42,251.73Z" style="fill:rgb(251,211,175);fill-rule:nonzero;"/>
    </g>
    <g id="_24e51810-942c-44db-80d5-d6ddd6abbd26" serif:id="24e51810-942c-44db-80d5-d6ddd6abbd26" transform="matrix(1,0,0,1,-255,-75)">
        <path d="M474.58,470.63C465.58,475.37 453.58,470.75 447.37,463.16C441.16,455.57 439.08,445.86 436.67,436.62C430.36,412.43 420.49,389.22 411.31,365.87C401.93,342.02 396.41,318.38 389.85,293.93C387,283.32 383.65,273.06 393.9,264.37C402.31,257.25 416.9,257.24 424.9,264.81C431.6,271.2 432.7,280.81 434.2,289.53C441.6,332.77 466.81,371.95 475.9,414.92" style="fill:rgb(251,211,175);fill-rule:nonzero;"/>
    </g>
    <g id="e3f05074-c8c0-49eb-a2f7-b7cbd31f903f" transform="matrix(1,0,0,1,-255,-75)">
        <path d="M469.8,423.16C501.89,391.86 544.37,354.1 572.8,319.96C577.51,322.5 582.29,325.1 586.02,328.76C589.75,332.42 592.34,337.38 591.72,342.37C591.08,347.55 587.2,351.83 583.49,355.77L530.44,412.16L482.24,463.39C478.68,467.17 474.89,471.11 469.76,472.78" style="fill:rgb(251,211,175);fill-rule:nonzero;"/>
    </g>
    <path id="_59caff77-b1c1-492c-a2f0-fa101efe18c0" serif:id="59caff77-b1c1-492c-a2f0-fa101efe18c0" d="M226.6,107.14L208.99,103.3L195.72,109.44L197.16,110.72L209.24,107.01L226.6,110.72L226.6,107.14Z" style="fill:rgb(98,53,40);fill-rule:nonzero;"/>
    <g id="_63c0f8c5-67b2-494f-a1f1-f588a75db777" serif:id="63c0f8c5-67b2-494f-a1f1-f588a75db777" transform="matrix(1,0,0,1,-255,-75)">
        <path d="M466.15,203.36C468.833,203.308 471.487,203.927 473.87,205.16C468.005,205.969 462.03,205.359 456.45,203.38C459.599,202.342 462.936,202.001 466.23,202.38" style="fill:rgb(98,53,40);fill-rule:nonzero;"/>
    </g>
    <g id="c3d3106c-b938-4095-9cb7-e036e9d8eafa" transform="matrix(1,0,0,1,-255,-75)">
        <path d="M455.4,202.45C455.49,202.32 460.2,202.67 460.76,202.63C462.67,202.494 464.56,202.159 466.4,201.63C470.038,200.603 473.421,198.825 476.33,196.41C477.45,195.47 481.06,191.92 481.06,191.92C479.517,191.444 477.915,191.188 476.3,191.16C472.4,191.431 468.593,192.474 465.1,194.23C461.236,196.125 457.903,198.95 455.4,202.45Z" style="fill:rgb(98,53,40);fill-rule:nonzero;"/>
    </g>
    <g id="e5a75032-d7c9-4ecd-a331-a892211ed6bc" transform="matrix(1,0,0,1,-255,-75)">
        <path d="M479.17,196.72C479.17,196.72 457.23,203.05 455.56,202.48L457.23,203.06C457.23,203.06 467.05,205.36 469.35,204.4L479.17,196.72Z" style="fill:rgb(98,53,40);fill-rule:nonzero;"/>
    </g>
    <path id="_2834f509-b23b-41d2-9cd0-778e5888e376" serif:id="2834f509-b23b-41d2-9cd0-778e5888e376" d="M274.16,199.66L276.94,194.08L373.63,234.61L381.35,244.6L274.16,199.66Z" style="fill:rgb(0,46,78);fill-rule:nonzero;stroke:rgb(0,46,78);stroke-width:1.12px;"/>
    <g id="_93c71124-b5c2-463f-88da-10e8cfc4b014" serif:id="93c71124-b5c2-463f-88da-10e8cfc4b014" transform="matrix(1,0,0,1,-255,-75)">
        <path d="M592.32,345.39C596.76,340.532 600.466,335.05 603.32,329.12C606.32,322.68 608.12,314.76 607.32,308.04C607.072,306.722 607.011,305.375 607.14,304.04C607.5,301.76 608.99,299.88 609.3,297.6C609.64,295.15 608.52,293.33 608.35,291.01C608.1,287.48 610.11,283.49 609.94,279.92C609.78,276.55 607.57,274.76 605.38,275.35C603.19,275.94 601.09,278.35 599.38,281.16C597.67,283.97 596.26,287.11 594.6,289.96C592.94,292.81 590.95,295.42 588.75,296.37C587.03,297.11 585.37,296.76 583.69,296.76C581.73,296.669 579.85,297.567 578.69,299.15C576.26,302.39 576.2,307.83 574.87,312.27C573.846,315.143 572.585,317.926 571.1,320.59C569.608,323.344 568.756,326.401 568.61,329.53C568.687,331.264 569.024,332.976 569.61,334.61L573.36,346.8C574.42,350.25 575.36,356.19 577.03,358.74C578.03,360.24 578.8,358.95 580.33,357.58C581.697,356.36 583.053,355.097 584.4,353.79C587.093,351.157 589.733,348.357 592.32,345.39Z" style="fill:rgb(251,211,175);fill-rule:nonzero;"/>
    </g>
    <path d="M515.18,85.38L315.72,331.28L342.45,349.66L539.93,100.65L515.18,85.38Z" style="fill:url(#_Linear7);fill-rule:nonzero;"/>
    <path d="M535.54,335.26L466.33,230.29L480.62,213.74L458.39,200.4L420.26,247.04L440.5,260.17L451.49,247.46L500.9,335.26L377.42,335.26L377.42,349.66L581.79,349.66L581.79,335.26L535.54,335.26Z" style="fill:url(#_Linear8);fill-rule:nonzero;"/>
    <g id="e0be627d-4936-4f3a-ae0a-e5062b8a04be">
        <path id="ffbea8ad-c235-4397-80c0-2d40cb112a3f" d="M319.24,329.2L516.47,86.64L536.53,100.46L341.46,346.09L319.24,329.2Z" style="fill:rgb(197,202,233);fill-rule:nonzero;"/>
        <path id="_7c4e4400-8a89-4bd8-ad31-fad4cfb123e9" serif:id="7c4e4400-8a89-4bd8-ad31-fad4cfb123e9" d="M458.39,198.85L479.7,212.02L441.25,257.82L421.86,244.86L458.39,198.85Z" style="fill:rgb(26,35,126);fill-rule:nonzero;"/>
        <path id="_78ac201e-ef76-4c1c-815f-1e640f4bd5bc" serif:id="78ac201e-ef76-4c1c-815f-1e640f4bd5bc" d="M466,228.33L532.91,337.83L506.72,339.44L450.96,243.87L466,228.33Z" style="fill:rgb(26,35,126);fill-rule:nonzero;"/>
        <rect id="_790bbad8-bd49-415f-a3d1-4080b638ebe3" serif:id="790bbad8-bd49-415f-a3d1-4080b638ebe3" x="380.8" y="336.88" width="195.84" height="9.21" style="fill:rgb(26,35,126);"/>
    </g>
    <g transform="matrix(1,0,0,1,-255,-75)">
        <path d="M583.45,419.18L583.45,438.28L619.45,438.28L619.45,460.48L643.4,460.48L643.4,746.62L626.27,746.62L626.27,773.37L645.66,773.37L645.66,825L672.42,825L672.42,773.37L849.51,773.37L849.51,825L876.27,825L876.27,773.37L895.4,773.37L895.4,746.62L876.58,746.62L876.58,460.49L902.24,460.49L902.24,438.29L945,438.29L945,419.19L583.45,419.18ZM849.38,746.62L673.56,746.62L673.56,461.75L849.38,461.75L849.38,746.62Z" style="fill:url(#_Linear9);fill-rule:nonzero;"/>
    </g>
    <g id="_8706e65a-cbe2-45e8-994d-155b4f0e9b29" serif:id="8706e65a-cbe2-45e8-994d-155b4f0e9b29">
        <rect id="_934fbc91-4749-4282-b0ce-c59b9ae18af5" serif:id="934fbc91-4749-4282-b0ce-c59b9ae18af5" x="332.86" y="344.18" width="353.3" height="18.93" style="fill:rgb(83,109,254);"/>
        <rect id="e6d21c10-e3a6-48e5-812c-3a21c7e54c26" x="368.02" y="363.12" width="276.35" height="22" style="fill:rgb(26,35,126);"/>
        <rect id="_9b72e8a2-315d-42f8-9428-6bb56a63a4c6" serif:id="9b72e8a2-315d-42f8-9428-6bb56a63a4c6" x="391.42" y="385.12" width="24.52" height="288.61" style="fill:rgb(26,35,126);"/>
        <rect id="_372ec2b5-a502-48ef-be85-3cee48c69169" serif:id="372ec2b5-a502-48ef-be85-3cee48c69169" x="596.45" y="385.12" width="22.84" height="288.61" style="fill:rgb(26,35,126);"/>
        <rect id="_93a541b1-5244-4db5-9056-0628478d9df9" serif:id="93a541b1-5244-4db5-9056-0628478d9df9" x="374.7" y="673.73" width="262.98" height="21.49" style="fill:rgb(26,35,126);"/>
        <rect id="e88c193b-f3a6-4168-b1e0-ced07e7df2eb" x="597.82" y="695.22" width="21.17" height="51.17" style="fill:rgb(26,35,126);"/>
        <rect id="_7480fcde-a0a4-4ec2-9e15-c42998372cc4" serif:id="7480fcde-a0a4-4ec2-9e15-c42998372cc4" x="393.65" y="695.22" width="21.17" height="51.17" style="fill:rgb(26,35,126);"/>
    </g>
    <g id="f8aa1478-56a0-4597-a117-3ae269503f9b" transform="matrix(1,0,0,1,-255,-75)">
        <path d="M399.22,261.92C384.66,264 376.54,279.63 377.92,293.1C379.3,306.57 387.31,318.56 393.62,330.78C407.62,357.94 413.77,387.87 419.77,417.41C436.36,398.01 453.5,377.47 457.85,353.13C461.5,332.72 455.32,311.68 443.65,294.26C434.64,280.8 419.43,259 399.22,261.92Z" style="fill:rgb(28,117,188);fill-rule:nonzero;"/>
    </g>
    <g id="_541eb892-9cae-43c7-8ad8-efa69785ea69" serif:id="541eb892-9cae-43c7-8ad8-efa69785ea69" transform="matrix(1,0,0,1,-255,-75)">
        <path d="M475.07,152.38C475.43,160.63 480.76,168.55 488.62,172.55C496.768,176.542 506.338,176.476 514.43,172.37L515.5,180.68C519.658,181.6 523.038,184.642 524.39,188.68L547.39,188.68C537.17,187.55 529.39,177.21 531.84,168.03C523.73,172.33 512.68,171.29 505.68,165.58C498.68,159.87 496.26,149.91 499.96,142.01C468.708,133.891 438.65,121.725 410.55,105.82C401.45,100.65 390.7,94.88 380.74,98.47C374.79,100.61 368.38,105.9 363.11,102.58C359.8,100.5 359.47,96.15 357.18,93.12C352.89,87.44 343.78,88.12 336.26,88.34C328.74,88.56 319,85.51 319.12,78.6C316.697,84.063 318.173,90.514 322.73,94.38C327.657,98.319 334.412,99.141 340.14,96.5L345.51,110.5C324.09,113.61 305.86,130.35 302.51,150.02C299.16,169.69 310.84,190.78 330.17,199.81C320.35,197.26 310.5,203.1 302.27,208.65L261.44,236.14C277,239.96 294.8,234.24 304.37,222.35C306.62,219.56 308.94,216.17 312.69,215.76C317.09,215.27 320.51,219.16 324.69,220.52C330.69,222.52 336.99,219 342.87,216.73C356.418,211.65 371.523,212.676 384.26,219.54C396.54,226.38 404.92,238.8 406.12,251.94C406.57,256.94 406.12,262.08 408.19,266.68C409.92,270.47 413.19,273.46 415.44,277.04C418.96,282.73 419.5,289.58 422.44,295.57C425.38,301.56 432.44,306.96 439.1,304.57C435.9,305.02 433.96,301.1 434.7,298.21C435.44,295.32 437.65,292.86 438.23,289.94C439.15,285.33 435.91,281.02 433.37,276.94C425.16,263.84 423.12,248.34 421.25,233.32C420.53,227.57 419.83,221.65 421.51,216.08C423.19,210.51 427.83,205.27 434.06,204.39C424.27,211.29 426.36,227.82 437.61,232.48C441.61,234.14 446.44,234.54 449.48,237.48C452.89,240.73 452.75,245.86 452.11,250.33C451.47,254.8 450.62,259.69 453.11,263.58C455.6,267.47 463.11,268.5 464.96,264.32C470.96,250.87 456.17,237.52 453.36,223.23C451.74,214.99 454.22,206.57 454.16,198.23C454.08,187.77 441.82,180.87 443.23,172.92C445,162.41 465.44,153.93 475.07,152.38Z" style="fill:rgb(98,53,40);fill-rule:nonzero;"/>
    </g>
    <g id="_88e47374-17f8-4c81-ad59-cca7930ebbb1" serif:id="88e47374-17f8-4c81-ad59-cca7930ebbb1">
        <g id="_14cda41f-c0db-4c69-bed7-4144fdca84b9" serif:id="14cda41f-c0db-4c69-bed7-4144fdca84b9" transform="matrix(1,0,0,1,-255,-75)">
            <path d="M456,132.39C456,132.39 373,146.39 356.86,222.57C356.86,222.57 375.34,214.13 394.45,233.37C394.45,233.37 390.9,202.14 469.74,141.94L456,132.39Z" style="fill:url(#_Linear10);fill-rule:nonzero;"/>
        </g>
        <g id="_5bdfec83-34f1-4b16-b4eb-114da2c67497" serif:id="5bdfec83-34f1-4b16-b4eb-114da2c67497" transform="matrix(1,0,0,1,-255,-75)">
            <path d="M447.93,122.35C453.75,132.21 462.01,138.53 466.39,136.46C470.77,134.39 469.6,124.72 463.78,114.86C457.96,105 445.32,100.75 445.32,100.75C445.32,100.75 442.11,112.49 447.93,122.35Z" style="fill:url(#_Linear11);fill-rule:nonzero;"/>
        </g>
        <g id="_5c45504c-693e-43a2-87a8-ab884f896d5d" serif:id="5c45504c-693e-43a2-87a8-ab884f896d5d" transform="matrix(1,0,0,1,-255,-75)">
            <path d="M455.1,114.33C460.92,124.19 469.18,130.51 473.56,128.44C477.94,126.37 476.77,116.7 470.95,106.84C465.13,96.98 452.49,92.73 452.49,92.73C452.49,92.73 449.28,104.47 455.1,114.33Z" style="fill:url(#_Linear12);fill-rule:nonzero;"/>
        </g>
        <g id="_11d74386-ab73-4b42-81bb-1a2e8d1bb6f3" serif:id="11d74386-ab73-4b42-81bb-1a2e8d1bb6f3" transform="matrix(1,0,0,1,-255,-75)">
            <path d="M501.07,130.68C489.92,125.68 479.07,124.87 476.88,128.84C474.69,132.81 481.88,140.05 493.06,145.03C504.24,150.01 517.25,146.87 517.25,146.87C517.25,146.87 512.21,135.66 501.07,130.68Z" style="fill:url(#_Linear13);fill-rule:nonzero;"/>
        </g>
        <g id="_2df90b7f-72d7-49ba-8bdc-dc6314459125" serif:id="2df90b7f-72d7-49ba-8bdc-dc6314459125" transform="matrix(1,0,0,1,-255,-75)">
            <path d="M501.07,137.09C489.92,132.09 479.07,131.28 476.88,135.25C474.69,139.22 481.88,146.46 493.06,151.44C504.24,156.42 517.25,153.28 517.25,153.28C517.25,153.28 512.21,142.07 501.07,137.09Z" style="fill:url(#_Linear14);fill-rule:nonzero;"/>
        </g>
        <g id="_7ceb9df1-944c-4c6b-aa71-f8b4ceb003f5" serif:id="7ceb9df1-944c-4c6b-aa71-f8b4ceb003f5" transform="matrix(1,0,0,1,-255,-75)">
            <path d="M460.6,142.13C464.29,146.03 472.86,144.97 479.76,139.75C486.66,134.53 489.26,127.14 485.57,123.24C481.88,119.34 473.31,120.4 466.41,125.62C459.51,130.84 456.92,138.23 460.6,142.13Z" style="fill:url(#_Linear15);fill-rule:nonzero;"/>
        </g>
    </g>
    <g id="_6db6af73-72c8-4354-a470-b4bfeda03afa" serif:id="6db6af73-72c8-4354-a470-b4bfeda03afa">
        <g id="_9042c747-c959-4ed1-806e-42a761bb7786" serif:id="9042c747-c959-4ed1-806e-42a761bb7786" transform="matrix(1,0,0,1,-255,-75)">
            <path d="M452.45,132.89C452.45,132.89 375,146.29 360,219.22C360,219.22 377.24,211.13 395.07,229.56C395.07,229.56 391.76,199.66 465.3,142.03L452.45,132.89Z" style="fill:rgb(28,117,188);fill-rule:nonzero;"/>
        </g>
        <g id="_21f4f02a-5a2d-46ea-99ab-5ced5aa61997" serif:id="21f4f02a-5a2d-46ea-99ab-5ced5aa61997" transform="matrix(1,0,0,1,-255,-75)">
            <path d="M444.94,123.28C450.37,132.72 458.08,138.77 462.16,136.79C466.24,134.81 465.16,125.55 459.72,116.11C454.28,106.67 442.5,102.6 442.5,102.6C442.5,102.6 439.51,113.84 444.94,123.28Z" style="fill:rgb(28,117,188);fill-rule:nonzero;"/>
        </g>
        <g id="_99a88b69-1579-48dc-8bf2-f6af4ba2f120" serif:id="99a88b69-1579-48dc-8bf2-f6af4ba2f120" transform="matrix(1,0,0,1,-255,-75)">
            <path d="M451.63,115.6C457.06,125.04 464.77,131.09 468.85,129.11C472.93,127.13 471.85,117.87 466.41,108.43C460.97,98.99 449.19,94.92 449.19,94.92C449.19,94.92 446.2,106.16 451.63,115.6Z" style="fill:rgb(28,117,188);fill-rule:nonzero;"/>
        </g>
        <g id="_4b805645-f1ac-4f4a-9520-1255b7368952" serif:id="4b805645-f1ac-4f4a-9520-1255b7368952" transform="matrix(1,0,0,1,-255,-75)">
            <path d="M494.51,131.25C484.11,126.48 474.01,125.69 471.95,129.48C469.89,133.27 476.65,140.21 487.05,144.98C497.45,149.75 509.61,146.75 509.61,146.75C509.61,146.75 504.91,136 494.51,131.25Z" style="fill:rgb(28,117,188);fill-rule:nonzero;"/>
        </g>
        <g id="e799353d-a6c4-4000-b9ff-2f519e97057e" transform="matrix(1,0,0,1,-255,-75)">
            <path d="M494.51,137.39C484.11,132.62 474.01,131.83 471.95,135.62C469.89,139.41 476.65,146.35 487.05,151.12C497.45,155.89 509.61,152.89 509.61,152.89C509.61,152.89 504.91,142.16 494.51,137.39Z" style="fill:rgb(28,117,188);fill-rule:nonzero;"/>
        </g>
        <g id="_87635640-51a7-4eec-ad1a-3454ccfda9b7" serif:id="87635640-51a7-4eec-ad1a-3454ccfda9b7" transform="matrix(1,0,0,1,-255,-75)">
            <path d="M456.76,142.21C460.2,145.95 468.2,144.93 474.63,139.93C481.06,134.93 483.49,127.86 480.05,124.12C476.61,120.38 468.61,121.4 462.18,126.4C455.75,131.4 453.32,138.48 456.76,142.21Z" style="fill:rgb(28,117,188);fill-rule:nonzero;"/>
        </g>
    </g>
    <defs>
        <linearGradient id="_Linear1" x1="0" y1="0" x2="1" y2="0" gradientUnits="userSpaceOnUse" gradientTransform="matrix(1.40412e-14,-229.31,229.31,1.40412e-14,454.23,806)"><stop offset="0" style="stop-color:rgb(128,128,128);stop-opacity:0.247059"/><stop offset="0.54" style="stop-color:rgb(128,128,128);stop-opacity:0.113725"/><stop offset="1" style="stop-color:rgb(128,128,128);stop-opacity:0.0941176"/></linearGradient>
        <linearGradient id="_Linear2" x1="0" y1="0" x2="1" y2="0" gradientUnits="userSpaceOnUse" gradientTransform="matrix(1.45843e-14,-238.18,238.18,1.45843e-14,405.22,313.18)"><stop offset="0" style="stop-color:rgb(128,128,128);stop-opacity:0.247059"/><stop offset="0.54" style="stop-color:rgb(128,128,128);stop-opacity:0.113725"/><stop offset="1" style="stop-color:rgb(128,128,128);stop-opacity:0.0941176"/></linearGradient>
        <linearGradient id="_Linear3" x1="0" y1="0" x2="1" y2="0" gradientUnits="userSpaceOnUse" gradientTransform="matrix(1.34209e-14,-219.18,219.18,1.34209e-14,494.97,484.21)"><stop offset="0" style="stop-color:rgb(128,128,128);stop-opacity:0.247059"/><stop offset="0.54" style="stop-color:rgb(128,128,128);stop-opacity:0.113725"/><stop offset="1" style="stop-color:rgb(128,128,128);stop-opacity:0.0941176"/></linearGradient>
        <linearGradient id="_Linear4" x1="0" y1="0" x2="1" y2="0" gradientUnits="userSpaceOnUse" gradientTransform="matrix(1.92386e-14,-314.19,314.19,1.92386e-14,659.2,825)"><stop offset="0" style="stop-color:rgb(128,128,128);stop-opacity:0.247059"/><stop offset="0.54" style="stop-color:rgb(128,128,128);stop-opacity:0.113725"/><stop offset="1" style="stop-color:rgb(128,128,128);stop-opacity:0.0941176"/></linearGradient>
        <linearGradient id="_Linear5" x1="0" y1="0" x2="1" y2="0" gradientUnits="userSpaceOnUse" gradientTransform="matrix(9.46407e-15,-154.56,154.56,9.46407e-15,495.61,599.49)"><stop offset="0" style="stop-color:rgb(128,128,128);stop-opacity:0.247059"/><stop offset="0.54" style="stop-color:rgb(128,128,128);stop-opacity:0.113725"/><stop offset="1" style="stop-color:rgb(128,128,128);stop-opacity:0.0941176"/></linearGradient>
        <linearGradient id="_Linear6" x1="0" y1="0" x2="1" y2="0" gradientUnits="userSpaceOnUse" gradientTransform="matrix(1.24694e-14,-203.64,203.64,1.24694e-14,434.5,465.3)"><stop offset="0" style="stop-color:rgb(128,128,128);stop-opacity:0.247059"/><stop offset="0.54" style="stop-color:rgb(128,128,128);stop-opacity:0.113725"/><stop offset="1" style="stop-color:rgb(128,128,128);stop-opacity:0.0941176"/></linearGradient>
        <linearGradient id="_Linear7" x1="0" y1="0" x2="1" y2="0" gradientUnits="userSpaceOnUse" gradientTransform="matrix(1.61825e-14,-264.28,264.28,1.61825e-14,427.82,349.66)"><stop offset="0" style="stop-color:rgb(128,128,128);stop-opacity:0.247059"/><stop offset="0.54" style="stop-color:rgb(128,128,128);stop-opacity:0.113725"/><stop offset="1" style="stop-color:rgb(128,128,128);stop-opacity:0.0941176"/></linearGradient>
        <linearGradient id="_Linear8" x1="0" y1="0" x2="1" y2="0" gradientUnits="userSpaceOnUse" gradientTransform="matrix(9.13954e-15,-149.26,149.26,9.13954e-15,479.61,349.66)"><stop offset="0" style="stop-color:rgb(128,128,128);stop-opacity:0.247059"/><stop offset="0.54" style="stop-color:rgb(128,128,128);stop-opacity:0.113725"/><stop offset="1" style="stop-color:rgb(128,128,128);stop-opacity:0.0941176"/></linearGradient>
        <linearGradient id="_Linear9" x1="0" y1="0" x2="1" y2="0" gradientUnits="userSpaceOnUse" gradientTransform="matrix(2.48493e-14,-405.82,405.82,2.48493e-14,764.23,825)"><stop offset="0" style="stop-color:rgb(128,128,128);stop-opacity:0.247059"/><stop offset="0.54" style="stop-color:rgb(128,128,128);stop-opacity:0.113725"/><stop offset="1" style="stop-color:rgb(128,128,128);stop-opacity:0.0941176"/></linearGradient>
        <linearGradient id="_Linear10" x1="0" y1="0" x2="1" y2="0" gradientUnits="userSpaceOnUse" gradientTransform="matrix(6.18263e-15,-100.97,100.97,6.18263e-15,413.29,233.36)"><stop offset="0" style="stop-color:rgb(128,128,128);stop-opacity:0.247059"/><stop offset="0.54" style="stop-color:rgb(128,128,128);stop-opacity:0.113725"/><stop offset="1" style="stop-color:rgb(128,128,128);stop-opacity:0.0941176"/></linearGradient>
        <linearGradient id="_Linear11" x1="0" y1="0" x2="1" y2="0" gradientUnits="userSpaceOnUse" gradientTransform="matrix(2.21049e-15,-36.1,36.1,2.21049e-15,456.74,136.85)"><stop offset="0" style="stop-color:rgb(128,128,128);stop-opacity:0.247059"/><stop offset="0.54" style="stop-color:rgb(128,128,128);stop-opacity:0.113725"/><stop offset="1" style="stop-color:rgb(128,128,128);stop-opacity:0.0941176"/></linearGradient>
        <linearGradient id="_Linear12" x1="0" y1="0" x2="1" y2="0" gradientUnits="userSpaceOnUse" gradientTransform="matrix(2.21049e-15,-36.1,36.1,2.21049e-15,463.9,128.84)"><stop offset="0" style="stop-color:rgb(128,128,128);stop-opacity:0.247059"/><stop offset="0.54" style="stop-color:rgb(128,128,128);stop-opacity:0.113725"/><stop offset="1" style="stop-color:rgb(128,128,128);stop-opacity:0.0941176"/></linearGradient>
        <linearGradient id="_Linear13" x1="0" y1="0" x2="1" y2="0" gradientUnits="userSpaceOnUse" gradientTransform="matrix(1.31711e-15,-21.51,21.51,1.31711e-15,496.87,147.84)"><stop offset="0" style="stop-color:rgb(128,128,128);stop-opacity:0.247059"/><stop offset="0.54" style="stop-color:rgb(128,128,128);stop-opacity:0.113725"/><stop offset="1" style="stop-color:rgb(128,128,128);stop-opacity:0.0941176"/></linearGradient>
        <linearGradient id="_Linear14" x1="0" y1="0" x2="1" y2="0" gradientUnits="userSpaceOnUse" gradientTransform="matrix(1.31711e-15,-21.51,21.51,1.31711e-15,496.87,154.25)"><stop offset="0" style="stop-color:rgb(128,128,128);stop-opacity:0.247059"/><stop offset="0.54" style="stop-color:rgb(128,128,128);stop-opacity:0.113725"/><stop offset="1" style="stop-color:rgb(128,128,128);stop-opacity:0.0941176"/></linearGradient>
        <linearGradient id="_Linear15" x1="0" y1="0" x2="1" y2="0" gradientUnits="userSpaceOnUse" gradientTransform="matrix(1.44447e-15,-23.59,23.59,1.44447e-15,473.09,144.48)"><stop offset="0" style="stop-color:rgb(128,128,128);stop-opacity:0.247059"/><stop offset="0.54" style="stop-color:rgb(128,128,128);stop-opacity:0.113725"/><stop offset="1" style="stop-color:rgb(128,128,128);stop-opacity:0.0941176"/></linearGradient>
    </defs>
</svg>
