<?xml version="1.0" encoding="UTF-8" standalone="no"?>
<!DOCTYPE svg PUBLIC "-//W3C//DTD SVG 1.1//EN" "http://www.w3.org/Graphics/SVG/1.1/DTD/svg11.dtd">
<svg width="100%" height="100%" viewBox="0 0 955 681" version="1.1" xmlns="http://www.w3.org/2000/svg" xmlns:xlink="http://www.w3.org/1999/xlink" xml:space="preserve" xmlns:serif="http://www.serif.com/" style="fill-rule:evenodd;clip-rule:evenodd;stroke-miterlimit:10;">
    <g transform="matrix(1,0,0,1,-122.5,-109.75)">
        <path d="M980.07,687.7C972.95,691.37 965.49,694.54 958.13,697.7C930.94,709.18 903.34,720.76 874.13,724.7C819.27,732 762.66,712 708.76,724.48C663.61,734.9 626.27,766.83 582.16,781.05C561.65,787.66 540.31,790.25 518.78,790.25L516,790.25C513.333,790.217 510.687,790.15 508.06,790.05C486.23,789.23 464.31,786 442.91,781.87C375.34,768.87 306.57,745.04 254.91,701.17C405.33,673.69 715.18,631.51 980.07,687.7Z" style="fill:rgb(37,34,35);fill-opacity:0.1;fill-rule:nonzero;"/>
    </g>
    <path d="M910,249L910,185L872,185L872,249L827,249L827,150L794,150L794,76L767,76L767,0L711,0L711,76L684,76L684,150L652,150L652,61L634,61L634,16L623,16L623,61L559,61L559,345L510,345L510,315L480,315L480,345L431,345L431,249L343,249L343,185L305,185L305,249L303,249L303,372L263,372L263,300L215,300L215,372L175,372L175,150L144,150L144,76L30,76L30,150L0,150L0,541L955,541L955,249L910,249Z" style="fill:rgb(28,117,188);fill-opacity:0.3;fill-rule:nonzero;"/>
    <rect x="19" y="173" width="42" height="24" style="fill:white;fill-opacity:0.4;"/>
    <g transform="matrix(-1,7.65714e-16,-7.65714e-16,-1,390.5,479.75)">
        <rect x="235.5" y="282.75" width="42" height="24" style="fill:white;fill-opacity:0.4;"/>
    </g>
    <rect x="19" y="220" width="42" height="24" style="fill:white;fill-opacity:0.4;"/>
    <g transform="matrix(-1,7.65714e-16,-7.65714e-16,-1,390.5,573.75)">
        <rect x="235.5" y="329.75" width="42" height="24" style="fill:white;fill-opacity:0.4;"/>
    </g>
    <rect x="19" y="267" width="42" height="24" style="fill:white;fill-opacity:0.4;"/>
    <g transform="matrix(-1,7.65714e-16,-7.65714e-16,-1,390.5,667.75)">
        <rect x="235.5" y="376.75" width="42" height="24" style="fill:white;fill-opacity:0.4;"/>
    </g>
    <rect x="19" y="314" width="42" height="24" style="fill:white;fill-opacity:0.4;"/>
    <g transform="matrix(-1,7.65714e-16,-7.65714e-16,-1,390.5,761.75)">
        <rect x="235.5" y="423.75" width="42" height="24" style="fill:white;fill-opacity:0.4;"/>
    </g>
    <rect x="19" y="361" width="42" height="24" style="fill:white;fill-opacity:0.4;"/>
    <g transform="matrix(-1,7.65714e-16,-7.65714e-16,-1,390.5,855.75)">
        <rect x="235.5" y="470.75" width="42" height="24" style="fill:white;fill-opacity:0.4;"/>
    </g>
    <rect x="19" y="408" width="42" height="24" style="fill:white;fill-opacity:0.4;"/>
    <g transform="matrix(-1,7.65714e-16,-7.65714e-16,-1,390.5,949.75)">
        <rect x="235.5" y="517.75" width="42" height="24" style="fill:white;fill-opacity:0.4;"/>
    </g>
    <rect x="19" y="455" width="42" height="24" style="fill:white;fill-opacity:0.4;"/>
    <g transform="matrix(-1,7.65714e-16,-7.65714e-16,-1,390.5,1043.75)">
        <rect x="235.5" y="564.75" width="42" height="24" style="fill:white;fill-opacity:0.4;"/>
    </g>
    <rect x="190" y="396" width="98" height="12" style="fill:white;fill-opacity:0.4;"/>
    <rect x="190" y="414" width="98" height="12" style="fill:white;fill-opacity:0.4;"/>
    <rect x="190" y="432" width="98" height="12" style="fill:white;fill-opacity:0.4;"/>
    <rect x="446" y="402" width="98" height="12" style="fill:white;fill-opacity:0.4;"/>
    <rect x="446" y="420" width="98" height="12" style="fill:white;fill-opacity:0.4;"/>
    <rect x="446" y="438" width="98" height="12" style="fill:white;fill-opacity:0.4;"/>
    <rect x="190" y="450" width="98" height="12" style="fill:white;fill-opacity:0.4;"/>
    <rect x="190" y="468" width="98" height="12" style="fill:white;fill-opacity:0.4;"/>
    <rect x="190" y="486" width="98" height="12" style="fill:white;fill-opacity:0.4;"/>
    <rect x="324" y="272" width="27" height="35" style="fill:white;fill-opacity:0.4;"/>
    <g transform="matrix(-1,7.65714e-16,-7.65714e-16,-1,915.5,688.75)">
        <rect x="505.5" y="381.75" width="27" height="35" style="fill:white;fill-opacity:0.4;"/>
    </g>
    <rect x="324" y="328" width="27" height="35" style="fill:white;fill-opacity:0.4;"/>
    <g transform="matrix(-1,7.65714e-16,-7.65714e-16,-1,915.5,800.75)">
        <rect x="505.5" y="437.75" width="27" height="35" style="fill:white;fill-opacity:0.4;"/>
    </g>
    <rect x="324" y="384" width="27" height="35" style="fill:white;fill-opacity:0.4;"/>
    <g transform="matrix(-1,7.65714e-16,-7.65714e-16,-1,915.5,912.75)">
        <rect x="505.5" y="493.75" width="27" height="35" style="fill:white;fill-opacity:0.4;"/>
    </g>
    <rect x="324" y="440" width="27" height="35" style="fill:white;fill-opacity:0.4;"/>
    <g transform="matrix(-1,7.65714e-16,-7.65714e-16,-1,915.5,1024.75)">
        <rect x="505.5" y="549.75" width="27" height="35" style="fill:white;fill-opacity:0.4;"/>
    </g>
    <rect x="559" y="84" width="36" height="46" style="fill:white;fill-opacity:0.4;"/>
    <rect x="559" y="150" width="36" height="46" style="fill:white;fill-opacity:0.4;"/>
    <rect x="559" y="216" width="36" height="46" style="fill:white;fill-opacity:0.4;"/>
    <rect x="559" y="282" width="36" height="46" style="fill:white;fill-opacity:0.4;"/>
    <rect x="559" y="348" width="36" height="46" style="fill:white;fill-opacity:0.4;"/>
    <rect x="559" y="414" width="36" height="46" style="fill:white;fill-opacity:0.4;"/>
    <rect x="672.5" y="178" width="134" height="39" style="fill:white;fill-opacity:0.4;"/>
    <rect x="673" y="262" width="134" height="39" style="fill:white;fill-opacity:0.4;"/>
    <rect x="673.5" y="346" width="134" height="39" style="fill:white;fill-opacity:0.4;"/>
    <rect x="674" y="430" width="134" height="39" style="fill:white;fill-opacity:0.4;"/>
    <rect x="30" y="97" width="18" height="38" style="fill:white;fill-opacity:0.4;"/>
    <rect x="910" y="272" width="45" height="58" style="fill:white;fill-opacity:0.4;"/>
    <rect x="910" y="356" width="45" height="58" style="fill:white;fill-opacity:0.4;"/>
    <rect x="910" y="440" width="45" height="58" style="fill:white;fill-opacity:0.4;"/>
    <g transform="matrix(1,0,0,1,-122.5,-109.75)">
        <path d="M172.17,589.3C172.17,589.3 93.44,636.8 238.57,709.93C238.57,709.93 270.57,650.57 235.19,602.17C221.056,582.738 194.325,576.88 173.36,588.62L172.17,589.3Z" style="fill:rgb(28,117,188);fill-rule:nonzero;"/>
    </g>
    <g transform="matrix(1,0,0,1,-122.5,-109.75)">
        <path d="M173.08,588.3C173.08,588.3 240.45,639.85 238.57,709.93" style="fill:none;stroke:rgb(83,84,97);stroke-width:1px;"/>
    </g>
    <g transform="matrix(1,0,0,1,-122.5,-109.75)">
        <path d="M242.23,712.63C242.23,712.63 217.56,628.87 246.86,567.22C259.16,541.35 263.24,512.3 257.56,484.22C254.844,470.888 250.911,457.833 245.81,445.22" style="fill:none;stroke:rgb(83,84,97);stroke-width:2px;"/>
    </g>
    <g transform="matrix(1,0,0,1,-122.5,-109.75)">
        <path d="M264,406.31C264,416.58 245.41,446.31 245.41,446.31C245.41,446.31 226.82,416.54 226.82,406.31C226.817,406.166 226.815,406.023 226.815,405.879C226.815,395.681 235.207,387.289 245.405,387.289C255.603,387.289 263.995,395.681 263.995,405.879C263.995,406.023 263.993,406.166 263.99,406.31L264,406.31Z" style="fill:rgb(28,117,188);fill-rule:nonzero;"/>
    </g>
    <g transform="matrix(1,0,0,1,-122.5,-109.75)">
        <path d="M294.76,463.17C289.18,471.79 257.4,486.67 257.4,486.67C257.4,486.67 257.98,451.58 263.56,442.96C267.021,437.897 272.773,434.862 278.906,434.862C289.104,434.862 297.496,443.254 297.496,453.452C297.496,456.878 296.549,460.238 294.76,463.16L294.76,463.17Z" style="fill:rgb(28,117,188);fill-rule:nonzero;"/>
    </g>
    <g transform="matrix(1,0,0,1,-122.5,-109.75)">
        <path d="M293.41,560.34C284.24,564.96 249.3,561.77 249.3,561.77C249.3,561.77 267.51,531.77 276.68,527.15C279.189,525.947 281.937,525.322 284.719,525.322C294.917,525.322 303.309,533.714 303.309,543.912C303.309,550.787 299.496,557.122 293.42,560.34L293.41,560.34Z" style="fill:rgb(28,117,188);fill-rule:nonzero;"/>
    </g>
    <g transform="matrix(1,0,0,1,-122.5,-109.75)">
        <path d="M275.84,633.63C267.59,639.73 232.6,642.49 232.6,642.49C232.6,642.49 245.48,609.85 253.73,603.74C256.951,601.317 260.874,600.007 264.904,600.007C275.103,600.007 283.494,608.399 283.494,618.597C283.494,624.539 280.645,630.134 275.84,633.63Z" style="fill:rgb(28,117,188);fill-rule:nonzero;"/>
    </g>
    <g transform="matrix(1,0,0,1,-122.5,-109.75)">
        <path d="M218.37,488.66C225.73,495.81 260.04,503.22 260.04,503.22C260.04,503.22 251.64,469.15 244.28,461.99C240.786,458.429 236.001,456.421 231.012,456.421C220.814,456.421 212.422,464.813 212.422,475.011C212.422,480.186 214.583,485.133 218.38,488.65L218.37,488.66Z" style="fill:rgb(28,117,188);fill-rule:nonzero;"/>
    </g>
    <g transform="matrix(1,0,0,1,-122.5,-109.75)">
        <path d="M198.91,574.63C208.08,579.25 243.02,576.06 243.02,576.06C243.02,576.06 224.81,546.06 215.64,541.44C213.131,540.237 210.383,539.612 207.601,539.612C197.403,539.612 189.011,548.004 189.011,558.202C189.011,565.077 192.824,571.412 198.9,574.63L198.91,574.63Z" style="fill:rgb(28,117,188);fill-rule:nonzero;"/>
    </g>
    <g transform="matrix(1,0,0,1,-122.5,-109.75)">
        <path d="M191.46,660.79C199.71,666.89 234.7,669.65 234.7,669.65C234.7,669.65 221.82,637 213.56,630.9C210.383,628.589 206.553,627.343 202.624,627.343C192.426,627.343 184.034,635.735 184.034,645.933C184.034,651.771 186.784,657.281 191.45,660.79L191.46,660.79Z" style="fill:rgb(28,117,188);fill-rule:nonzero;"/>
    </g>
    <g transform="matrix(1,0,0,1,-122.5,-109.75)">
        <path d="M264,406.31C264,416.58 245.41,446.31 245.41,446.31C245.41,446.31 226.82,416.54 226.82,406.31C226.817,406.166 226.815,406.023 226.815,405.879C226.815,395.681 235.207,387.289 245.405,387.289C255.603,387.289 263.995,395.681 263.995,405.879C263.995,406.023 263.993,406.166 263.99,406.31L264,406.31Z" style="fill-opacity:0.25;fill-rule:nonzero;"/>
    </g>
    <g transform="matrix(1,0,0,1,-122.5,-109.75)">
        <path d="M294.76,463.17C289.18,471.79 257.4,486.67 257.4,486.67C257.4,486.67 257.98,451.58 263.56,442.96C267.021,437.897 272.773,434.862 278.906,434.862C289.104,434.862 297.496,443.254 297.496,453.452C297.496,456.878 296.549,460.238 294.76,463.16L294.76,463.17Z" style="fill-opacity:0.25;fill-rule:nonzero;"/>
    </g>
    <g transform="matrix(1,0,0,1,-122.5,-109.75)">
        <path d="M293.41,560.34C284.24,564.96 249.3,561.77 249.3,561.77C249.3,561.77 267.51,531.77 276.68,527.15C279.189,525.947 281.937,525.322 284.719,525.322C294.917,525.322 303.309,533.714 303.309,543.912C303.309,550.787 299.496,557.122 293.42,560.34L293.41,560.34Z" style="fill-opacity:0.25;fill-rule:nonzero;"/>
    </g>
    <g transform="matrix(1,0,0,1,-122.5,-109.75)">
        <path d="M275.84,633.63C267.59,639.73 232.6,642.49 232.6,642.49C232.6,642.49 245.48,609.85 253.73,603.74C256.951,601.317 260.874,600.007 264.904,600.007C275.103,600.007 283.494,608.399 283.494,618.597C283.494,624.539 280.645,630.134 275.84,633.63Z" style="fill-opacity:0.25;fill-rule:nonzero;"/>
    </g>
    <g transform="matrix(1,0,0,1,-122.5,-109.75)">
        <path d="M218.37,488.66C225.73,495.81 260.04,503.22 260.04,503.22C260.04,503.22 251.64,469.15 244.28,461.99C240.786,458.429 236.001,456.421 231.012,456.421C220.814,456.421 212.422,464.813 212.422,475.011C212.422,480.186 214.583,485.133 218.38,488.65L218.37,488.66Z" style="fill-opacity:0.25;fill-rule:nonzero;"/>
    </g>
    <g transform="matrix(1,0,0,1,-122.5,-109.75)">
        <path d="M198.91,574.63C208.08,579.25 243.02,576.06 243.02,576.06C243.02,576.06 224.81,546.06 215.64,541.44C213.131,540.237 210.383,539.612 207.601,539.612C197.403,539.612 189.011,548.004 189.011,558.202C189.011,565.077 192.824,571.412 198.9,574.63L198.91,574.63Z" style="fill-opacity:0.25;fill-rule:nonzero;"/>
    </g>
    <g transform="matrix(1,0,0,1,-122.5,-109.75)">
        <path d="M191.46,660.79C199.71,666.89 234.7,669.65 234.7,669.65C234.7,669.65 221.82,637 213.56,630.9C210.383,628.589 206.553,627.343 202.624,627.343C192.426,627.343 184.034,635.735 184.034,645.933C184.034,651.771 186.784,657.281 191.45,660.79L191.46,660.79Z" style="fill-opacity:0.25;fill-rule:nonzero;"/>
    </g>
    <g transform="matrix(1,0,0,1,-122.5,-109.75)">
        <path d="M1012.28,691C1012.28,691 987.61,607.24 1016.91,545.59C1029.21,519.72 1033.29,490.67 1027.61,462.59C1024.89,449.258 1020.96,436.203 1015.86,423.59" style="fill:none;stroke:rgb(83,84,97);stroke-width:2px;"/>
    </g>
    <g transform="matrix(1,0,0,1,-122.5,-109.75)">
        <path d="M1034.09,384.68C1034.09,394.95 1015.5,424.68 1015.5,424.68C1015.5,424.68 996.91,394.91 996.91,384.68C996.907,384.536 996.905,384.393 996.905,384.249C996.905,374.051 1005.3,365.659 1015.5,365.659C1025.69,365.659 1034.09,374.051 1034.09,384.249C1034.09,384.393 1034.08,384.536 1034.08,384.68L1034.09,384.68Z" style="fill:rgb(28,117,188);fill-rule:nonzero;"/>
    </g>
    <g transform="matrix(1,0,0,1,-122.5,-109.75)">
        <path d="M1064.81,441.54C1059.23,450.16 1027.45,465.04 1027.45,465.04C1027.45,465.04 1028.03,429.95 1033.61,421.33C1036.99,415.818 1043,412.448 1049.46,412.448C1059.66,412.448 1068.05,420.84 1068.05,431.038C1068.05,434.782 1066.92,438.44 1064.81,441.53L1064.81,441.54Z" style="fill:rgb(28,117,188);fill-rule:nonzero;"/>
    </g>
    <g transform="matrix(1,0,0,1,-122.5,-109.75)">
        <path d="M1063.47,538.71C1054.3,543.33 1019.36,540.14 1019.36,540.14C1019.36,540.14 1037.57,510.14 1046.74,505.52C1049.25,504.317 1052,503.692 1054.78,503.692C1064.98,503.692 1073.37,512.084 1073.37,522.282C1073.37,529.157 1069.56,535.492 1063.48,538.71L1063.47,538.71Z" style="fill:rgb(28,117,188);fill-rule:nonzero;"/>
    </g>
    <g transform="matrix(1,0,0,1,-122.5,-109.75)">
        <path d="M1045.9,612C1037.65,618.1 1002.66,620.86 1002.66,620.86C1002.66,620.86 1015.54,588.22 1023.79,582.11C1026.97,579.799 1030.8,578.553 1034.73,578.553C1044.92,578.553 1053.32,586.945 1053.32,597.143C1053.32,602.981 1050.57,608.491 1045.9,612Z" style="fill:rgb(28,117,188);fill-rule:nonzero;"/>
    </g>
    <g transform="matrix(1,0,0,1,-122.5,-109.75)">
        <path d="M988.42,467C995.78,474.15 1030.09,481.56 1030.09,481.56C1030.09,481.56 1021.69,447.49 1014.33,440.33C1010.86,436.96 1006.21,435.073 1001.38,435.073C991.176,435.073 982.783,443.466 982.783,453.665C982.783,458.687 984.818,463.501 988.42,467Z" style="fill:rgb(28,117,188);fill-rule:nonzero;"/>
    </g>
    <g transform="matrix(1,0,0,1,-122.5,-109.75)">
        <path d="M969,553C978.17,557.62 1013.11,554.43 1013.11,554.43C1013.11,554.43 994.9,524.43 985.73,519.81C983.246,518.636 980.532,518.027 977.785,518.027C967.586,518.027 959.195,526.418 959.195,536.617C959.195,543.458 962.971,549.767 969,553Z" style="fill:rgb(28,117,188);fill-rule:nonzero;"/>
    </g>
    <g transform="matrix(1,0,0,1,-122.5,-109.75)">
        <path d="M961.51,639.16C969.76,645.26 1004.75,648.02 1004.75,648.02C1004.75,648.02 991.87,615.38 983.62,609.27C980.443,606.959 976.613,605.713 972.684,605.713C962.486,605.713 954.094,614.105 954.094,624.303C954.094,630.141 956.844,635.651 961.51,639.16Z" style="fill:rgb(28,117,188);fill-rule:nonzero;"/>
    </g>
    <g transform="matrix(1,0,0,1,-122.5,-109.75)">
        <path d="M901,682.85C901,682.85 887.74,637.85 903.49,604.71C910.181,590.86 912.199,575.205 909.24,560.11C907.78,552.955 905.668,545.949 902.93,539.18" style="fill:none;stroke:rgb(83,84,97);stroke-width:2px;"/>
    </g>
    <g transform="matrix(1,0,0,1,-122.5,-109.75)">
        <path d="M912.72,518.23C912.72,523.75 902.72,539.74 902.72,539.74C902.72,539.74 892.72,523.74 892.72,518.23C892.72,512.744 897.234,508.23 902.72,508.23C908.206,508.23 912.72,512.744 912.72,518.23Z" style="fill:rgb(28,117,188);fill-rule:nonzero;"/>
    </g>
    <g transform="matrix(1,0,0,1,-122.5,-109.75)">
        <path d="M929.23,548.79C926.23,553.42 909.15,561.42 909.15,561.42C909.15,561.42 909.46,542.56 912.46,537.93C914.251,534.867 917.544,532.978 921.092,532.978C926.578,532.978 931.092,537.492 931.092,542.978C931.092,545.062 930.441,547.094 929.23,548.79Z" style="fill:rgb(28,117,188);fill-rule:nonzero;"/>
    </g>
    <g transform="matrix(1,0,0,1,-122.5,-109.75)">
        <path d="M928.51,601C923.58,603.48 904.8,601.77 904.8,601.77C904.8,601.77 914.59,585.65 919.51,583.17C920.804,582.585 922.208,582.283 923.627,582.283C929.113,582.283 933.627,586.797 933.627,592.283C933.627,595.899 931.666,599.244 928.51,601.01L928.51,601Z" style="fill:rgb(28,117,188);fill-rule:nonzero;"/>
    </g>
    <g transform="matrix(1,0,0,1,-122.5,-109.75)">
        <path d="M919.06,640.39C914.62,643.67 895.82,645.15 895.82,645.15C895.82,645.15 902.74,627.61 907.18,624.33C908.823,623.234 910.755,622.649 912.73,622.649C918.216,622.649 922.73,627.163 922.73,632.649C922.73,635.647 921.381,638.492 919.06,640.39Z" style="fill:rgb(28,117,188);fill-rule:nonzero;"/>
    </g>
    <g transform="matrix(1,0,0,1,-122.5,-109.75)">
        <path d="M888.18,562.49C892.18,566.33 910.57,570.32 910.57,570.32C910.57,570.32 906.06,552.01 902.1,548.17C900.21,546.153 897.567,545.007 894.803,545.007C889.317,545.007 884.803,549.521 884.803,555.007C884.803,557.872 886.034,560.603 888.18,562.5L888.18,562.49Z" style="fill:rgb(28,117,188);fill-rule:nonzero;"/>
    </g>
    <g transform="matrix(1,0,0,1,-122.5,-109.75)">
        <path d="M877.72,608.69C882.65,611.17 901.43,609.46 901.43,609.46C901.43,609.46 891.64,593.34 886.72,590.86C885.426,590.275 884.022,589.973 882.603,589.973C877.117,589.973 872.603,594.487 872.603,599.973C872.603,603.589 874.564,606.934 877.72,608.7L877.72,608.69Z" style="fill:rgb(28,117,188);fill-rule:nonzero;"/>
    </g>
    <g transform="matrix(1,0,0,1,-122.5,-109.75)">
        <path d="M873.72,655C878.16,658.28 896.96,659.76 896.96,659.76C896.96,659.76 890,642.21 885.6,638.93C883.942,637.802 881.982,637.199 879.977,637.199C874.491,637.199 869.977,641.713 869.977,647.199C869.977,650.231 871.355,653.103 873.72,655Z" style="fill:rgb(28,117,188);fill-rule:nonzero;"/>
    </g>
    <g transform="matrix(1,0,0,1,-122.5,-109.75)">
        <path d="M387.18,157.43L380.3,157.43C380.373,157.433 380.446,157.435 380.519,157.435C383.164,157.435 385.339,155.259 385.339,152.615C385.339,149.971 383.164,147.795 380.519,147.795C380.446,147.795 380.373,147.797 380.3,147.8L324.57,147.8C322.011,147.917 319.969,150.054 319.969,152.615C319.969,155.176 322.011,157.313 324.57,157.43L331.45,157.43C331.377,157.427 331.304,157.425 331.231,157.425C328.586,157.425 326.411,159.601 326.411,162.245C326.411,164.889 328.586,167.065 331.231,167.065C331.304,167.065 331.377,167.063 331.45,167.06L321.82,167.06C321.747,167.057 321.674,167.055 321.601,167.055C318.956,167.055 316.781,169.231 316.781,171.875C316.781,174.519 318.956,176.695 321.601,176.695C321.674,176.695 321.747,176.693 321.82,176.69L377.55,176.69C377.623,176.693 377.696,176.695 377.769,176.695C380.414,176.695 382.589,174.519 382.589,171.875C382.589,169.231 380.414,167.055 377.769,167.055C377.696,167.055 377.623,167.057 377.55,167.06L387.18,167.06C387.253,167.063 387.326,167.065 387.399,167.065C390.044,167.065 392.219,164.889 392.219,162.245C392.219,159.601 390.044,157.425 387.399,157.425C387.326,157.425 387.253,157.427 387.18,157.43Z" style="fill:rgb(37,34,35);fill-opacity:0.1;fill-rule:nonzero;"/>
    </g>
    <g transform="matrix(1,0,0,1,-122.5,-109.75)">
        <path d="M633.18,278.43L626.3,278.43C626.373,278.433 626.446,278.435 626.519,278.435C629.164,278.435 631.339,276.259 631.339,273.615C631.339,270.971 629.164,268.795 626.519,268.795C626.446,268.795 626.373,268.797 626.3,268.8L570.57,268.8C568.011,268.917 565.969,271.054 565.969,273.615C565.969,276.176 568.011,278.313 570.57,278.43L577.45,278.43C577.377,278.427 577.304,278.425 577.231,278.425C574.586,278.425 572.411,280.601 572.411,283.245C572.411,285.889 574.586,288.065 577.231,288.065C577.304,288.065 577.377,288.063 577.45,288.06L567.82,288.06C567.747,288.057 567.674,288.055 567.601,288.055C564.956,288.055 562.781,290.231 562.781,292.875C562.781,295.519 564.956,297.695 567.601,297.695C567.674,297.695 567.747,297.693 567.82,297.69L623.55,297.69C623.623,297.693 623.696,297.695 623.769,297.695C626.414,297.695 628.589,295.519 628.589,292.875C628.589,290.231 626.414,288.055 623.769,288.055C623.696,288.055 623.623,288.057 623.55,288.06L633.18,288.06C633.253,288.063 633.326,288.065 633.399,288.065C636.044,288.065 638.219,285.889 638.219,283.245C638.219,280.601 636.044,278.425 633.399,278.425C633.326,278.425 633.253,278.427 633.18,278.43Z" style="fill:rgb(37,34,35);fill-opacity:0.1;fill-rule:nonzero;"/>
    </g>
    <g transform="matrix(1,0,0,1,-122.5,-109.75)">
        <path d="M1052.18,120.43L1045.3,120.43C1045.37,120.433 1045.45,120.435 1045.52,120.435C1048.16,120.435 1050.34,118.259 1050.34,115.615C1050.34,112.971 1048.16,110.795 1045.52,110.795C1045.45,110.795 1045.37,110.797 1045.3,110.8L989.57,110.8C987.011,110.917 984.969,113.054 984.969,115.615C984.969,118.176 987.011,120.313 989.57,120.43L996.45,120.43C996.377,120.427 996.304,120.425 996.231,120.425C993.586,120.425 991.411,122.601 991.411,125.245C991.411,127.889 993.586,130.065 996.231,130.065C996.304,130.065 996.377,130.063 996.45,130.06L986.82,130.06C986.747,130.057 986.674,130.055 986.601,130.055C983.956,130.055 981.781,132.231 981.781,134.875C981.781,137.519 983.956,139.695 986.601,139.695C986.674,139.695 986.747,139.693 986.82,139.69L1042.55,139.69C1045.11,139.573 1047.15,137.436 1047.15,134.875C1047.15,132.314 1045.11,130.177 1042.55,130.06L1052.18,130.06C1052.25,130.063 1052.33,130.065 1052.4,130.065C1055.04,130.065 1057.22,127.889 1057.22,125.245C1057.22,122.601 1055.04,120.425 1052.4,120.425C1052.33,120.425 1052.25,120.427 1052.18,120.43Z" style="fill:rgb(37,34,35);fill-opacity:0.1;fill-rule:nonzero;"/>
    </g>
    <g transform="matrix(1,0,0,1,-122.5,-109.75)">
        <path d="M828,638.59C828.823,638.59 829.5,637.913 829.5,637.09C829.5,636.267 828.823,635.59 828,635.59C827.177,635.59 826.5,636.267 826.5,637.09C826.5,637.913 827.177,638.59 828,638.59Z" style="fill:rgb(83,84,97);fill-rule:nonzero;"/>
    </g>
    <g id="c33ebb2e-9184-424a-aaef-6b5799d013cb" transform="matrix(1,0,0,1,-122.5,-109.75)">
        <path d="M688.76,547.88C688.76,547.88 663.76,538.66 648.76,567.88C633.76,597.1 623,619 603,631.28C603,631.28 590.32,624.75 588.78,638.2L586.64,637.4C578.808,634.489 570.303,633.888 562.14,635.67L561.14,635.9C561.14,635.9 556.45,638.73 548.21,648.37C542.78,654.73 541.21,664.06 541.92,672.49L541.92,682.4L533.08,688.17C533.08,688.17 526.93,698.17 533.08,706.23C539.23,714.29 599.19,711.61 599.19,711.61C599.19,711.61 594.19,725.83 629.55,719.68C664.91,713.53 670.67,712.38 694.55,658.57C694.55,658.57 692.63,684.71 689.17,692.39C685.71,700.07 691.48,715.83 710.69,700.08C725.59,687.86 727.32,648.83 727.35,631.92C727.363,626.105 727.915,620.303 729,614.59C734.28,586.68 718.87,558.66 692.16,549C691.047,548.607 689.913,548.233 688.76,547.88Z" style="fill:rgb(166,130,119);fill-rule:nonzero;"/>
    </g>
    <g>
        <clipPath id="_clip1">
            <path d="M688.76,547.88C688.76,547.88 663.76,538.66 648.76,567.88C633.76,597.1 623,619 603,631.28C603,631.28 590.32,624.75 588.78,638.2L586.64,637.4C578.808,634.489 570.303,633.888 562.14,635.67L561.14,635.9C561.14,635.9 556.45,638.73 548.21,648.37C542.78,654.73 541.21,664.06 541.92,672.49L541.92,682.4L533.08,688.17C533.08,688.17 526.93,698.17 533.08,706.23C539.23,714.29 599.19,711.61 599.19,711.61C599.19,711.61 594.19,725.83 629.55,719.68C664.91,713.53 670.67,712.38 694.55,658.57C694.55,658.57 692.63,684.71 689.17,692.39C685.71,700.07 691.48,715.83 710.69,700.08C725.59,687.86 727.32,648.83 727.35,631.92C727.363,626.105 727.915,620.303 729,614.59C734.28,586.68 718.87,558.66 692.16,549C691.047,548.607 689.913,548.233 688.76,547.88Z"/>
        </clipPath>
        <g clip-path="url(#_clip1)">
            <g transform="matrix(1,0,0,1,-122.5,-109.75)">
                <path d="M687.67,712.06L718.29,702.84C718.29,702.84 698.94,682.84 684.21,691.69C669.48,700.54 687.67,712.06 687.67,712.06Z" style="fill:rgb(251,220,163);fill-rule:nonzero;"/>
            </g>
            <g transform="matrix(1,0,0,1,-122.5,-109.75)">
                <path d="M630.15,723.85C630.15,723.85 623.15,696.43 595.05,713.6C566.95,730.77 630.15,723.85 630.15,723.85Z" style="fill:rgb(251,220,163);fill-rule:nonzero;"/>
            </g>
        </g>
    </g>
    <g transform="matrix(1,0,0,1,-122.5,-109.75)">
        <path d="M596.39,666.39C596.39,666.39 622.78,665.65 589.15,636.3L596.39,666.39Z" style="fill:rgb(121,85,72);fill-rule:nonzero;"/>
    </g>
    <g transform="matrix(1,0,0,1,-122.5,-109.75)">
        <path d="M561.16,636.28L539.25,628.72C539.25,628.72 559.88,638.33 558.47,641.28L561.16,636.28Z" style="fill:rgb(175,143,133);fill-rule:nonzero;"/>
    </g>
    <g transform="matrix(1,0,0,1,-122.5,-109.75)">
        <path d="M546.67,651.34C546.67,651.34 556.23,640.57 559.3,640.7C559.3,640.7 554.75,635.13 539.3,628.7C539.25,628.72 539.48,643.08 546.67,651.34Z" style="fill:rgb(132,98,87);fill-rule:nonzero;"/>
    </g>
    <g transform="matrix(1,0,0,1,-122.5,-109.75)">
        <path d="M707.33,558.46C707.33,558.46 707.72,529.56 695.04,527C682.36,524.44 681.59,520.47 668.14,534.17C654.69,547.87 650.2,548.26 650.2,548.26L639.95,545.19C639.95,545.19 664.95,597.89 687.49,548.95L707.33,558.46Z" style="fill-opacity:0.1;fill-rule:nonzero;"/>
    </g>
    <g id="_387a866a-9ed0-436c-8ebf-89a7f1da5071" serif:id="387a866a-9ed0-436c-8ebf-89a7f1da5071" transform="matrix(1,0,0,1,-122.5,-109.75)">
        <path d="M707.33,557.31C707.33,557.31 707.72,528.41 695.04,525.85C682.36,523.29 681.59,519.32 668.14,533.02C665.74,535.46 663.63,537.48 661.78,539.15C655.856,544.461 647.566,546.303 639.95,544C632.334,541.697 664.95,596.7 687.49,547.76L707.33,557.31Z" style="fill:rgb(166,130,119);fill-rule:nonzero;"/>
    </g>
    <g transform="matrix(1,0,0,1,-122.5,-109.75)">
        <path d="M533,687.85C533,687.85 544.66,686.06 549.91,694.51C555.16,702.96 534.41,707.45 534.41,707.45C534.41,707.45 523.81,700.91 533,687.85Z" style="fill:rgb(88,85,93);fill-rule:nonzero;"/>
    </g>
    <circle cx="438.72" cy="557.97" r="3.2" style="fill:rgb(88,85,93);"/>
    <g transform="matrix(1,0,0,1,-122.5,-109.75)">
        <path d="M542,682.21C542,682.21 548,682.34 547.64,685.67C547.28,689 537.13,685.54 537.13,685.54L542,682.21Z" style="fill:rgb(166,130,119);fill-rule:nonzero;"/>
    </g>
    <g transform="matrix(1,0,0,1,-122.5,-109.75)">
        <path d="M541.87,669.54L541.87,664.62C542.445,664.142 543.169,663.88 543.917,663.88C545.672,663.88 547.117,665.325 547.117,667.08C547.117,668.835 545.672,670.28 543.917,670.28C543.169,670.28 542.445,670.018 541.87,669.54Z" style="fill:rgb(88,85,93);fill-rule:nonzero;"/>
    </g>
    <g transform="matrix(1,0,0,1,-122.5,-109.75)">
        <path d="M588.51,635.61C588.51,635.61 638.79,659.61 607.66,707.54" style="fill-opacity:0.1;fill-rule:nonzero;"/>
    </g>
    <g transform="matrix(1,0,0,1,-122.5,-109.75)">
        <path d="M587.83,636C587.83,636 638.1,660 607,707.88" style="fill:rgb(166,130,119);fill-rule:nonzero;"/>
    </g>
    <g transform="matrix(1,0,0,1,-122.5,-109.75)">
        <path d="M624.66,650.33C624.66,650.33 618.38,636.24 603.39,631.63" style="fill-opacity:0.1;fill-rule:nonzero;"/>
    </g>
    <g transform="matrix(1,0,0,1,-122.5,-109.75)">
        <path d="M624.32,650.67C624.32,650.67 618,636.58 603,632" style="fill:rgb(166,130,119);fill-rule:nonzero;"/>
    </g>
    <g transform="matrix(1,0,0,1,-122.5,-109.75)">
        <path d="M590.07,679.1C590.07,679.1 583.79,665.01 568.8,660.4" style="fill:rgb(166,130,119);fill-rule:nonzero;"/>
    </g>
    <g transform="matrix(1,0,0,1,-122.5,-109.75)">
        <path d="M553.45,666C553.45,666 547.45,672.05 550.52,687.44" style="fill-opacity:0.1;fill-rule:nonzero;"/>
    </g>
    <g transform="matrix(1,0,0,1,-122.5,-109.75)">
        <path d="M553.92,666.11C553.92,666.11 547.92,672.16 550.99,687.55" style="fill:rgb(166,130,119);fill-rule:nonzero;"/>
    </g>
    <g transform="matrix(1,0,0,1,-122.5,-109.75)">
        <path d="M586.65,653.06L589.08,636.28C589.08,636.28 600.87,650.63 596.38,666.39L586.65,653.06Z" style="fill:rgb(132,98,87);fill-rule:nonzero;"/>
    </g>
    <g transform="matrix(1,0,0,1,-122.5,-109.75)">
        <path d="M596.39,666.39C596.39,666.39 622.78,665.65 589.15,636.3L596.39,666.39Z" style="fill:rgb(175,143,133);fill-rule:nonzero;"/>
    </g>
    <g transform="matrix(1,0,0,1,-122.5,-109.75)">
        <path d="M716.3,601.88C708.05,609.33 698.25,615.79 695.8,646.46" style="fill-opacity:0.1;fill-rule:nonzero;"/>
    </g>
    <g transform="matrix(1,0,0,1,-122.5,-109.75)">
        <path d="M717.33,601.88C709.08,609.33 699.28,615.79 696.83,646.46" style="fill:rgb(166,130,119);fill-rule:nonzero;"/>
    </g>
    <g transform="matrix(1,0,0,1,-122.5,-109.75)">
        <path d="M678.53,656.42C667.78,659.26 656.11,660.51 639.88,686.65" style="fill-opacity:0.1;fill-rule:nonzero;"/>
    </g>
    <g transform="matrix(1,0,0,1,-122.5,-109.75)">
        <path d="M679.44,656.89C668.69,659.73 657.02,660.98 640.79,687.12" style="fill:rgb(166,130,119);fill-rule:nonzero;"/>
    </g>
    <g transform="matrix(1,0,0,1,-122.5,-109.75)">
        <path d="M635.77,692.11C635.77,692.11 626.87,705.11 617.62,706.11" style="fill-opacity:0.1;fill-rule:nonzero;"/>
    </g>
    <g transform="matrix(1,0,0,1,-122.5,-109.75)">
        <path d="M635.42,691.09C635.42,691.09 626.52,704.09 617.27,705.09" style="fill:rgb(166,130,119);fill-rule:nonzero;"/>
    </g>
    <g transform="matrix(1,0,0,1,-122.5,-109.75)">
        <path d="M644.53,552.76L630,484.36L631.49,484.36L631.26,483.21L631.68,483.21L624.17,446.21C624.17,446.21 624.55,407.56 626.38,392.61C627.72,381.7 629.84,367.8 628.28,356.1C629.284,354.613 629.884,352.889 630.02,351.1C630.579,347.829 630.136,344.465 628.75,341.45L643.86,332L644.86,332.09L644.61,331.44C659.241,332.209 672.767,323.324 677.87,309.59C679.202,311.589 680.846,313.362 682.74,314.84C686.81,317.84 693.22,318.56 696.61,314.78C697.84,313.266 698.672,311.468 699.03,309.55C699.23,308.68 699.38,307.81 699.49,306.94C701.41,296.72 697.21,286.17 691.77,277.22C685,266 676,255.92 664.56,249.56C653.12,243.2 639.06,240.91 626.67,245.16C614.28,249.41 601.8,260.91 600.67,273.96C600.11,280.63 600.92,283.72 599.53,290.26C598.84,293.52 600.33,299.87 600.31,303.48C600.183,304.14 600.1,304.809 600.06,305.48C599.86,309.48 601.45,313.26 602.61,317.1C586.26,317.91 543.3,321.23 530.88,333.85C515.44,349.54 477.58,355.15 477.58,355.15L414.58,367.84L392.58,377.18L392.84,378.18L392.4,378.37C392.4,378.37 393.18,381.28 394.3,385.12C389.396,389.564 386.183,395.574 385.21,402.12C384,408.91 384.65,417.65 388.94,428.8C388.94,428.8 410.65,468.67 412.16,484.8L439.56,539.49C437.21,544.18 413.73,591.59 409.68,618.12C409.362,620.03 409.148,621.956 409.04,623.89C408.932,625.824 408.88,625.28 408.51,627.62C406.9,637.44 401.82,661.56 389.39,672.91L389.55,673.05L389.19,673.39L389.47,673.63C385.74,680.77 391.13,690.42 391.13,690.42L397.26,717.8L404.12,718.91L411.34,715.97L415.34,723.66C415.34,723.66 446.49,728.66 455.34,728.36C464.19,728.06 447.84,713.07 442.11,708.63C438.93,706.17 436.45,696.06 434.86,687.55C435.694,686.873 436.443,686.097 437.09,685.24C437.737,684.383 433.28,665.24 444.76,637.8C449.64,626.12 454.91,612.69 459.35,601.12C461.74,616.66 464.25,632.67 466.11,643.6C468.79,659.43 468.45,669.09 467.62,674.55C467.431,676.429 466.952,678.268 466.2,680L466.3,680.17C466.18,680.44 466.11,680.57 466.11,680.57L466.28,680.86C460.01,688.02 466.53,699.7 466.53,699.7L472.67,727L479.53,728.11L486.75,725.17L490.75,732.86C490.75,732.86 521.9,737.86 530.75,737.56C539.6,737.26 523.25,722.27 517.52,717.83C513.04,714.36 509.94,695.73 508.8,687.73L510.09,687.59L510,687.04L510.19,687.04L506.27,664.12C499.58,658.35 500.51,576.39 500.51,576.39C500.51,576.39 497.02,584.96 496.91,584.26C497.24,582.88 498.51,578.99 501.43,570.67C503.135,565.906 504.397,560.996 505.2,556C508.37,536.49 502.47,524.56 502.47,524.56C502.85,520.64 498.72,505.42 493.84,489.2L509.18,459.31C511.31,460.119 513.626,460.309 515.86,459.86L527.46,438.86C527.46,438.86 551.46,424.56 558.33,425.67C564.73,426.67 584.75,422.29 592.48,413.95C593.043,413.346 593.551,412.693 594,412C600.24,402.45 597.67,461.86 597.67,461.86L594.34,482.44L594.16,483.58L604.1,483.78L627.5,564.04C627.5,564.04 628.97,591.26 655.55,597.31C682.13,603.36 644.53,552.76 644.53,552.76ZM484.7,460C483.27,455.57 482.01,451.73 481.06,448.86L486,445C486,445 486.62,445.52 487.66,446.35L484.7,460Z" style="fill:url(#_Linear2);fill-rule:nonzero;"/>
    </g>
    <g transform="matrix(1,0,0,1,-122.5,-109.75)">
        <path d="M508.83,679.06C508.83,679.06 512.22,707.62 517.83,711.96C523.44,716.3 539.36,730.88 530.73,731.2C522.1,731.52 491.73,726.61 491.73,726.61L487.8,719.11L480.8,721.97L474.11,720.89L468.11,694.2C468.11,694.2 459.68,679.12 471.53,673.03C483.38,666.94 508.83,679.06 508.83,679.06Z" style="fill:rgb(58,56,77);fill-rule:nonzero;"/>
    </g>
    <g transform="matrix(1,0,0,1,-122.5,-109.75)">
        <path d="M480.34,444.91C480.34,444.91 503.89,515 503,524C503,524 511.62,541.4 502.11,568.45C492.6,595.5 501.11,574.58 501.11,574.58C501.11,574.58 500.21,654.48 506.73,660.1L510.55,682.44C510.55,682.44 473.83,686.8 467.65,675.51C467.65,675.51 472.43,667.14 467.75,639.51C463.07,611.88 454.05,551 454.05,551L429.61,412.13L480.34,444.91Z" style="fill-opacity:0.1;fill-rule:nonzero;"/>
    </g>
    <g transform="matrix(1,0,0,1,-122.5,-109.75)">
        <path d="M480.43,444.35C480.43,444.35 503.97,514.48 503.09,523.48C503.09,523.48 511.71,540.88 502.2,567.93C492.69,594.98 501.2,574.06 501.2,574.06C501.2,574.06 500.3,653.96 506.82,659.58L510.64,681.92C510.64,681.92 473.92,686.28 467.74,674.99C467.74,674.99 472.52,666.62 467.84,638.99C463.16,611.36 454.13,550.44 454.13,550.44L429.7,411.57L480.43,444.35Z" style="fill:rgb(190,199,222);fill-rule:nonzero;"/>
    </g>
    <g transform="matrix(1,0,0,1,-122.5,-109.75)">
        <path d="M435.76,415.21L459.76,551.35C459.76,551.35 468.76,612.27 473.47,639.9C478.18,667.53 473.37,675.9 473.37,675.9C475.17,679.18 479.54,681.14 484.85,682.27C477.41,681.39 470.7,679.36 468.36,675.09C468.36,675.09 473.14,666.72 468.46,639.09C463.78,611.46 454.75,550.54 454.75,550.54L430.26,411.66L435.76,415.21Z" style="fill-opacity:0.1;fill-rule:nonzero;"/>
    </g>
    <g transform="matrix(1,0,0,1,-122.5,-109.75)">
        <path d="M435.39,670.05C435.39,670.05 438.78,698.61 444.39,702.95C450,707.29 465.92,721.87 457.29,722.19C448.66,722.51 418.29,717.6 418.29,717.6L414.36,710.1L407.36,712.96L400.67,711.88L394.67,685.19C394.67,685.19 386.24,670.11 398.09,664.02C409.94,657.93 435.39,670.05 435.39,670.05Z" style="fill:rgb(58,56,77);fill-rule:nonzero;"/>
    </g>
    <g transform="matrix(1,0,0,1,-122.5,-109.75)">
        <path d="M480.34,444.91C480.34,444.91 503.89,515 503,524C503,524 511.62,541.4 502.11,568.45C492.6,595.5 501.11,574.58 501.11,574.58C501.11,574.58 500.21,654.48 506.73,660.1L510.55,682.44C510.55,682.44 473.83,686.8 467.65,675.51C467.65,675.51 472.43,667.14 467.75,639.51C463.07,611.88 454.05,551 454.05,551L429.61,412.13L480.34,444.91Z" style="fill-opacity:0.1;fill-rule:nonzero;"/>
    </g>
    <g transform="matrix(1,0,0,1,-122.5,-109.75)">
        <path d="M405.71,383.11C405.71,383.11 379.5,393.17 393.6,429.75C393.6,429.75 414.76,468.62 416.23,484.29L443.03,537.79C443.03,537.79 414.45,594.35 413.19,619.87C413.19,619.87 409.37,654.13 393.94,668.22C393.94,668.22 427.11,696.45 439.47,680.15C439.47,680.15 435.76,660.68 446.94,633.9C458.12,607.12 471.41,571 471.41,571C471.41,571 503.5,549.31 482.12,504.7L458.12,405.35L457.73,382.99L439.33,376.59L405.71,383.11Z" style="fill-opacity:0.1;fill-rule:nonzero;"/>
    </g>
    <g transform="matrix(1,0,0,1,-122.5,-109.75)">
        <path d="M404.51,383.48C404.51,383.48 378.3,393.54 392.4,430.12C392.4,430.12 413.56,468.99 415.03,484.66L441.83,538.16C441.83,538.16 413.25,594.72 412,620.25C412,620.25 408.18,654.51 392.75,668.6C392.75,668.6 425.92,696.83 438.28,680.53C438.28,680.53 434.57,661.06 445.75,634.28C456.93,607.5 470.21,571.34 470.21,571.34C470.21,571.34 502.3,549.65 480.92,505.04L456.92,405.69L456.53,383.33L438.13,376.93L404.51,383.48Z" style="fill-opacity:0.1;fill-rule:nonzero;"/>
    </g>
    <g transform="matrix(1,0,0,1,-122.5,-109.75)">
        <path d="M404.6,382.93C404.6,382.93 378.39,393 392.49,429.57C392.49,429.57 408.04,458.13 413.41,476.15C415.748,483.892 418.76,491.414 422.41,498.63L441.93,537.63C441.93,537.63 413.35,594.19 412.09,619.71C412.09,619.71 408.27,653.97 392.84,668.06C392.84,668.06 426.01,696.29 438.37,679.99C438.37,679.99 434.66,660.52 445.84,633.74C457.02,606.96 470.3,570.8 470.3,570.8C470.3,570.8 502.39,549.11 481.01,504.5L457.01,405.15L456.62,382.79L438.22,376.39L404.6,382.93Z" style="fill:rgb(190,199,222);fill-rule:nonzero;"/>
    </g>
    <g transform="matrix(1,0,0,1,-122.5,-109.75)">
        <path d="M404.6,382.93L438.25,376.36L442.64,377.89L411.29,384C411.29,384 385.08,394.06 399.18,430.64C399.18,430.64 414.73,459.2 420.1,477.22C422.438,484.962 425.45,492.484 429.1,499.7L448.62,538.7C448.62,538.7 420,595.25 418.77,620.77C418.77,620.77 414.95,655.03 399.52,669.12C399.52,669.12 413.81,681.28 427.12,685.03C412.44,684.72 392.83,668.03 392.83,668.03C408.26,653.94 412.08,619.68 412.08,619.68C413.35,594.16 441.92,537.6 441.92,537.6L422.4,498.6C418.75,491.384 415.738,483.862 413.4,476.12C408.03,458.12 392.48,429.54 392.48,429.54C378.39,393 404.6,382.93 404.6,382.93Z" style="fill-opacity:0.1;fill-rule:nonzero;"/>
    </g>
    <g transform="matrix(1,0,0,1,-122.5,-109.75)">
        <path d="M512.59,454.12L491.73,494.77C491.73,494.77 497.84,548.93 486.16,550.47C474.48,552.01 479.16,491.03 479.16,491.03L490.41,439.11L512.59,454.12Z" style="fill:rgb(247,196,167);fill-rule:nonzero;"/>
    </g>
    <g transform="matrix(1,0,0,1,-122.5,-109.75)">
        <path d="M626.66,480.56L641.58,551C641.58,551 678.2,600.37 652.28,594.47C626.36,588.57 624.93,562 624.93,562L599.93,476.2L626.66,480.56Z" style="fill:rgb(247,196,167);fill-rule:nonzero;"/>
    </g>
    <g transform="matrix(1,0,0,1,-122.5,-109.75)">
        <path d="M641.53,335.45L604.62,358.64L591.46,323.35C591.46,323.35 622,325.43 625.56,314C629.12,302.57 641.53,335.45 641.53,335.45Z" style="fill:rgb(247,196,167);fill-rule:nonzero;"/>
    </g>
    <path d="M500.08,240.37L497.72,230.26L461.35,232.39L446.7,291.2L473.99,292.18L489.27,268.35L497.6,245.11L500.08,240.37Z" style="fill:rgb(190,124,94);fill-rule:nonzero;"/>
    <g transform="matrix(1,0,0,1,-122.5,-109.75)">
        <path d="M610,339.51L613,322.56C613,322.56 545.69,323.4 530.64,338.69C515.59,353.98 478.64,359.45 478.64,359.45L417.18,371.82L395.7,380.93C395.7,380.93 401.75,403.63 404.36,405.2C406.97,406.77 435.98,382.87 435.98,382.87L446.98,385.79L411.2,423.44L477.31,488.44L478.52,452.62L487,446C487,446 507.13,463 516.11,460.42L527.42,439.95C527.42,439.95 550.83,426.01 557.51,427.09C563.74,428.09 583.26,423.8 590.8,415.66C591.331,415.092 591.812,414.479 592.24,413.83C598.32,404.52 595.82,462.43 595.82,462.43L592.4,483.6L628.87,484.35L621.55,448.29C621.55,448.29 621.92,410.62 623.7,396.04C625.48,381.46 628.7,361.4 622.17,348.91L609.33,361.13L587,397L595.48,365.78L610,339.51Z" style="fill-opacity:0.1;fill-rule:nonzero;"/>
    </g>
    <g transform="matrix(1,0,0,1,-122.5,-109.75)">
        <path d="M610.19,338.39L607,321C607,321 545.9,322.28 530.86,337.57C515.82,352.86 478.86,358.33 478.86,358.33L417.4,370.7L396,379.82C396,379.82 402.05,402.52 404.66,404.09C407.27,405.66 436.28,381.76 436.28,381.76L447.28,384.68L411.46,422.34L477.57,487.34L478.78,451.52L487.28,444.89C487.28,444.89 507.41,461.89 516.39,459.31L527.7,438.84C527.7,438.84 551,424.89 557.73,426C563.96,427 583.48,422.71 591.02,414.57C591.551,414.002 592.032,413.389 592.46,412.74C598.54,403.43 596.04,461.34 596.04,461.34L592.62,482.51L629.09,483.26L621.77,447.2C621.77,447.2 622.14,409.53 623.92,394.95C625.7,380.37 628.92,360.31 622.39,347.82L609.55,360L587.18,395.83L595.66,364.61L610.19,338.39Z" style="fill:rgb(127,175,242);fill-rule:nonzero;"/>
    </g>
    <g transform="matrix(1,0,0,1,-122.5,-109.75)">
        <path d="M533.14,360.53C533.14,360.53 496.73,391.24 492.92,407.77" style="fill-opacity:0.1;fill-rule:nonzero;"/>
    </g>
    <g transform="matrix(1,0,0,1,-122.5,-109.75)">
        <path d="M572.89,387C572.89,387 544.89,408.2 539.89,421.68" style="fill-opacity:0.1;fill-rule:nonzero;"/>
    </g>
    <g transform="matrix(1,0,0,1,-122.5,-109.75)">
        <path d="M491.12,418.92C491.12,418.92 488.49,431.65 487.97,438.42" style="fill-opacity:0.1;fill-rule:nonzero;"/>
    </g>
    <g transform="matrix(1,0,0,1,-122.5,-109.75)">
        <path d="M477.81,448.21C477.81,448.21 435.87,410.56 430,411.33" style="fill-opacity:0.1;fill-rule:nonzero;"/>
    </g>
    <g transform="matrix(1,0,0,1,-122.5,-109.75)">
        <path d="M626,314.65C629.41,303.71 640.93,333.37 641.91,335.92C640.823,335.853 639.73,335.733 638.63,335.56C629.8,334.14 621.93,329.151 616.88,321.77C621.36,320.36 624.94,318.13 626,314.65Z" style="fill-opacity:0.1;fill-rule:nonzero;"/>
    </g>
    <g transform="matrix(0.159537,-0.987192,0.987192,0.159537,119.55,779.75)">
        <circle cx="643.41" cy="302.6" r="32.74" style="fill:rgb(247,196,167);"/>
    </g>
    <g transform="matrix(1,0,0,1,-122.5,-109.75)">
        <path d="M670,307.32C672.57,311.55 674.91,316.14 678.87,319.11C682.83,322.08 689.09,322.74 692.39,319.05C693.589,317.573 694.4,315.82 694.75,313.95C697.17,303.64 692.94,292.95 687.45,283.86C680.83,272.95 672.04,263.08 660.89,256.86C649.74,250.64 636.03,248.43 623.96,252.57C611.89,256.71 601.96,267.77 600.96,280.49C600.41,286.99 602.05,293.63 600.7,300.01C600,303.34 598.49,306.52 598.32,309.92C598,316.23 602.32,322.1 601.93,328.41C601.7,332.3 599.7,335.83 598.48,339.53C595.48,348.48 597.11,358.21 596.48,367.61C595.85,377.01 591.75,387.54 582.74,390.33C592.74,395.33 606.41,390.07 610.46,379.69C611.7,376.52 612.15,373.01 614.01,370.17C617.17,365.37 623.74,363.47 626.39,358.37C629.04,353.27 626.75,347.05 623.85,342.1C620.95,337.15 617.33,332.18 617.27,326.44C617.313,320.724 620.909,315.603 626.27,313.62C629,312.67 631.95,312.62 634.82,312.3C641.939,311.384 648.74,308.789 654.66,304.73C662.35,299.68 664.41,298.12 670,307.32Z" style="fill-opacity:0.1;fill-rule:nonzero;"/>
    </g>
    <g transform="matrix(1,0,0,1,-122.5,-109.75)">
        <path d="M670.21,305.89C672.78,310.12 675.12,314.71 679.08,317.68C683.04,320.65 689.3,321.31 692.6,317.62C693.799,316.143 694.61,314.39 694.96,312.52C697.38,302.21 693.15,291.52 687.66,282.43C681.04,271.52 672.25,261.65 661.1,255.43C649.95,249.21 636.24,247 624.17,251.14C612.1,255.28 599.93,266.5 598.86,279.22C598.31,285.72 599.1,288.73 597.75,295.11C597.05,298.44 598.68,305.11 598.5,308.49C598.18,314.8 602.5,320.67 602.11,326.98C601.88,330.87 599.88,334.4 598.66,338.1C595.66,347.05 597.29,356.78 596.66,366.18C596.03,375.58 591.93,386.11 582.92,388.9C592.92,393.9 606.59,388.64 610.64,378.26C611.88,375.09 612.33,371.58 614.19,368.74C617.35,363.94 623.92,362.04 626.57,356.94C629.22,351.84 626.93,345.62 624.03,340.67C621.13,335.72 617.51,330.75 617.45,325.01C617.493,319.294 621.089,314.173 626.45,312.19C629.18,311.24 632.13,311.19 635,310.87C642.119,309.954 648.92,307.359 654.84,303.3C662.58,298.25 664.64,296.7 670.21,305.89Z" style="fill:rgb(98,53,40);fill-rule:nonzero;"/>
    </g>
    <g transform="matrix(-0.987192,-0.159537,0.159537,-0.987192,1037.04,631.38)">
        <path d="M618.53,324.025C618.53,322.935 617.645,322.05 616.555,322.05L602.475,322.05C601.385,322.05 600.5,322.935 600.5,324.025C600.5,325.115 601.385,326 602.475,326L616.555,326C617.645,326 618.53,325.115 618.53,324.025Z" style="fill:rgb(37,42,98);"/>
    </g>
    <defs>
        <linearGradient id="_Linear2" x1="0" y1="0" x2="1" y2="0" gradientUnits="userSpaceOnUse" gradientTransform="matrix(302.821,48.9379,-48.9379,302.821,376.036,458.527)"><stop offset="0" style="stop-color:rgb(128,128,128);stop-opacity:0.123529"/><stop offset="0.54" style="stop-color:rgb(128,128,128);stop-opacity:0.0588235"/><stop offset="1" style="stop-color:rgb(128,128,128);stop-opacity:0.0490196"/></linearGradient>
    </defs>
</svg>
