<svg xmlns="http://www.w3.org/2000/svg" viewBox="0 0 48 48" width="48" height="48"><title>browser edge</title><g class="nc-icon-wrapper"><defs><linearGradient id="linear-gradient" x1="16.181" y1="-196.275" x2="48.216" y2="-196.275" gradientTransform="translate(-4.63 229.08)" gradientUnits="userSpaceOnUse"><stop offset="0" stop-color="#0c59a4"/><stop offset="1" stop-color="#114a8b"/></linearGradient><radialGradient id="radial-gradient" cx="33.879" cy="-179.273" r="17.138" gradientTransform="translate(-4.63 203.37) scale(1 0.95)" gradientUnits="userSpaceOnUse"><stop offset="0.72" stop-opacity="0"/><stop offset="0.95" stop-opacity="0.53"/><stop offset="1"/></radialGradient><linearGradient id="linear-gradient-2" x1="33.084" y1="-210.162" x2="13.07" y2="-188.361" gradientTransform="translate(-4.63 229.08)" gradientUnits="userSpaceOnUse"><stop offset="0" stop-color="#1b9de2"/><stop offset="0.16" stop-color="#1595df"/><stop offset="0.67" stop-color="#0680d7"/><stop offset="1" stop-color="#0078d4"/></linearGradient><radialGradient id="radial-gradient-2" cx="-452.85" cy="-204.31" r="25.737" gradientTransform="matrix(0.15, -0.99, 0.8, 0.12, 245.06, -387.05)" gradientUnits="userSpaceOnUse"><stop offset="0.76" stop-opacity="0"/><stop offset="0.95" stop-opacity="0.5"/><stop offset="1"/></radialGradient><radialGradient id="radial-gradient-3" cx="201.2" cy="-769.998" r="36.372" gradientTransform="matrix(-0.04, 1, -2.13, -0.08, -1626.4, -253.29)" gradientUnits="userSpaceOnUse"><stop offset="0" stop-color="#35c1f1"/><stop offset="0.11" stop-color="#34c1ed"/><stop offset="0.23" stop-color="#2fc2df"/><stop offset="0.31" stop-color="#2bc3d2"/><stop offset="0.67" stop-color="#36c752"/></radialGradient><radialGradient id="radial-gradient-4" cx="402.083" cy="-547.849" r="17.49" gradientTransform="matrix(0.28, 0.96, -0.78, 0.23, -495.77, -245.09)" gradientUnits="userSpaceOnUse"><stop offset="0" stop-color="#66eb6e"/><stop offset="1" stop-color="#66eb6e" stop-opacity="0"/></radialGradient></defs><path d="M42.518,35.232a16.8,16.8,0,0,1-1.894.847,18.285,18.285,0,0,1-6.45,1.16c-8.5,0-15.909-5.848-15.909-13.353a5.657,5.657,0,0,1,2.952-4.907c-7.69.323-9.666,8.337-9.666,13.032,0,13.274,12.234,14.62,14.87,14.62a19.166,19.166,0,0,0,4.851-.819l.235-.079a23.067,23.067,0,0,0,11.967-9.487.719.719,0,0,0-.956-1.014Z" fill="url(#linear-gradient)"/><path d="M42.518,35.232a16.8,16.8,0,0,1-1.894.847,18.285,18.285,0,0,1-6.45,1.16c-8.5,0-15.909-5.848-15.909-13.353a5.657,5.657,0,0,1,2.952-4.907c-7.69.323-9.666,8.337-9.666,13.032,0,13.274,12.234,14.62,14.87,14.62a19.166,19.166,0,0,0,4.851-.819l.235-.079a23.067,23.067,0,0,0,11.967-9.487.719.719,0,0,0-.956-1.014Z" opacity="0.35" fill="url(#radial-gradient)" style="isolation:isolate"/><path d="M20,44.374a14.24,14.24,0,0,1-4.086-3.834,14.506,14.506,0,0,1,5.306-21.561,6.012,6.012,0,0,1,2.792-.719A5.811,5.811,0,0,1,28.625,20.6a5.724,5.724,0,0,1,1.143,3.353c0-.038,4.395-14.3-14.374-14.3C7.506,9.646,1.02,17.132,1.02,23.7A23.383,23.383,0,0,0,3.2,33.761a23,23,0,0,0,28.1,12.058,13.576,13.576,0,0,1-11.28-1.437Z" fill="url(#linear-gradient-2)"/><path d="M20,44.374a14.24,14.24,0,0,1-4.086-3.834,14.506,14.506,0,0,1,5.306-21.561,6.012,6.012,0,0,1,2.792-.719A5.811,5.811,0,0,1,28.625,20.6a5.724,5.724,0,0,1,1.143,3.353c0-.038,4.395-14.3-14.374-14.3C7.506,9.646,1.02,17.132,1.02,23.7A23.383,23.383,0,0,0,3.2,33.761a23,23,0,0,0,28.1,12.058,13.576,13.576,0,0,1-11.28-1.437Z" opacity="0.41" fill="url(#radial-gradient-2)" style="isolation:isolate"/><path d="M28.37,27.743c-.145.189-.593.45-.593,1.017a1.676,1.676,0,0,0,.848,1.3c2.584,1.8,7.455,1.559,7.468,1.559a10.7,10.7,0,0,0,5.438-1.5A11.029,11.029,0,0,0,47,20.618a15.886,15.886,0,0,0-2.038-7.89C41.154,5.28,32.936,1,24,1A23,23,0,0,0,1,23.672C1.086,17.107,7.612,11.8,15.374,11.8a17.381,17.381,0,0,1,7.547,1.81,13.048,13.048,0,0,1,5.543,5.248,11.562,11.562,0,0,1,1.308,5.3A6.491,6.491,0,0,1,28.37,27.743Z" fill="url(#radial-gradient-3)"/><path d="M28.37,27.743c-.145.189-.593.45-.593,1.017a1.676,1.676,0,0,0,.848,1.3c2.584,1.8,7.455,1.559,7.468,1.559a10.7,10.7,0,0,0,5.438-1.5A11.029,11.029,0,0,0,47,20.618a15.886,15.886,0,0,0-2.038-7.89C41.154,5.28,32.936,1,24,1A23,23,0,0,0,1,23.672C1.086,17.107,7.612,11.8,15.374,11.8a17.381,17.381,0,0,1,7.547,1.81,13.048,13.048,0,0,1,5.543,5.248,11.562,11.562,0,0,1,1.308,5.3A6.491,6.491,0,0,1,28.37,27.743Z" fill="url(#radial-gradient-4)"/></g></svg>