<?xml version="1.0" encoding="UTF-8" standalone="no"?>
<!DOCTYPE svg PUBLIC "-//W3C//DTD SVG 1.1//EN" "http://www.w3.org/Graphics/SVG/1.1/DTD/svg11.dtd">
<svg width="100%" height="100%" viewBox="0 0 1056 774" version="1.1" xmlns="http://www.w3.org/2000/svg" xmlns:xlink="http://www.w3.org/1999/xlink" xml:space="preserve" xmlns:serif="http://www.serif.com/" style="fill-rule:evenodd;clip-rule:evenodd;stroke-miterlimit:10;">
    <g transform="matrix(1,0,0,1,-72.24,-63.09)">
        <path d="M416.53,554.07C451.44,540.34 506.24,537.54 556.12,538.64C712.8,542.07 854.23,575.44 976.56,613.19C1020.85,626.86 1064.45,641.59 1093.2,660.41C1151.72,698.72 1134.36,751.79 1052.99,783.35C1025.3,794.09 991.74,802.35 957.28,809.61C896,822.59 829.92,833 760.38,836C710.8,838.11 660.6,836.39 611.31,833.44C473.58,825.17 338.4,807 225.09,775.77C175.39,762.1 128.55,745.1 108.09,722.97C87.63,700.84 100.71,672.82 151.46,659.72C172.46,654.31 197.54,651.86 222.11,649.57C258.27,646.19 295.01,642.85 327.64,635.98C361.35,628.88 401.26,615.15 394.59,599.44C387.4,582.58 381.66,567.78 416.53,554.07Z" style="fill:rgb(33,179,171);fill-opacity:0.1;fill-rule:nonzero;"/>
    </g>
    <g transform="matrix(1,0,0,1,-72.24,-63.09)">
        <path d="M575.62,93.22L571.81,314.22C571.81,314.22 709.73,314.22 827.07,352.32L829.36,129C829.36,129 641.15,84.08 575.62,93.22Z" style="fill-opacity:0.1;fill-rule:nonzero;"/>
    </g>
    <g transform="matrix(1,0,0,1,-72.24,-63.09)">
        <path d="M573.62,90.22L569.81,311.22C569.81,311.22 707.73,311.22 825.07,349.32L827.36,126C827.36,126 639.15,81.08 573.62,90.22Z" style="fill:rgb(245,245,251);fill-rule:nonzero;"/>
    </g>
    <g transform="matrix(1,0,0,1,-72.24,-63.09)">
        <path d="M516.88,93.05L520.69,314.05C520.69,314.05 382.77,314.05 265.43,352.15L263.14,128.89C263.14,128.89 451.35,83.91 516.88,93.05Z" style="fill-opacity:0.1;fill-rule:nonzero;"/>
    </g>
    <g transform="matrix(1,0,0,1,-72.24,-63.09)">
        <path d="M518.88,90.05L522.69,311.05C522.69,311.05 384.77,311.05 267.43,349.15L265.14,125.89C265.14,125.89 453.35,80.91 518.88,90.05Z" style="fill:rgb(245,245,251);fill-rule:nonzero;"/>
    </g>
    <g transform="matrix(1,0,0,1,-72.24,-63.09)">
        <path d="M862.65,160.51L862.65,379.2C862.65,379.2 907.65,373.87 1002.09,490.45L1010.48,271.76C1010.48,271.76 912.18,165.85 862.65,160.51Z" style="fill-opacity:0.1;fill-rule:nonzero;"/>
    </g>
    <g transform="matrix(1,0,0,1,-72.24,-63.09)">
        <path d="M860.65,158.51L860.65,377.2C860.65,377.2 905.65,371.87 1000.09,488.45L1008.48,269.76C1008.48,269.76 910.18,163.85 860.65,158.51Z" style="fill:rgb(245,245,251);fill-rule:nonzero;"/>
    </g>
    <g transform="matrix(1,0,0,1,-72.24,-63.09)">
        <path d="M232.3,167L232.3,385.7C232.3,385.7 187.3,380.37 92.86,496.95L84.48,278.26C84.48,278.26 182.77,172.35 232.3,167Z" style="fill-opacity:0.1;fill-rule:nonzero;"/>
    </g>
    <g transform="matrix(1,0,0,1,-72.24,-63.09)">
        <path d="M234.3,164L234.3,382.7C234.3,382.7 189.3,377.37 94.86,493.95L86.48,275.26C86.48,275.26 184.77,169.35 234.3,164Z" style="fill:rgb(245,245,251);fill-rule:nonzero;"/>
    </g>
    <g transform="matrix(1,0,0,1,-72.24,-63.09)">
        <path d="M740.3,532.77C740.3,540.22 692.99,583.27 585.3,583.27C477.61,583.27 419.3,541.72 419.3,534.27C419.3,526.82 479.61,545.27 587.3,545.27C694.99,545.27 740.3,525.31 740.3,532.77Z" style="fill:rgb(247,247,253);fill-rule:nonzero;"/>
    </g>
    <ellipse cx="316.11" cy="365.5" rx="11.46" ry="1.57" style="fill:rgb(33,179,171);fill-opacity:0.1;"/>
    <ellipse cx="272.22" cy="369.95" rx="11.46" ry="1.57" style="fill:rgb(33,179,171);fill-opacity:0.1;"/>
    <ellipse cx="220.54" cy="363.93" rx="11.46" ry="1.57" style="fill:rgb(33,179,171);fill-opacity:0.1;"/>
    <ellipse cx="289.79" cy="382.62" rx="8.14" ry="1.12" style="fill:rgb(33,179,171);fill-opacity:0.1;"/>
    <ellipse cx="244.24" cy="381.5" rx="8.14" ry="1.12" style="fill:rgb(33,179,171);fill-opacity:0.1;"/>
    <g transform="matrix(1,0,0,1,-72.24,-63.09)">
        <path d="M344.22,432.69C344.22,432.69 360.28,380.02 341.7,358.93C327.8,343.15 312,345 305,347C301.302,347.984 298.217,350.546 296.57,354C294.1,359.33 294.57,368 311.99,378.08C341.18,394.98 342.99,418.17 342.99,418.17L344.22,432.69Z" style="fill:rgb(33,179,171);fill-rule:nonzero;"/>
    </g>
    <g transform="matrix(1,0,0,1,-72.24,-63.09)">
        <path d="M307.48,354.46C307.48,354.46 354.84,369.27 344.22,432.69" style="fill:none;stroke:rgb(86,89,135);stroke-width:1px;"/>
    </g>
    <g transform="matrix(1,0,0,1,-72.24,-63.09)">
        <path d="M335.14,359.77C335.14,359.77 328.62,364.16 330.69,370.77" style="fill:none;stroke:rgb(86,89,135);stroke-width:1px;"/>
    </g>
    <g transform="matrix(1,0,0,1,-72.24,-63.09)">
        <path d="M312.23,363.68C312.23,363.68 316.23,359.62 321.06,361.86" style="fill:none;stroke:rgb(86,89,135);stroke-width:1px;"/>
    </g>
    <g transform="matrix(1,0,0,1,-72.24,-63.09)">
        <path d="M331,384.07C331,384.07 338,380.52 339.81,384.97" style="fill:none;stroke:rgb(86,89,135);stroke-width:1px;"/>
    </g>
    <g transform="matrix(1,0,0,1,-72.24,-63.09)">
        <path d="M348.27,391.48C348.27,391.48 343.01,391.06 342.92,393.57" style="fill:none;stroke:rgb(86,89,135);stroke-width:1px;"/>
    </g>
    <g transform="matrix(1,0,0,1,-72.24,-63.09)">
        <path d="M344.87,433.11C344.87,433.11 326.05,394.83 320.87,395.67C318.42,396.07 317.29,398.48 316.77,400.91C316.127,404.045 316.477,407.303 317.77,410.23C320.48,416.35 327.65,428 344.87,433.11Z" style="fill:rgb(33,179,171);fill-rule:nonzero;"/>
    </g>
    <g transform="matrix(1,0,0,1,-72.24,-63.09)">
        <path d="M321,402.93C321,402.93 340.75,431.57 344.57,432.83" style="fill:none;stroke:rgb(86,89,135);stroke-width:1px;"/>
    </g>
    <path d="M246.97,344.31L251.58,344.31" style="fill:none;stroke:rgb(86,89,135);stroke-width:1px;"/>
    <path d="M252.49,354.79L259.71,355.1" style="fill:none;stroke:rgb(86,89,135);stroke-width:1px;"/>
    <path d="M256.89,346.41L256.1,350.17" style="fill:none;stroke:rgb(86,89,135);stroke-width:1px;"/>
    <path d="M264.57,357.86L264.43,361.28" style="fill:none;stroke:rgb(86,89,135);stroke-width:1px;"/>
    <g transform="matrix(1,0,0,1,-72.24,-63.09)">
        <path d="M344.31,433.11C344.31,433.11 363.12,394.83 368.31,395.67C370.77,396.07 371.9,398.48 372.41,400.91C373.048,404.045 372.699,407.302 371.41,410.23C368.7,416.35 361.53,428 344.31,433.11Z" style="fill:rgb(33,179,171);fill-rule:nonzero;"/>
    </g>
    <g transform="matrix(1,0,0,1,-72.24,-63.09)">
        <path d="M368.15,402.93C368.15,402.93 348.4,431.57 344.59,432.83" style="fill:none;stroke:rgb(86,89,135);stroke-width:1px;"/>
    </g>
    <path d="M297.73,344.31L293.12,344.31" style="fill:none;stroke:rgb(86,89,135);stroke-width:1px;"/>
    <path d="M292.21,354.79L284.98,355.1" style="fill:none;stroke:rgb(86,89,135);stroke-width:1px;"/>
    <path d="M287.81,346.41L288.6,350.17" style="fill:none;stroke:rgb(86,89,135);stroke-width:1px;"/>
    <path d="M280.13,357.86L280.27,361.28" style="fill:none;stroke:rgb(86,89,135);stroke-width:1px;"/>
    <g transform="matrix(1,0,0,1,-72.24,-63.09)">
        <path d="M312,442.05C311.487,441.631 311.114,441.066 310.93,440.43C310.757,439.777 311.073,439.086 311.68,438.79C312.36,438.52 313.1,439 313.68,439.48C314.16,440.046 314.858,440.384 315.6,440.41C314.839,439.72 314.493,438.678 314.69,437.67C314.729,437.465 314.818,437.272 314.95,437.11C315.33,436.7 316.02,436.88 316.48,437.2C317.93,438.2 318.33,440.2 318.34,441.97C318.418,441.306 318.418,440.634 318.34,439.97C318.28,439.303 318.558,438.649 319.08,438.23C319.424,438.045 319.81,437.952 320.2,437.96C320.856,437.866 321.521,438.056 322.03,438.48C322.52,439.156 322.491,440.085 321.96,440.73C321.42,441.337 320.781,441.848 320.07,442.24C319.526,442.56 319.064,443.001 318.72,443.53C318.677,443.602 318.643,443.679 318.62,443.76L314.52,443.76C313.61,443.3 312.763,442.726 312,442.05Z" style="fill:rgb(33,179,171);fill-rule:nonzero;"/>
    </g>
    <g transform="matrix(1,0,0,1,-72.24,-63.09)">
        <path d="M383.7,426.63C383.188,426.215 382.815,425.653 382.63,425.02C382.456,424.364 382.771,423.67 383.38,423.37C384.123,423.225 384.889,423.494 385.38,424.07C385.858,424.637 386.558,424.973 387.3,424.99C386.537,424.301 386.191,423.259 386.39,422.25C386.424,422.046 386.514,421.856 386.65,421.7C387.03,421.29 387.72,421.46 388.18,421.78C389.63,422.78 390.03,424.78 390.04,426.56C390.117,425.896 390.117,425.224 390.04,424.56C389.98,423.893 390.258,423.239 390.78,422.82C391.123,422.633 391.51,422.543 391.9,422.56C392.556,422.461 393.224,422.651 393.73,423.08C394.222,423.752 394.193,424.68 393.66,425.32C393.12,425.927 392.481,426.438 391.77,426.83C391.228,427.152 390.767,427.594 390.42,428.12C390.377,428.192 390.343,428.269 390.32,428.35L386.22,428.35C385.308,427.891 384.46,427.312 383.7,426.63Z" style="fill:rgb(33,179,171);fill-rule:nonzero;"/>
    </g>
    <g transform="matrix(1,0,0,1,-72.24,-63.09)">
        <path d="M359.8,442.05C359.287,441.631 358.914,441.066 358.73,440.43C358.561,439.777 358.876,439.089 359.48,438.79C360.17,438.52 360.9,439 361.48,439.48C361.961,440.045 362.658,440.383 363.4,440.41C362.641,439.719 362.299,438.677 362.5,437.67C362.531,437.464 362.617,437.27 362.75,437.11C363.13,436.7 363.82,436.88 364.28,437.2C365.73,438.2 366.14,440.2 366.15,441.97C366.223,441.305 366.223,440.635 366.15,439.97C366.09,439.303 366.368,438.649 366.89,438.23C367.848,437.789 368.97,437.884 369.84,438.48C370.337,439.154 370.308,440.088 369.77,440.73C369.232,441.339 368.593,441.85 367.88,442.24C367.34,442.565 366.879,443.005 366.53,443.53C366.491,443.604 366.457,443.681 366.43,443.76L362.34,443.76C361.422,443.304 360.568,442.729 359.8,442.05Z" style="fill:rgb(33,179,171);fill-rule:nonzero;"/>
    </g>
    <g transform="matrix(1,0,0,1,-72.24,-63.09)">
        <path d="M292,410.89C292,410.89 290.47,412.89 292.71,415.89C294.95,418.89 296.81,421.48 296.06,423.37C296.06,423.37 292.67,417.74 289.92,417.66C287.17,417.58 289,414.27 292,410.89Z" style="fill:rgb(33,179,171);fill-rule:nonzero;"/>
    </g>
    <g transform="matrix(1,0,0,1,-72.24,-63.09)">
        <path d="M292,410.89C291.866,411.083 291.761,411.296 291.69,411.52C289,414.67 287.57,417.62 290.15,417.69C292.56,417.76 295.45,422.07 296.15,423.15C296.129,423.235 296.103,423.319 296.07,423.4C296.037,423.481 292.68,417.77 289.93,417.69C287.18,417.61 289,414.27 292,410.89Z" style="fill-opacity:0.1;fill-rule:nonzero;"/>
    </g>
    <g transform="matrix(1,0,0,1,-72.24,-63.09)">
        <path d="M289.18,413.44C289.18,414.15 289.26,414.72 289.36,414.72C289.46,414.72 289.53,414.15 289.53,413.44C289.53,412.73 289.44,413.07 289.34,413.07C289.24,413.07 289.18,412.74 289.18,413.44Z" style="fill:rgb(255,208,55);fill-rule:nonzero;"/>
    </g>
    <g transform="matrix(1,0,0,1,-72.24,-63.09)">
        <path d="M288.2,414.29C288.82,414.63 289.36,414.83 289.41,414.74C289.46,414.65 288.99,414.31 288.41,413.98C287.83,413.65 288.03,413.88 287.99,413.98C287.95,414.08 287.58,414 288.2,414.29Z" style="fill:rgb(255,208,55);fill-rule:nonzero;"/>
    </g>
    <g transform="matrix(1,0,0,1,-72.24,-63.09)">
        <path d="M300.14,410.89C300.14,410.89 301.68,412.89 299.43,415.89C297.18,418.89 295.34,421.48 296.09,423.37C296.09,423.37 299.47,417.74 302.23,417.66C304.99,417.58 303.17,414.27 300.14,410.89Z" style="fill:rgb(33,179,171);fill-rule:nonzero;"/>
    </g>
    <g transform="matrix(1,0,0,1,-72.24,-63.09)">
        <path d="M300.14,410.89C300.274,411.083 300.379,411.296 300.45,411.52C303.14,414.67 304.57,417.62 301.99,417.69C299.58,417.76 296.7,422.07 295.99,423.15C296.011,423.235 296.037,423.319 296.07,423.4C296.103,423.481 299.45,417.77 302.21,417.69C304.97,417.61 303.17,414.27 300.14,410.89Z" style="fill-opacity:0.1;fill-rule:nonzero;"/>
    </g>
    <g transform="matrix(1,0,0,1,-72.24,-63.09)">
        <path d="M303,413.44C303,414.15 302.93,414.72 302.83,414.72C302.73,414.72 302.65,414.15 302.65,413.44C302.65,412.73 302.75,413.07 302.85,413.07C302.95,413.07 303,412.74 303,413.44Z" style="fill:rgb(255,208,55);fill-rule:nonzero;"/>
    </g>
    <g transform="matrix(1,0,0,1,-72.24,-63.09)">
        <path d="M304,414.29C303.38,414.63 302.84,414.83 302.8,414.74C302.76,414.65 303.21,414.31 303.8,413.98C304.39,413.65 304.18,413.88 304.23,413.98C304.28,414.08 304.59,414 304,414.29Z" style="fill:rgb(255,208,55);fill-rule:nonzero;"/>
    </g>
    <g transform="matrix(1,0,0,1,-72.24,-63.09)">
        <path d="M302.51,423.14C302.51,423.14 298.21,423.01 296.92,422.09C295.63,421.17 290.32,420.09 290,421.54C289.68,422.99 283.55,428.89 288.39,428.93C293.23,428.97 299.65,428.17 300.94,427.39C302.23,426.61 302.51,423.14 302.51,423.14Z" style="fill:rgb(168,168,168);fill-rule:nonzero;"/>
    </g>
    <g transform="matrix(1,0,0,1,-72.24,-63.09)">
        <path d="M288.31,428.41C293.15,428.41 299.57,427.66 300.86,426.87C301.86,426.27 302.23,424.12 302.36,423.13L302.51,423.13C302.51,423.13 302.23,426.59 300.94,427.38C299.65,428.17 293.24,428.96 288.39,428.92C287,428.92 286.51,428.41 286.54,427.67C286.73,428.13 287.27,428.4 288.31,428.41Z" style="fill-opacity:0.2;fill-rule:nonzero;"/>
    </g>
    <ellipse cx="195.17" cy="496.39" rx="34.72" ry="5.13" style="fill:rgb(33,179,171);fill-opacity:0.1;"/>
    <ellipse cx="292.15" cy="538.87" rx="34.72" ry="5.13" style="fill:rgb(33,179,171);fill-opacity:0.1;"/>
    <ellipse cx="149.49" cy="587.2" rx="34.72" ry="5.13" style="fill:rgb(33,179,171);fill-opacity:0.1;"/>
    <ellipse cx="885.14" cy="693.36" rx="34.72" ry="5.13" style="fill:rgb(33,179,171);fill-opacity:0.1;"/>
    <ellipse cx="491.09" cy="575.32" rx="22.99" ry="2.57" style="fill:rgb(33,179,171);fill-opacity:0.1;"/>
    <ellipse cx="820.09" cy="443.32" rx="22.99" ry="2.57" style="fill:rgb(33,179,171);fill-opacity:0.1;"/>
    <ellipse cx="641.08" cy="638.32" rx="22.99" ry="2.57" style="fill:rgb(33,179,171);fill-opacity:0.1;"/>
    <ellipse cx="442.64" cy="621.36" rx="22.99" ry="2.57" style="fill:rgb(33,179,171);fill-opacity:0.1;"/>
    <ellipse cx="256.67" cy="614.69" rx="22.99" ry="2.57" style="fill:rgb(33,179,171);fill-opacity:0.1;"/>
    <ellipse cx="208.21" cy="660.73" rx="22.99" ry="2.57" style="fill:rgb(33,179,171);fill-opacity:0.1;"/>
    <g opacity="0.1">
        <ellipse cx="508.8" cy="239.5" rx="152.12" ry="67.89"/>
        <g transform="matrix(1,0,0,1,-72.24,-63.09)">
            <path d="M735.8,326.86C729.07,362.26 662.57,390.05 581.51,390.05C499.74,390.05 432.78,361.77 427.04,325.94L426.47,325.94L426.47,383.63C453.21,411.57 512.41,431 581.13,431C649.85,431 709.05,411.57 735.8,383.63L735.8,326.86Z" style="fill-rule:nonzero;"/>
        </g>
        <g transform="matrix(1,0,0,1,-72.24,-63.09)">
            <path d="M735.8,397.06C729.07,432.45 662.57,460.25 581.51,460.25C499.74,460.25 432.78,431.97 427.04,396.13L426.47,396.13L426.47,453.83C453.21,481.77 512.41,501.19 581.13,501.19C649.85,501.19 709.05,481.77 735.8,453.83L735.8,397.06Z" style="fill-rule:nonzero;"/>
        </g>
        <g transform="matrix(1,0,0,1,-72.24,-63.09)">
            <path d="M735.8,474.27C729.07,509.67 662.57,537.46 581.51,537.46C499.74,537.46 432.78,509.19 427.04,473.35L426.47,473.35L426.47,535.57C426.465,538.249 427.583,540.811 429.55,542.63C457.55,568.34 514.94,578.41 581.13,578.41C647.32,578.41 704.68,568.34 732.72,542.63C734.687,540.811 735.805,538.249 735.8,535.57L735.8,474.27Z" style="fill-rule:nonzero;"/>
        </g>
    </g>
    <ellipse cx="508.8" cy="235.5" rx="152.12" ry="67.89" style="fill:rgb(33,179,171);"/>
    <g transform="matrix(1,0,0,1,-72.24,-63.09)">
        <path d="M735.8,322.86C729.07,358.26 662.57,386.05 581.51,386.05C499.74,386.05 432.78,357.77 427.04,321.94L426.47,321.94L426.47,379.63C453.21,407.57 512.41,427 581.13,427C649.85,427 709.05,407.57 735.8,379.63L735.8,322.86Z" style="fill:rgb(33,179,171);fill-rule:nonzero;"/>
    </g>
    <g transform="matrix(1,0,0,1,-72.24,-63.09)">
        <path d="M735.8,393.06C729.07,428.45 662.57,456.25 581.51,456.25C499.74,456.25 432.78,427.97 427.04,392.13L426.47,392.13L426.47,449.83C453.21,477.77 512.41,497.19 581.13,497.19C649.85,497.19 709.05,477.77 735.8,449.83L735.8,393.06Z" style="fill:rgb(33,179,171);fill-rule:nonzero;"/>
    </g>
    <g transform="matrix(1,0,0,1,-72.24,-63.09)">
        <path d="M735.8,470.27C729.07,505.67 662.57,533.46 581.51,533.46C499.74,533.46 432.78,505.19 427.04,469.35L426.47,469.35L426.47,531.57C426.465,534.249 427.583,536.811 429.55,538.63C457.55,564.34 514.94,574.41 581.13,574.41C647.32,574.41 704.68,564.34 732.72,538.63C734.687,536.811 735.805,534.249 735.8,531.57L735.8,470.27Z" style="fill:rgb(33,179,171);fill-rule:nonzero;"/>
    </g>
    <ellipse cx="733.03" cy="571.25" rx="57" ry="10.26" style="fill:rgb(33,179,171);fill-opacity:0.1;"/>
    <g transform="matrix(1,0,0,1,-72.24,-63.09)">
        <path d="M773.27,503.61C776.15,505.31 780.67,506.42 786.36,502.76L786.31,510.87C786.71,516.43 793.59,536.7 793.59,536.7L798.44,553.37C801.921,565.151 803.715,577.366 803.77,589.65C803.77,593.71 804.15,597.91 805.32,601.07C807.91,608.07 804.32,617.07 802.75,620.39C800.124,621.278 797.454,622.029 794.75,622.64C794.509,622.698 794.272,622.772 794.04,622.86L794.04,622.81C794.04,622.81 786.76,625.7 783.52,625.3C781.11,625.01 779.6,628.02 781.52,630.23C779.953,630.708 778.318,630.925 776.68,630.87C773.44,630.47 771.82,636.03 777.89,637.62C783.96,639.21 818.35,637.62 818.35,637.62C820.33,636.628 821.396,634.405 820.93,632.24L825.23,632.06C825.23,632.06 831.3,629.28 825.23,621.73L824.9,621.97L823.61,618.15L823.61,613C823.61,613 831.3,576 828.87,571.67C826.44,567.34 825.15,545 825.15,545L826,520.8C828.19,516.28 829.31,509.18 829.88,503.63C830.708,500.985 831.228,498.254 831.43,495.49C831.53,494.18 831.61,492.82 831.66,491.4C831.694,488.285 831.193,485.186 830.18,482.24C832.925,478.168 835.992,474.323 839.35,470.74C842.183,468.105 843.548,464.24 843,460.41L841,446.9L836.14,423.9C836.75,417.51 835.42,413.83 833.94,411.75C834.29,409.68 834.62,407.62 834.87,405.54C835.94,396.525 835.46,387.393 833.45,378.54C832.75,375.46 831.79,372.29 829.62,369.95C827.17,367.29 823.19,365.68 822.27,362.21C822.14,361.325 821.953,360.45 821.71,359.59C820.82,357.32 818.02,356.49 815.56,356.19C811.18,355.66 804.85,355.26 800.64,356.98C796.946,358.613 793.903,361.438 792,365C791.053,366.464 790.695,368.233 791,369.95C791.15,370.546 791.382,371.118 791.69,371.65C788.792,379.506 792.81,388.358 800.63,391.35C800.73,391.66 800.82,391.96 800.89,392.25C801.075,392.963 801.209,393.688 801.29,394.42C801.21,395.82 801.12,397.23 801.06,398.64L800.91,399.21C797.429,400.751 794.034,402.48 790.74,404.39C793.16,407.97 790.33,423.07 790.33,423.07C784.26,426.64 778.2,435.78 784.67,445.32C791.14,454.86 787.5,465.18 787.5,465.18L786.5,480.72L786.3,483.83L786.37,483.83L786.3,485.01L786.47,485.01L786.47,486.28C783.63,487.33 779.47,489.43 777,493.33C775.83,495.242 774.407,496.988 772.77,498.52C772.078,499.112 771.679,499.979 771.679,500.89C771.679,502.016 772.288,503.058 773.27,503.61ZM822.12,462.33C821.876,459.641 822.374,456.936 823.56,454.51L826.42,454.51C826.504,455.142 826.621,455.77 826.77,456.39C827.59,459.94 824.31,461.61 822.12,462.33Z" style="fill:url(#_Linear1);fill-rule:nonzero;"/>
    </g>
    <g transform="matrix(1,0,0,1,-72.24,-63.09)">
        <path d="M822.92,616.33L824.48,621L819.42,626.06L802.68,630L790.61,628.83L791.39,624.55C791.858,622.675 793.339,621.213 795.22,620.77C800.22,619.61 809.64,616.95 811.63,613.26L822.92,616.33Z" style="fill:rgb(219,139,139);fill-rule:nonzero;"/>
    </g>
    <g transform="matrix(1,0,0,1,-72.24,-63.09)">
        <path d="M822.92,616.33L824.48,621L819.42,626.06L802.68,630L790.61,628.83L791.39,624.55C791.858,622.675 793.339,621.213 795.22,620.77C800.22,619.61 809.64,616.95 811.63,613.26L822.92,616.33Z" style="fill-opacity:0.1;fill-rule:nonzero;"/>
    </g>
    <g transform="matrix(1,0,0,1,-72.24,-63.09)">
        <path d="M794.5,627.62L796.84,624.51L794.5,620.9C794.5,620.9 787.5,623.73 784.38,623.34C781.26,622.95 779.71,628.4 785.55,629.96C791.39,631.52 824.48,629.96 824.48,629.96C824.48,629.96 830.32,627.23 824.48,619.83L819.42,623.73C819.42,623.73 810.85,628.4 806.57,627.62L794.5,627.62Z" style="fill:rgb(193,113,116);fill-rule:nonzero;"/>
    </g>
    <g transform="matrix(1,0,0,1,-72.24,-63.09)">
        <path d="M784,634.24L796.07,635.41L812.81,631.51L817.87,626.45L817.46,625.22L816.88,623.48L816.31,621.78L805,618.67C804.426,619.602 803.642,620.386 802.71,620.96C799.04,623.47 792.46,625.28 788.59,626.18C788.427,626.219 788.267,626.27 788.11,626.33C787.357,626.57 786.672,626.984 786.11,627.54C785.434,628.203 784.956,629.041 784.73,629.96L784,634.24Z" style="fill:rgb(219,139,139);fill-rule:nonzero;"/>
    </g>
    <g transform="matrix(1,0,0,1,-72.24,-63.09)">
        <path d="M784,634.24L796.07,635.41L812.81,631.51L817.87,626.45L817.46,625.22L812.81,628.79C812.81,628.79 804.24,633.46 799.96,632.68L787.88,632.68L790.22,629.57L788.12,626.33C787.367,626.57 786.682,626.984 786.12,627.54C785.444,628.203 784.966,629.041 784.74,629.96L784,634.24Z" style="fill-opacity:0.1;fill-rule:nonzero;"/>
    </g>
    <g transform="matrix(1,0,0,1,-72.24,-63.09)">
        <path d="M787.88,633.07L790.22,629.96L787.88,626.35C787.88,626.35 780.88,629.18 777.76,628.79C774.64,628.4 773.09,633.85 778.93,635.41C784.77,636.97 817.86,635.41 817.86,635.41C817.86,635.41 823.7,632.68 817.86,625.29L812.8,629.18C812.8,629.18 804.23,633.85 799.95,633.07L787.88,633.07Z" style="fill:rgb(193,113,116);fill-rule:nonzero;"/>
    </g>
    <g transform="matrix(1,0,0,1,-72.24,-63.09)">
        <path d="M797.61,407.27C797.61,407.27 816.3,409.27 813.61,401.43C812.842,399.222 812.642,396.855 813.03,394.55C813.511,391.696 814.64,388.99 816.33,386.64L798.81,389.36C799.863,391.116 800.664,393.011 801.19,394.99C803.24,403.25 797.61,407.27 797.61,407.27Z" style="fill:rgb(219,139,139);fill-rule:nonzero;"/>
    </g>
    <g transform="matrix(1,0,0,1,-72.24,-63.09)">
        <path d="M829.54,496C829.54,496 829.15,512.74 825.26,520.92L824.48,544.67C824.48,544.67 825.64,566.47 827.98,570.75C830.32,575.03 822.92,611.24 822.92,611.24L822.92,617.47C822.92,617.47 810.46,622.14 806.92,616.69L810.42,570.36L808.86,506.13L829.54,496Z" style="fill:rgb(71,68,99);fill-rule:nonzero;"/>
    </g>
    <g transform="matrix(1,0,0,1,-72.24,-63.09)">
        <path d="M829.54,496C829.54,496 829.15,512.74 825.26,520.92L824.48,544.67C824.48,544.67 825.64,566.47 827.98,570.75C830.32,575.03 822.92,611.24 822.92,611.24L822.92,617.47C822.92,617.47 810.46,622.14 806.92,616.69L810.42,570.36L808.86,506.13L829.54,496Z" style="fill-opacity:0.1;fill-rule:nonzero;"/>
    </g>
    <g transform="matrix(1,0,0,1,-72.24,-63.09)">
        <path d="M837.32,442.31L839.66,448.54L841.66,461.77C842.188,465.512 840.88,469.287 838.15,471.9C833.48,476.57 827.25,486.3 827.25,486.3L819.86,464.11C819.86,464.11 827.25,462.94 826.08,457.88C824.91,452.82 825.31,443.48 825.31,443.48L837.32,442.31Z" style="fill:rgb(255,116,142);fill-rule:nonzero;"/>
    </g>
    <g transform="matrix(1,0,0,1,-72.24,-63.09)">
        <path d="M837.41,442.22L839.74,448.45L841.74,461.69C842.276,465.427 840.97,469.202 838.24,471.81C833.56,476.48 827.34,486.22 827.34,486.22L819.89,464C819.89,464 827.29,462.83 826.12,457.77C824.95,452.71 825.34,443.36 825.34,443.36L837.41,442.22Z" style="fill-opacity:0.05;fill-rule:nonzero;"/>
    </g>
    <g transform="matrix(1,0,0,1,-72.24,-63.09)">
        <path d="M802.72,621C807.72,628.86 815.49,624.4 816.87,623.52L816.3,621.82L805,618.67C804.434,619.615 803.653,620.414 802.72,621Z" style="fill-opacity:0.1;fill-rule:nonzero;"/>
    </g>
    <g transform="matrix(1,0,0,1,-72.24,-63.09)">
        <path d="M787.1,511.22C787.49,516.67 794.1,536.52 794.1,536.52L798.77,552.86C802.111,564.413 803.837,576.374 803.9,588.4C803.783,592.186 804.286,595.966 805.39,599.59C808.51,608.16 802.28,619.83 802.28,619.83C807.73,629.57 817.07,622.95 817.07,622.95L817.07,616.72C817.07,616.72 824.47,582.85 822.52,576.23C820.57,569.61 819.8,551.71 819.8,551.71L819.8,519.39C826.032,513.178 829.825,504.925 830.48,496.15C830.57,494.87 830.65,493.53 830.7,492.15C831.01,483.37 825,473.07 822.7,469.4C822.14,468.51 821.78,468.01 821.78,468.01L787.41,481.65L787.33,481.65L787.33,485.94L787.1,511.22Z" style="fill:rgb(71,68,99);fill-rule:nonzero;"/>
    </g>
    <g transform="matrix(1,0,0,1,-72.24,-63.09)">
        <path d="M798.78,389.36C799.833,391.116 800.634,393.011 801.16,394.99C805.003,396.448 809.276,396.289 813,394.55C813.481,391.696 814.61,388.99 816.3,386.64L798.78,389.36Z" style="fill-opacity:0.1;fill-rule:nonzero;"/>
    </g>
    <circle cx="734.33" cy="316.93" r="15.18" style="fill:rgb(219,139,139);"/>
    <g transform="matrix(1,0,0,1,-72.24,-63.09)">
        <path d="M787.1,485.91L787.27,485.91C803.59,489.27 824.09,472.26 824.09,472.26C823.54,471.333 823.066,470.363 822.67,469.36C822.11,468.47 821.75,467.97 821.75,467.97L787.38,481.61L787.29,482.97L787.1,485.91Z" style="fill-opacity:0.1;fill-rule:nonzero;"/>
    </g>
    <g transform="matrix(1,0,0,1,-72.24,-63.09)">
        <path d="M791.39,406.88C791.39,406.88 813.19,393.64 820.19,399.09L829.93,411.55C829.93,411.55 836.16,413.5 835,426L839.67,448.58L825.67,452.08C825.67,452.08 817.5,459.87 824.12,471.16C824.12,471.16 803.48,488.29 787.12,484.78L788.29,466.49C788.29,466.49 791.79,456.36 785.57,447.02C779.35,437.68 785.18,428.72 791.02,425.22C791,425.18 793.72,410.38 791.39,406.88Z" style="fill:rgb(255,116,142);fill-rule:nonzero;"/>
    </g>
    <g transform="matrix(1,0,0,1,-72.24,-63.09)">
        <path d="M790.22,486.3C790.22,486.3 782.04,487.86 778.15,494.09C777.025,495.962 775.653,497.674 774.07,499.18C773.429,499.763 773.063,500.591 773.063,501.458C773.063,502.539 773.632,503.544 774.56,504.1C777.65,505.96 782.68,507.1 789.05,501.87C800,492.92 790.22,486.3 790.22,486.3Z" style="fill:rgb(219,139,139);fill-rule:nonzero;"/>
    </g>
    <g transform="matrix(1,0,0,1,-72.24,-63.09)">
        <path d="M802.29,414.28C802.29,414.28 810.07,413.5 812.02,433.74C813.97,453.98 817.08,458.66 817.08,458.66C817.08,458.66 819.03,469.17 814.35,475.4C809.67,481.63 800.73,494.87 800.73,494.87C800.73,494.87 791,497.59 789.05,487.87L801.12,465.29C801.12,465.29 803.06,457.5 798.39,452.05C793.72,446.6 790.22,410.38 802.29,414.28Z" style="fill-opacity:0.1;fill-rule:nonzero;"/>
    </g>
    <g transform="matrix(1,0,0,1,-72.24,-63.09)">
        <path d="M801.51,413.11C801.51,413.11 809.29,412.33 811.24,432.58C813.19,452.83 816.3,457.49 816.3,457.49C816.3,457.49 818.3,468 813.58,474.23C808.86,480.46 800,493.7 800,493.7C800,493.7 790.27,496.42 788.32,486.7L800.39,464.12C800.39,464.12 802.34,456.33 797.66,450.88C792.98,445.43 789.44,409.22 801.51,413.11Z" style="fill:rgb(255,116,142);fill-rule:nonzero;"/>
    </g>
    <g transform="matrix(1,0,0,1,-72.24,-63.09)">
        <path d="M795.08,427.71C795.08,427.71 794.31,439.78 797.81,446.4C801.31,453.02 801.31,461.58 797.81,466.25" style="fill-opacity:0.1;fill-rule:nonzero;"/>
    </g>
    <g transform="matrix(1,0,0,1,-72.24,-63.09)">
        <path d="M793.14,412.91C793.14,412.91 796.25,409.8 805.21,409.41C814.17,409.02 818.05,406.3 818.05,406.3" style="fill-opacity:0.1;fill-rule:nonzero;"/>
    </g>
    <g transform="matrix(1,0,0,1,-72.24,-63.09)">
        <path d="M814.79,360.4C817.16,360.69 819.86,361.5 820.71,363.72C820.944,364.565 821.128,365.423 821.26,366.29C822.14,369.69 825.97,371.29 828.33,373.87C830.41,376.17 831.33,379.27 832.01,382.3C833.949,390.977 834.412,399.919 833.38,408.75C832.62,415.2 831.06,421.56 830.63,428.04C830.2,434.52 830.99,441.35 834.53,446.8C836.06,449.14 838.07,451.2 839.15,453.8C836.92,455.61 833.84,455.87 830.96,455.97C827.627,456.083 824.277,456.083 820.91,455.97C819.148,456.04 817.395,455.673 815.81,454.9C814.688,454.186 813.766,453.198 813.13,452.03C811.21,448.78 810.73,444.87 810.81,441.1C810.89,437.33 811.49,433.58 811.56,429.8C811.759,427.738 811.3,425.665 810.25,423.88C809.284,422.757 808.19,421.75 806.99,420.88C802.82,417.18 801.39,411.26 801.25,405.69C801.11,400.12 802.03,394.55 801.56,389C801.38,386.83 800.56,384.22 798.43,383.8C797.757,383.773 797.088,383.686 796.43,383.54C794.72,382.88 794.89,380.47 794.43,378.7C793.88,376.7 792.18,375.17 791.7,373.17C790.58,368.46 796.58,362.83 800.51,361.17C804.44,359.51 810.58,359.88 814.79,360.4Z" style="fill-opacity:0.1;fill-rule:nonzero;"/>
    </g>
    <g transform="matrix(1,0,0,1,-72.24,-63.09)">
        <path d="M815.18,359.62C817.55,359.91 820.25,360.72 821.1,362.95C821.335,363.791 821.519,364.646 821.65,365.51C822.53,368.91 826.36,370.51 828.72,373.09C830.8,375.39 831.72,378.49 832.4,381.52C834.339,390.207 834.798,399.16 833.76,408C833.01,414.45 831.45,420.81 831.02,427.3C830.59,433.79 831.38,440.6 834.92,446.05C836.45,448.4 838.46,450.45 839.54,453.05C837.31,454.87 834.23,455.12 831.35,455.22C828.017,455.327 824.667,455.327 821.3,455.22C819.539,455.294 817.786,454.93 816.2,454.16C815.078,453.442 814.156,452.451 813.52,451.28C811.6,448.03 811.12,444.12 811.2,440.35C811.28,436.58 811.88,432.83 811.95,429.06C811.95,427 811.83,424.82 810.64,423.14C809.676,422.015 808.582,421.008 807.38,420.14C803.21,416.44 801.78,410.52 801.64,404.95C801.5,399.38 802.42,393.81 801.95,388.26C801.77,386.09 800.95,383.48 798.82,383.06C798.147,383.033 797.478,382.946 796.82,382.8C795.11,382.14 795.28,379.73 794.82,377.96C794.27,375.96 792.57,374.44 792.09,372.43C790.97,367.72 796.97,362.09 800.9,360.43C804.83,358.77 811,359.1 815.18,359.62Z" style="fill:rgb(70,67,83);fill-rule:nonzero;"/>
    </g>
    <g transform="matrix(1,0,0,1,-72.24,-63.09)">
        <path d="M200.28,635.86C200.28,635.86 211,635.53 214.22,633.23C217.44,630.93 230.7,628.18 231.5,631.87C232.3,635.56 247.6,650.21 235.5,650.31C223.4,650.41 207.4,648.42 204.17,646.46C200.94,644.5 200.28,635.86 200.28,635.86Z" style="fill:rgb(168,168,168);fill-rule:nonzero;"/>
    </g>
    <g transform="matrix(1,0,0,1,-72.24,-63.09)">
        <path d="M235.72,649C223.63,649.1 207.62,647.12 204.4,645.16C201.95,643.66 200.97,638.3 200.64,635.82L200.28,635.82C200.28,635.82 200.96,644.46 204.18,646.42C207.4,648.38 223.41,650.36 235.51,650.27C239,650.27 240.2,649 240.14,647.16C239.65,648.31 238.32,649 235.72,649Z" style="fill-opacity:0.2;fill-rule:nonzero;"/>
    </g>
    <g transform="matrix(1,0,0,1,-72.24,-63.09)">
        <path d="M881.17,495.21C881.17,495.21 888.52,494.98 890.74,493.4C892.96,491.82 902.05,489.94 902.6,492.47C903.15,495 913.66,505.06 905.35,505.13C897.04,505.2 886.06,503.83 883.85,502.49C881.64,501.15 881.17,495.21 881.17,495.21Z" style="fill:rgb(168,168,168);fill-rule:nonzero;"/>
    </g>
    <g transform="matrix(1,0,0,1,-72.24,-63.09)">
        <path d="M905.5,504.25C897.2,504.31 886.21,502.95 884,501.61C882.31,500.61 881.64,496.9 881.42,495.2L881.17,495.2C881.17,495.2 881.64,501.13 883.85,502.48C886.06,503.83 897.05,505.18 905.35,505.12C907.75,505.12 908.58,504.25 908.53,502.98C908.2,503.76 907.29,504.23 905.5,504.25Z" style="fill-opacity:0.2;fill-rule:nonzero;"/>
    </g>
    <g transform="matrix(1,0,0,1,-19.29,-9.63)">
        <circle cx="31.29" cy="21.63" r="21.63" style="fill:rgb(33,179,171);fill-opacity:0.1;"/>
    </g>
    <circle cx="961.29" cy="83.63" r="21.63" style="fill:rgb(33,179,171);fill-opacity:0.1;"/>
    <circle cx="16" cy="106.18" r="16" style="fill:rgb(33,179,171);fill-opacity:0.1;"/>
    <circle cx="178" cy="16.18" r="16" style="fill:rgb(33,179,171);fill-opacity:0.1;"/>
    <circle cx="834" cy="18.18" r="16" style="fill:rgb(33,179,171);fill-opacity:0.1;"/>
    <g transform="matrix(1,0,0,1,-72.24,-63.09)">
        <path d="M961.86,709.49C961.86,709.49 965.86,714.73 960.01,722.64C954.16,730.55 949.33,737.22 951.28,742.15C951.28,742.15 960.11,727.47 967.28,727.26C974.45,727.05 969.76,718.33 961.86,709.49Z" style="fill:rgb(252,102,129);fill-rule:nonzero;"/>
    </g>
    <g transform="matrix(1,0,0,1,-72.24,-63.09)">
        <path d="M961.86,709.49C962.208,709.998 962.481,710.554 962.67,711.14C969.67,719.38 973.43,727.07 966.67,727.26C960.39,727.44 952.86,738.67 951.05,741.51C951.11,741.728 951.183,741.941 951.27,742.15C951.357,742.359 960.1,727.47 967.27,727.26C974.44,727.05 969.76,718.33 961.86,709.49Z" style="fill-opacity:0.1;fill-rule:nonzero;"/>
    </g>
    <g transform="matrix(1,0,0,1,-72.24,-63.09)">
        <path d="M969.3,716.17C969.3,718.01 969.09,719.51 968.84,719.51C968.59,719.51 968.38,718.01 968.38,716.17C968.38,714.33 968.64,715.17 968.89,715.17C969.14,715.17 969.3,714.32 969.3,716.17Z" style="fill:rgb(255,208,55);fill-rule:nonzero;"/>
    </g>
    <g transform="matrix(1,0,0,1,-72.24,-63.09)">
        <path d="M971.86,718.37C970.24,719.25 968.86,719.78 968.7,719.56C968.54,719.34 969.8,718.44 971.41,717.56C973.02,716.68 972.41,717.32 972.52,717.56C972.63,717.8 973.48,717.49 971.86,718.37Z" style="fill:rgb(255,208,55);fill-rule:nonzero;"/>
    </g>
    <g transform="matrix(1,0,0,1,-72.24,-63.09)">
        <path d="M940.7,709.49C940.7,709.49 936.7,714.73 942.55,722.64C948.4,730.55 953.23,737.22 951.28,742.15C951.28,742.15 942.44,727.47 935.28,727.26C928.12,727.05 932.79,718.33 940.7,709.49Z" style="fill:rgb(252,102,129);fill-rule:nonzero;"/>
    </g>
    <g transform="matrix(1,0,0,1,-72.24,-63.09)">
        <path d="M940.7,709.49C940.351,709.999 940.075,710.554 939.88,711.14C932.88,719.38 929.13,727.07 935.88,727.26C942.16,727.44 949.7,738.67 951.5,741.51C951.44,741.72 951.37,741.94 951.29,742.15C951.29,742.15 942.45,727.47 935.29,727.26C928.13,727.05 932.79,718.33 940.7,709.49Z" style="fill-opacity:0.1;fill-rule:nonzero;"/>
    </g>
    <g transform="matrix(1,0,0,1,-72.24,-63.09)">
        <path d="M933.25,716.17C933.25,718.01 933.46,719.51 933.72,719.51C933.98,719.51 934.18,718.01 934.18,716.17C934.18,714.33 933.92,715.17 933.66,715.17C933.4,715.17 933.25,714.32 933.25,716.17Z" style="fill:rgb(255,208,55);fill-rule:nonzero;"/>
    </g>
    <g transform="matrix(1,0,0,1,-72.24,-63.09)">
        <path d="M930.7,718.37C932.32,719.25 933.7,719.78 933.85,719.56C934,719.34 932.76,718.44 931.14,717.56C929.52,716.68 930.14,717.32 930.04,717.56C929.94,717.8 929.08,717.49 930.7,718.37Z" style="fill:rgb(255,208,55);fill-rule:nonzero;"/>
    </g>
    <g transform="matrix(1,0,0,1,-72.24,-63.09)">
        <path d="M934.53,741.47C934.53,741.47 945.73,741.12 949.1,738.72C952.47,736.32 966.33,733.45 967.17,737.3C968.01,741.15 983.99,756.47 971.35,756.57C958.71,756.67 941.97,754.57 938.61,752.57C935.25,750.57 934.53,741.47 934.53,741.47Z" style="fill:rgb(168,168,168);fill-rule:nonzero;"/>
    </g>
    <g transform="matrix(1,0,0,1,-72.24,-63.09)">
        <path d="M971.58,755.23C958.93,755.33 942.2,753.23 938.83,751.23C936.27,749.67 935.24,744.06 934.9,741.47L934.53,741.47C934.53,741.47 935.24,750.47 938.61,752.55C941.98,754.63 958.71,756.67 971.35,756.55C975,756.55 976.26,755.22 976.19,753.3C975.69,754.48 974.29,755.21 971.58,755.23Z" style="fill-opacity:0.2;fill-rule:nonzero;"/>
    </g>
    <g transform="matrix(2.1,0,0,2.1,836.6,228.5)">
        <circle cx="12" cy="12" r="10" style="fill:none;stroke:rgb(208,0,35);stroke-width:2px;stroke-linecap:round;stroke-linejoin:round;stroke-miterlimit:4;"/>
        <path d="M15,9L9,15" style="fill:none;stroke:rgb(208,0,35);stroke-width:2px;stroke-linecap:round;stroke-linejoin:round;stroke-miterlimit:4;"/>
        <path d="M9,9L15,15" style="fill:none;stroke:rgb(208,0,35);stroke-width:2px;stroke-linecap:round;stroke-linejoin:round;stroke-miterlimit:4;"/>
    </g>
    <g transform="matrix(2.1,0,0,2.1,597.3,124.8)">
        <circle cx="12" cy="12" r="10" style="fill:none;stroke:rgb(208,0,35);stroke-width:2px;stroke-linecap:round;stroke-linejoin:round;stroke-miterlimit:4;"/>
        <path d="M15,9L9,15" style="fill:none;stroke:rgb(208,0,35);stroke-width:2px;stroke-linecap:round;stroke-linejoin:round;stroke-miterlimit:4;"/>
        <path d="M9,9L15,15" style="fill:none;stroke:rgb(208,0,35);stroke-width:2px;stroke-linecap:round;stroke-linejoin:round;stroke-miterlimit:4;"/>
    </g>
    <g transform="matrix(2.1,0,0,2.1,291.2,121.8)">
        <circle cx="12" cy="12" r="10" style="fill:none;stroke:rgb(208,0,35);stroke-width:2px;stroke-linecap:round;stroke-linejoin:round;stroke-miterlimit:4;"/>
        <path d="M15,9L9,15" style="fill:none;stroke:rgb(208,0,35);stroke-width:2px;stroke-linecap:round;stroke-linejoin:round;stroke-miterlimit:4;"/>
        <path d="M9,9L15,15" style="fill:none;stroke:rgb(208,0,35);stroke-width:2px;stroke-linecap:round;stroke-linejoin:round;stroke-miterlimit:4;"/>
    </g>
    <g transform="matrix(2.1,0,0,2.1,63.5,227.5)">
        <circle cx="12" cy="12" r="10" style="fill:none;stroke:rgb(208,0,35);stroke-width:2px;stroke-linecap:round;stroke-linejoin:round;stroke-miterlimit:4;"/>
        <path d="M15,9L9,15" style="fill:none;stroke:rgb(208,0,35);stroke-width:2px;stroke-linecap:round;stroke-linejoin:round;stroke-miterlimit:4;"/>
        <path d="M9,9L15,15" style="fill:none;stroke:rgb(208,0,35);stroke-width:2px;stroke-linecap:round;stroke-linejoin:round;stroke-miterlimit:4;"/>
    </g>
    <defs>
        <linearGradient id="_Linear1" x1="0" y1="0" x2="1" y2="0" gradientUnits="userSpaceOnUse" gradientTransform="matrix(1.73067e-14,-282.64,282.64,1.73067e-14,807.4,638.33)"><stop offset="0" style="stop-color:rgb(128,128,128);stop-opacity:0.247059"/><stop offset="0.54" style="stop-color:rgb(128,128,128);stop-opacity:0.117647"/><stop offset="1" style="stop-color:rgb(128,128,128);stop-opacity:0.0980392"/></linearGradient>
    </defs>
</svg>
