<?xml version="1.0" encoding="UTF-8" standalone="no"?>
<!DOCTYPE svg PUBLIC "-//W3C//DTD SVG 1.1//EN" "http://www.w3.org/Graphics/SVG/1.1/DTD/svg11.dtd">
<svg width="100%" height="100%" viewBox="0 0 1058 836" version="1.1" xmlns="http://www.w3.org/2000/svg" xmlns:xlink="http://www.w3.org/1999/xlink" xml:space="preserve" xmlns:serif="http://www.serif.com/" style="fill-rule:evenodd;clip-rule:evenodd;stroke-miterlimit:10;">
    <g transform="matrix(1,0,0,1,-71.39,-32.23)">
        <path d="M1055.08,595.45C1013.76,626.15 1010.2,686.45 1017.3,737.45C1019.68,754.52 1022.67,772.71 1015.46,788.36C1006.64,807.5 984.76,817.3 963.85,819.97C925.74,824.83 885.66,810.32 859.5,782.18C836.89,757.86 824.89,725.05 801.6,701.38C762.6,661.77 700.93,655.96 645.6,660.93C606.45,664.44 562.9,671.01 531.29,647.64C509.05,631.19 498.29,602.94 495.69,575.4C494.45,562.1 494.69,548.15 488.69,536.24C485.1,529.16 479.5,523.3 473.56,518.03C419.32,469.92 335.63,465.03 284.12,414.03C249.33,379.58 234.93,328.51 235.72,279.56C236.51,230.61 250.91,182.96 266.72,136.56C277.93,103.62 291.42,68.86 319.86,48.82C349.87,27.63 391.51,28 425.23,42.76C458.95,57.52 485.77,84.7 507.86,114.14C535.47,150.94 558.71,193.74 598.71,216.47C626,232 657.87,236.21 688.46,243C739.59,254.33 788.66,273.35 837.29,292.8C883.85,311.41 930.6,330.68 972.14,358.8C1001.54,378.67 1022.06,405.8 1048.85,428.16C1066.31,442.73 1087.37,451.16 1103.09,467.94C1122.45,488.61 1137,519.37 1123.09,546.94C1109.89,573.13 1077,579.15 1055.08,595.45Z" style="fill:rgb(33,179,171);fill-opacity:0.1;fill-rule:nonzero;"/>
    </g>
    <g transform="matrix(1,0,0,1,-71.39,-32.23)">
        <path d="M78.51,596.91C78.51,596.91 28.94,674.35 191.44,675.68C191.44,675.68 193.83,608.3 140.71,580.54C119.434,569.372 92.872,575.952 79.27,595.76L78.51,596.91Z" style="fill:rgb(33,179,171);fill-rule:nonzero;"/>
    </g>
    <g transform="matrix(1,0,0,1,-71.39,-32.23)">
        <path d="M78.88,595.61C78.88,595.61 162.11,612.01 191.44,675.68" style="fill:none;stroke:rgb(83,84,97);stroke-width:1px;"/>
    </g>
    <g transform="matrix(1,0,0,1,-71.39,-32.23)">
        <path d="M198.7,665.26C198.7,665.26 145.26,596.2 150.14,528.12C152.14,499.55 145.43,471.01 129.93,446.91C122.555,435.499 114.149,424.788 104.82,414.91" style="fill:none;stroke:rgb(83,84,97);stroke-width:2px;"/>
    </g>
    <g transform="matrix(1,0,0,1,-71.39,-32.23)">
        <path d="M107.62,372C111.35,381.56 104.86,416.05 104.86,416.05C104.86,416.05 76.73,395.06 73,385.5C72.006,383.184 71.493,380.689 71.493,378.169C71.493,367.97 79.885,359.579 90.083,359.579C97.953,359.579 105.009,364.576 107.62,372Z" style="fill:rgb(33,179,171);fill-rule:nonzero;"/>
    </g>
    <g transform="matrix(1,0,0,1,-71.39,-32.23)">
        <path d="M156.92,413.78C154.86,423.84 130.66,449.26 130.66,449.26C130.66,449.26 118.44,416.36 120.5,406.26C122.082,397.435 129.833,390.95 138.798,390.95C148.997,390.95 157.388,399.342 157.388,409.54C157.388,410.95 157.228,412.356 156.91,413.73L156.92,413.78Z" style="fill:rgb(33,179,171);fill-rule:nonzero;"/>
    </g>
    <g transform="matrix(1,0,0,1,-71.39,-32.23)">
        <path d="M191,504.78C184.14,512.42 150.43,522.15 150.43,522.15C150.43,522.15 156.49,487.58 163.34,479.94C166.858,476.128 171.815,473.956 177.003,473.956C187.201,473.956 195.593,482.348 195.593,492.546C195.593,497.044 193.96,501.393 191,504.78Z" style="fill:rgb(33,179,171);fill-rule:nonzero;"/>
    </g>
    <g transform="matrix(1,0,0,1,-71.39,-32.23)">
        <path d="M201.28,579.45C195.81,588.14 164.22,603.45 164.22,603.45C164.22,603.45 164.35,568.36 169.82,559.67C173.178,554.084 179.236,550.658 185.753,550.658C195.951,550.658 204.343,559.049 204.343,569.248C204.343,572.881 203.278,576.435 201.28,579.47L201.28,579.45Z" style="fill:rgb(33,179,171);fill-rule:nonzero;"/>
    </g>
    <g transform="matrix(1,0,0,1,-71.39,-32.23)">
        <path d="M95,465.3C104.46,469.3 139.11,463.72 139.11,463.72C139.11,463.72 118.93,435 109.47,431C107.18,430.034 104.72,429.536 102.235,429.536C92.024,429.536 83.621,437.939 83.621,448.15C83.621,455.62 88.118,462.397 95,465.3Z" style="fill:rgb(33,179,171);fill-rule:nonzero;"/>
    </g>
    <g transform="matrix(1,0,0,1,-71.39,-32.23)">
        <path d="M108.16,552.47C118.38,553.47 149.77,537.76 149.77,537.76C149.77,537.76 121.9,516.44 111.68,515.46C110.934,515.369 110.183,515.324 109.432,515.324C99.234,515.324 90.842,523.715 90.842,533.914C90.842,543.633 98.464,551.795 108.16,552.46L108.16,552.47Z" style="fill:rgb(33,179,171);fill-rule:nonzero;"/>
    </g>
    <g transform="matrix(1,0,0,1,-71.39,-32.23)">
        <path d="M132.55,635.43C142.46,638.12 176.05,627.96 176.05,627.96C176.05,627.96 152.18,602.23 142.27,599.55C140.58,599.058 138.829,598.808 137.069,598.808C126.871,598.808 118.479,607.199 118.479,617.398C118.479,625.896 124.306,633.364 132.55,635.43Z" style="fill:rgb(33,179,171);fill-rule:nonzero;"/>
    </g>
    <g transform="matrix(1,0,0,1,-71.39,-32.23)">
        <path d="M107.62,372C111.35,381.56 104.86,416.05 104.86,416.05C104.86,416.05 76.73,395.06 73,385.5C72.006,383.184 71.493,380.689 71.493,378.169C71.493,367.97 79.885,359.579 90.083,359.579C97.953,359.579 105.009,364.576 107.62,372Z" style="fill-opacity:0.25;fill-rule:nonzero;"/>
    </g>
    <g transform="matrix(1,0,0,1,-71.39,-32.23)">
        <path d="M156.92,413.78C154.86,423.84 130.66,449.26 130.66,449.26C130.66,449.26 118.44,416.36 120.5,406.26C122.082,397.435 129.833,390.95 138.798,390.95C148.997,390.95 157.388,399.342 157.388,409.54C157.388,410.95 157.228,412.356 156.91,413.73L156.92,413.78Z" style="fill-opacity:0.25;fill-rule:nonzero;"/>
    </g>
    <g transform="matrix(1,0,0,1,-71.39,-32.23)">
        <path d="M191,504.78C184.14,512.42 150.43,522.15 150.43,522.15C150.43,522.15 156.49,487.58 163.34,479.94C166.858,476.128 171.815,473.956 177.003,473.956C187.201,473.956 195.593,482.348 195.593,492.546C195.593,497.044 193.96,501.393 191,504.78Z" style="fill-opacity:0.25;fill-rule:nonzero;"/>
    </g>
    <g transform="matrix(1,0,0,1,-71.39,-32.23)">
        <path d="M201.28,579.45C195.81,588.14 164.22,603.45 164.22,603.45C164.22,603.45 164.35,568.36 169.82,559.67C173.178,554.084 179.236,550.658 185.753,550.658C195.951,550.658 204.343,559.049 204.343,569.248C204.343,572.881 203.278,576.435 201.28,579.47L201.28,579.45Z" style="fill-opacity:0.25;fill-rule:nonzero;"/>
    </g>
    <g transform="matrix(1,0,0,1,-71.39,-32.23)">
        <path d="M95,465.3C104.46,469.3 139.11,463.72 139.11,463.72C139.11,463.72 118.93,435 109.47,431C107.18,430.034 104.72,429.536 102.235,429.536C92.024,429.536 83.621,437.939 83.621,448.15C83.621,455.62 88.118,462.397 95,465.3Z" style="fill-opacity:0.25;fill-rule:nonzero;"/>
    </g>
    <g transform="matrix(1,0,0,1,-71.39,-32.23)">
        <path d="M108.16,552.47C118.38,553.47 149.77,537.76 149.77,537.76C149.77,537.76 121.9,516.44 111.68,515.46C110.934,515.369 110.183,515.324 109.432,515.324C99.234,515.324 90.842,523.715 90.842,533.914C90.842,543.633 98.464,551.795 108.16,552.46L108.16,552.47Z" style="fill-opacity:0.25;fill-rule:nonzero;"/>
    </g>
    <g transform="matrix(1,0,0,1,-71.39,-32.23)">
        <path d="M132.55,635.43C142.46,638.12 176.05,627.96 176.05,627.96C176.05,627.96 152.18,602.23 142.27,599.55C140.58,599.058 138.829,598.808 137.069,598.808C126.871,598.808 118.479,607.199 118.479,617.398C118.479,625.896 124.306,633.364 132.55,635.43Z" style="fill-opacity:0.25;fill-rule:nonzero;"/>
    </g>
    <g transform="matrix(1,0,0,1,-71.39,-32.23)">
        <path d="M534.89,532.67C515.89,532.25 495.48,533.2 480.38,540.67C452.38,554.49 456.15,582.52 437.89,601.97C422.47,618.39 393,626.92 364.42,632.36C317.86,641.23 269.03,644.55 222.79,654.08C195.53,659.7 168.47,667.87 149.79,681.85C131.11,695.83 122.73,716.68 135.36,733.22C147.04,748.51 172.77,756.69 196.2,764.61C219.63,772.53 244.45,782.92 250.97,799.43C254.6,808.62 251.9,818.53 256.14,827.6C264.5,845.5 295.81,853.95 323.94,858.52C346.41,862.17 369.25,864.86 392.27,866.52C410.66,867.87 429.47,868.58 447.52,865.95C463.15,863.67 477.62,858.95 492.61,855.32C587.85,832.13 697.39,852.19 794.53,832.55C812.21,829 829.6,824 843,815.82C853,809.74 860.4,802.14 866.63,794.26C882.49,774.26 891.18,751.83 891.85,729.34C892.25,715.86 889.85,702.24 893.54,688.96C897.41,675.14 907.74,662.43 913.24,648.84C923.24,624.14 916.24,596.84 894.47,575.47C886.7,567.594 877.172,561.672 866.67,558.19C857.87,555.37 848.03,554.29 838.34,553.19C811.34,550.26 783.99,547.32 756.75,548.97C737.37,550.15 718.4,553.64 698.96,554.27C671.68,555.16 650.31,548.87 625.58,542.96C597.13,536.22 565.12,533.33 534.89,532.67Z" style="fill:rgb(33,179,171);fill-opacity:0.1;fill-rule:nonzero;"/>
    </g>
    <path d="M120.14,296.01L120.14,563.48L476.02,494.35L469.22,289.21L120.14,296.01Z" style="fill:rgb(219,172,162);fill-rule:nonzero;"/>
    <path d="M789.11,611.37L789.11,699.77L412.83,809.71L408.99,807.72L111.36,653.3L111.36,287.79L479.7,275.89L481.97,478.76L467.23,483.3L461.56,293.55L137.42,304.79L135.16,579.63L417.36,703.17L417.58,703.12L789.11,611.37Z" style="fill:rgb(232,194,184);fill-rule:nonzero;"/>
    <path d="M789.11,611.37L789.11,699.77L412.83,809.71L408.99,807.72L417.58,703.12L789.11,611.37Z" style="fill-opacity:0.1;fill-rule:nonzero;"/>
    <g transform="matrix(1,0,0,1,-71.39,-32.23)">
        <path d="M406.87,515.24C406.87,515.24 224.69,533.42 207,559.75C189.31,586.08 206.85,618.38 206.85,618.38L488.49,740.78L870.43,642.18C870.43,642.18 860.23,573.04 828.5,565.11C796.77,557.18 544,502.78 544,502.78C544,502.78 442,496.54 406.87,515.24Z" style="fill:rgb(235,236,240);fill-rule:nonzero;"/>
    </g>
    <g transform="matrix(1,0,0,1,-71.39,-32.23)">
        <path d="M206.83,560L494.14,659.17C494.14,659.17 800.59,566.25 844,575C844,575 629.63,498.27 544,501.61C475.76,504.27 404.31,515.47 404.31,515.47C404.31,515.47 214.77,534.51 206.83,560Z" style="fill:rgb(248,249,250);fill-rule:nonzero;"/>
    </g>
    <g transform="matrix(1,0,0,1,-71.39,-32.23)">
        <path d="M648.88,623.8L648.95,623.7L648.95,623.64L649,623.54L649,623.47L649,623.37L649,623.3L649,623.19L649,623.12L649,622.99L649,622.93L649,622.54L649,622.47C649,622.4 649,622.37 649,622.32L649,622.23L649,622.08L649,621.98L649,621.83L649,621.73L649,621.57L649,621.47L649,621.3L649,621.21L648.92,620.96L648.82,620.68L648.82,620.59L648.74,620.39L648.74,620.28L648.66,620.09L648.61,619.97L648.53,619.78L648.47,619.65L648.38,619.46L648.32,619.34L648.21,619.13L648.15,619.02L648,618.73L647.82,618.39L647.76,618.28L647.63,618.04L647.56,617.91L647.43,617.69L647.35,617.55L647.22,617.33L647,617L646.86,616.78L646.77,616.64L646.62,616.4L646.54,616.27L646.34,615.95L646.34,615.89L646.09,615.51L646.01,615.4L645.83,615.13L645.73,614.99L645.56,614.75L645.46,614.6L645.29,614.36L645.18,614.2L645,614L644.89,613.85L644.7,613.59L644.6,613.46L644.35,613.12L644.35,613.07L644.06,612.67L643.96,612.53L643.77,612.27L643.64,612.1L643.46,611.86L643.33,611.69L643.15,611.45L643.02,611.29L642.83,611.04L642.7,610.88L642.5,610.62L642.38,610.47L642.14,610.17L642.06,610.07C641.16,608.93 640.23,607.79 639.3,606.69C634.005,600.396 626.416,596.461 618.22,595.76C617.39,595.69 616.52,595.6 615.64,595.49L615.27,595.49L614.62,595.4L614.31,595.4L613.31,595.26L612.36,595.11L612.03,595.05L611.36,594.93L610.96,594.85L610.35,594.73L609.92,594.64L609.34,594.51L608.9,594.41L608.32,594.27L607.87,594.16L607.3,594.01L606.85,593.89L606.28,593.73C603.28,589.27 598.72,585.3 594.28,584.53C593.057,584.34 591.807,584.405 590.61,584.72L590.4,584.49L590.1,584.15L589.7,583.64L589.44,583.3L589.02,582.71L588.81,582.42C588.603,582.12 588.407,581.813 588.22,581.5C587.63,581.237 587.013,581.04 586.38,580.91C595.229,579.57 603.954,577.513 612.47,574.76C612.883,574.604 613.276,574.399 613.64,574.15L613.82,574.09C621.23,571.39 630.33,545.09 623.93,541.41C617.53,537.73 607.76,507.41 602.03,491.88C596.3,476.35 579.79,474.7 579.79,474.7C579.79,474.7 555.87,456.17 545.09,458.19C534.31,460.21 532.62,444.04 531.61,443.37C531.492,443.273 531.394,443.154 531.32,443.02C528.72,438.95 508.05,433.52 496.9,430.84C486,422.94 473,416.81 462.49,414.28C455.378,412.356 447.76,413.875 441.93,418.38C419.85,419.5 416.33,436.18 416.33,436.18C416.254,438.456 416.649,440.724 417.49,442.84C416.297,442.856 415.104,442.793 413.92,442.65C416.48,438.42 416.56,432.98 418.47,428.33C422.24,419.13 432.64,414.38 442.47,413.14C448.2,412.42 454.47,412.42 458.99,408.83C461.316,406.971 462.905,404.343 463.47,401.42C463.653,400.789 463.596,400.112 463.31,399.52C463.03,399.136 462.654,398.833 462.22,398.64C456.3,395.48 449.17,396.3 442.45,396.15C431.53,395.91 420.89,392.92 410.33,390.15C405.86,388.98 401.03,387.85 396.71,389.51C392.63,391.07 389.85,394.79 386.58,397.68C373.18,409.5 350.93,407.79 339.01,421.11C336.25,424.2 334.18,428.39 335.19,432.41C335.6,434.05 336.51,435.56 336.8,437.23C337.38,440.53 335.5,443.69 333.91,446.64C332.32,449.59 330.91,453.17 332.41,456.17C334.68,460.75 341.61,460.41 345.21,464.04C346.88,465.73 347.69,468.15 349.43,469.76C352.22,472.33 356.51,472.13 360.29,471.76C361.78,471.62 364.01,471.21 364.83,469.9C369.638,474.422 375.995,476.942 382.596,476.942C392.285,476.942 401.198,471.511 405.64,462.9C413.784,462.35 421.883,464.54 428.64,469.12C429.658,472.121 431.528,474.762 434.02,476.72C436.38,478.57 439.19,480.84 442.02,483.27C434.85,485.16 428.48,486.37 428.48,486.37C428.48,486.37 400.18,495.47 400.18,501.53C400.28,502.628 400.622,503.69 401.18,504.64C400.464,506.147 400.059,507.783 399.99,509.45C392.18,508.13 385.93,506.14 382.7,503.21C382.7,503.21 381.78,502.96 380.36,502.68C378.46,500.25 372.88,493.5 369.56,493.77C367.35,493.95 366.56,499.09 366.28,503.69C365.989,503.941 365.734,504.231 365.52,504.55C362.15,509.6 368.22,519.71 372.26,521.4C376.3,523.09 398.54,522.4 413.7,533.53C420.42,538.46 431.97,539.41 442.7,538.95C431.91,546.57 416.8,558.28 414.7,565.54C413.57,569.39 412.24,574.17 412.32,579.08C405.72,587.81 395.73,606.24 420.43,615.08C440.79,622.35 495.99,621.42 535.32,619.64C553.62,622.87 568.73,626.12 575.07,629.23C575.07,629.23 590.23,631.23 596.3,634.96C602.37,638.69 613.48,637.66 613.48,637.66C613.48,637.66 635.04,641.37 639.76,646.08C644.48,650.79 652.56,637.99 642.46,631.93C638.52,629.57 632.65,625.68 626.96,621.42C634.27,622.28 640.72,623.22 644.82,624.18L645.23,624.27L648.34,624.27L648.45,624.22L648.52,624.22L648.62,624.15L648.67,624.15L648.8,624.04L648.88,623.8ZM555.81,591.5C555.81,591.5 552.97,590.85 548.73,589.85L540.31,586.45C540.31,586.45 554.68,581.93 567.99,576.18C571.8,577.85 575.15,579.18 575.99,580.39C576.352,580.791 576.845,581.05 577.38,581.12C572.38,582.36 565.96,585.55 558.43,592.91C557.517,592.519 556.64,592.047 555.81,591.5ZM454.07,510.3L462.38,506.44C464.19,507.98 466.13,509.44 468.03,510.86C463.47,511.13 457.34,511.43 450.41,511.62C452.53,510.91 454.07,510.3 454.07,510.3Z" style="fill:url(#_Linear1);fill-rule:nonzero;"/>
    </g>
    <g transform="matrix(1,0,0,1,-71.39,-32.23)">
        <path d="M383.26,503.86C383.26,503.86 376,494 372.05,494.3C368.1,494.6 368.75,511.12 368.75,511.12L383.26,503.86Z" style="fill:rgb(255,213,216);fill-rule:nonzero;"/>
    </g>
    <g transform="matrix(1,0,0,1,-71.39,-32.23)">
        <path d="M476.6,510.46C476.6,510.46 399.42,516.73 384.91,503.53C384.91,503.53 371.39,499.9 368.09,504.85C364.79,509.8 370.73,519.69 374.69,521.34C378.65,522.99 400.42,522.34 415.26,533.21C430.1,544.08 469.02,535.21 469.02,535.21L485.18,528.94L476.6,510.46Z" style="fill:rgb(255,124,94);fill-rule:nonzero;"/>
    </g>
    <g transform="matrix(1,0,0,1,-71.39,-32.23)">
        <path d="M476.6,510.46C476.6,510.46 399.42,516.73 384.91,503.53C384.91,503.53 371.39,499.9 368.09,504.85C364.79,509.8 370.73,519.69 374.69,521.34C378.65,522.99 400.42,522.34 415.26,533.21C430.1,544.08 469.02,535.21 469.02,535.21L485.18,528.94L476.6,510.46Z" style="fill-opacity:0.05;fill-rule:nonzero;"/>
    </g>
    <g transform="matrix(1,0,0,1,-71.39,-32.23)">
        <path d="M587.09,547.4C587.09,547.4 570.6,535.53 536.63,550.4C502.66,565.27 417.9,573.16 417.9,573.16C417.9,573.16 389.54,601.52 421.9,613.07C454.26,624.62 576.25,615.07 576.25,615.07C576.25,615.07 626.05,618.37 641.55,622C650.93,624.2 643.55,613.58 636.2,604.86C631.019,598.692 623.586,594.839 615.56,594.16C605.82,593.33 592.31,590.27 586.13,580.11C586.13,580.11 574.26,574.17 556.45,591.98L539.27,585C539.27,585 586.43,570.16 588.08,560.26C589.73,550.36 587.09,547.4 587.09,547.4Z" style="fill:rgb(255,213,216);fill-rule:nonzero;"/>
    </g>
    <g transform="matrix(1,0,0,1,-71.39,-32.23)">
        <path d="M587.09,547.4C587.09,547.4 570.6,535.53 536.63,550.4C502.66,565.27 417.9,573.16 417.9,573.16C417.9,573.16 389.54,601.52 421.9,613.07C454.26,624.62 576.25,615.07 576.25,615.07C576.25,615.07 626.05,618.37 641.55,622C649.77,623.92 645.1,616 638.91,608.18C632.678,600.249 623.529,595.127 613.51,593.96C604.01,592.88 591.89,589.57 586.14,580.11C586.14,580.11 574.27,574.17 556.46,591.98L539.27,585C539.27,585 586.43,570.16 588.08,560.26C589.73,550.36 587.09,547.4 587.09,547.4Z" style="fill-opacity:0.05;fill-rule:nonzero;"/>
    </g>
    <g transform="matrix(1,0,0,1,-71.39,-32.23)">
        <path d="M587.42,500.57C587.42,500.57 566.64,467.57 517.5,496.28L454.5,531.28C454.5,531.28 419.5,553.38 416.24,564.59C412.98,575.8 407.99,594.93 442.3,602.19C476.61,609.45 556.42,618.68 573.24,626.93C573.24,626.93 588.08,628.93 594.02,632.54C599.96,636.15 610.84,635.18 610.84,635.18C610.84,635.18 631.95,638.81 636.57,643.43C641.19,648.05 649.1,635.51 639.21,629.58C629.32,623.65 606.89,607.81 607.21,601.58C607.53,595.35 599.62,584.34 592,583C584.38,581.66 574.52,592.89 574.52,592.89C574.52,592.89 561.99,594.89 554.4,589.89C554.4,589.89 515.48,580.98 511.52,578.35C507.56,575.72 480.52,565.49 480.52,565.49C480.52,565.49 544.52,564.83 563.3,547.68C563.3,547.68 570.56,542.4 576.49,544.05C576.54,544.1 605.89,532.89 587.42,500.57Z" style="fill:rgb(255,213,216);fill-rule:nonzero;"/>
    </g>
    <g transform="matrix(1,0,0,1,-71.39,-32.23)">
        <path d="M400.41,438.56C400.41,438.56 419.21,451.75 433.72,438.56C448.23,425.37 440,479.13 440,479.13C440,479.13 419.88,452.41 389.87,469.9L400.41,438.56Z" style="fill:rgb(255,213,216);fill-rule:nonzero;"/>
    </g>
    <g transform="matrix(1,0,0,1,-71.39,-32.23)">
        <path d="M400.41,438.56C400.41,438.56 419.21,451.75 433.72,438.56C448.23,425.37 440,479.13 440,479.13C440,479.13 419.88,452.41 389.87,469.9L400.41,438.56Z" style="fill-opacity:0.05;fill-rule:nonzero;"/>
    </g>
    <g transform="matrix(1,0,0,1,-71.39,-32.23)">
        <path d="M319.94,551.69C319.94,551.69 339.73,534.87 350.94,534.54C354.28,534.44 358.14,531.04 361.94,526.32C371.708,514.186 387.428,508.405 402.73,511.32C409.11,512.5 416.96,512.47 426.49,510.11C461.12,501.53 443.97,480.11 443.97,480.11L433.09,470.88C433.09,470.88 418.25,460.66 412.64,461.32C407.03,461.98 392.52,476.82 390.87,475.17C389.22,473.52 369.1,458.68 365.8,454.72C362.5,450.76 336.1,437.9 342.7,434.27C349.3,430.64 382.6,417.12 376,414.48C369.4,411.84 333.78,407.88 319.93,424.37C306.08,440.86 313,542.12 319.94,551.69Z" style="fill:rgb(248,249,250);fill-rule:nonzero;"/>
    </g>
    <g transform="matrix(1,0,0,1,-71.39,-32.23)">
        <path d="M319.94,551.69C319.94,551.69 339.73,534.87 350.94,534.54C354.28,534.44 358.14,531.04 361.94,526.32C371.708,514.186 387.428,508.405 402.73,511.32C409.11,512.5 416.96,512.47 426.49,510.11C461.12,501.53 443.97,480.11 443.97,480.11L433.09,470.88C433.09,470.88 418.25,460.66 412.64,461.32C407.03,461.98 392.52,476.82 390.87,475.17C389.22,473.52 369.1,458.68 365.8,454.72C362.5,450.76 336.1,437.9 342.7,434.27C349.3,430.64 382.6,417.12 376,414.48C369.4,411.84 333.78,407.88 319.93,424.37C306.08,440.86 313,542.12 319.94,551.69Z" style="fill-opacity:0.05;fill-rule:nonzero;"/>
    </g>
    <g transform="matrix(1,0,0,1,-71.39,-32.23)">
        <path d="M321.26,549.38C321.26,549.38 341.05,532.56 352.26,532.23C355.6,532.13 359.46,528.73 363.26,524.01C373.016,511.89 388.712,506.107 404,509C410.38,510.18 418.23,510.15 427.76,507.79C462.39,499.21 445.24,477.79 445.24,477.79L434.36,468.56C434.36,468.56 419.52,458.34 413.91,459C408.3,459.66 393.79,474.5 392.14,472.85C390.49,471.2 370.37,456.36 367.07,452.4C363.77,448.44 337.42,435.59 344,432C350.58,428.41 383.91,414.85 377.31,412.21C370.71,409.57 335.09,405.61 321.24,422.1C307.39,438.59 314.33,539.81 321.26,549.38Z" style="fill:rgb(248,249,250);fill-rule:nonzero;"/>
    </g>
    <g transform="matrix(1,0,0,1,-71.39,-32.23)">
        <path d="M417.89,437.9C417.89,437.9 423.17,412.83 461.76,422.73C500.35,432.63 519.48,454.06 519.48,454.06L484.48,470.22L441.6,455.71C441.6,455.71 417.57,456 417.89,437.9Z" style="fill:rgb(255,213,216);fill-rule:nonzero;"/>
    </g>
    <g transform="matrix(1,0,0,1,-71.39,-32.23)">
        <path d="M488.48,431.63C488.48,431.63 525.59,439.63 529.09,445.14C529.164,445.271 529.263,445.386 529.38,445.48C530.38,446.14 532.02,461.97 542.57,459.99C553.12,458.01 576.57,476.15 576.57,476.15C576.57,476.15 592.73,477.8 598.34,492.97C603.95,508.14 613.51,537.83 619.78,541.45C626.05,545.07 617.14,570.8 609.89,573.45C602.64,576.1 576.58,582.36 574.27,579.06C571.96,575.76 551.84,572.13 553.16,561.58C554.48,551.03 562.39,541.13 556.16,534.86C549.93,528.59 545.94,512.1 536.7,508.8C527.46,505.5 510.97,504.51 501.08,511.11C491.19,517.71 479.24,518 479.24,518C479.24,518 458.79,506.13 455.49,497.88C453.27,492.32 442.21,483.02 435.23,477.55C431.529,474.645 429.292,470.251 429.12,465.55C428.83,457.41 428.57,445.41 429.43,443.47C430.75,440.47 448.89,422.69 448.89,422.69L488.48,431.63Z" style="fill-opacity:0.05;fill-rule:nonzero;"/>
    </g>
    <g transform="matrix(1,0,0,1,-71.39,-32.23)">
        <path d="M489.8,431C489.8,431 526.91,439 530.41,444.51C530.484,444.641 530.583,444.756 530.7,444.85C531.7,445.51 533.34,461.34 543.89,459.36C554.44,457.38 577.89,475.52 577.89,475.52C577.89,475.52 594.05,477.17 599.66,492.34C605.27,507.51 614.83,537.2 621.1,540.82C627.37,544.44 618.46,570.17 611.21,572.82C603.96,575.47 577.9,581.73 575.59,578.43C573.28,575.13 553.16,571.5 554.48,560.95C555.8,550.4 563.71,540.5 557.48,534.23C551.25,527.96 547.26,511.47 538.02,508.17C528.78,504.87 512.29,503.88 502.4,510.48C492.51,517.08 479.48,518.23 479.48,518.23C479.48,518.23 460.19,505.53 456.89,497.29C454.67,491.73 443.61,482.43 436.63,476.96C432.929,474.055 430.692,469.661 430.52,464.96C430.23,456.82 429.97,444.82 430.83,442.88C432.15,439.88 450.29,422.1 450.29,422.1L489.8,431Z" style="fill:rgb(255,124,94);fill-rule:nonzero;"/>
    </g>
    <g transform="matrix(1,0,0,1,-71.39,-32.23)">
        <path d="M404.37,502.54C404.04,502.87 398.43,511.12 405.03,515.73C408.729,518.442 413.487,519.281 417.89,518L404.37,502.54Z" style="fill:rgb(255,213,216);fill-rule:nonzero;"/>
    </g>
    <g transform="matrix(1,0,0,1,-71.39,-32.23)">
        <path d="M436,430.64C436,430.64 444.91,412.83 464,417.45C483.09,422.07 510.83,438.89 517.43,455.71C524.03,472.53 492.43,493 492.43,493L454.83,510.48C454.83,510.48 443.29,515.1 439.99,513.48C436.69,511.86 420.86,526 420.86,526C420.86,526 403.05,508.85 403.05,502.91C403.05,496.97 430.76,488 430.76,488C430.76,488 463.76,481.73 463.41,475.47C463.41,475.47 469.02,468.87 466.05,466.89C463.08,464.91 431.25,455.51 431.25,455.51C431.25,455.51 430.1,434.6 436,430.64Z" style="fill-opacity:0.1;fill-rule:nonzero;"/>
    </g>
    <g transform="matrix(1,0,0,1,-71.39,-32.23)">
        <path d="M435,429.65C435,429.65 443.91,411.84 463,416.46C482.09,421.08 509.83,437.9 516.43,454.72C523.03,471.54 491.44,492 491.44,492L453.84,509.48C453.84,509.48 442.3,514.1 439,512.48C435.7,510.86 419.87,525 419.87,525C419.87,525 402.06,507.85 402.06,501.91C402.06,495.97 429.77,487 429.77,487C429.77,487 462.77,480.73 462.42,474.47C462.42,474.47 468.03,467.87 465.06,465.89C462.09,463.91 430.26,454.51 430.26,454.51C430.26,454.51 429.11,433.61 435,429.65Z" style="fill:rgb(255,124,94);fill-rule:nonzero;"/>
    </g>
    <g transform="matrix(1,0,0,1,-71.39,-32.23)">
        <path d="M392.83,466.59C398.179,463.332 404.203,461.337 410.44,460.76C412.25,457.27 407.5,453.47 407.5,449.27C407.5,445.75 406.16,444.41 404.86,441.35C400.14,439.64 403.38,435.25 403.38,435.25L392.83,466.59Z" style="fill-opacity:0.1;fill-rule:nonzero;"/>
    </g>
    <circle cx="313.52" cy="420.18" r="25.4" style="fill:rgb(255,213,216);"/>
    <g transform="matrix(1,0,0,1,-71.39,-32.23)">
        <path d="M365.87,462.83C371.54,458.45 378.92,456.98 386.06,456.34C390.52,455.94 395.06,455.8 399.34,454.44C401.802,453.581 404.189,452.525 406.48,451.28C409.54,449.72 412.7,448.08 414.79,445.35C418.05,441.09 417.95,435.19 419.99,430.22C423.68,421.22 433.86,416.56 443.52,415.35C449.13,414.64 455.26,414.64 459.7,411.13C461.977,409.312 463.534,406.741 464.09,403.88C464.268,403.262 464.211,402.599 463.93,402.02C463.655,401.645 463.286,401.348 462.86,401.16C457.06,398.07 450.08,398.87 443.51,398.72C432.82,398.49 422.4,395.55 412.06,392.84C407.68,391.69 402.95,390.59 398.73,392.21C394.73,393.74 392.02,397.38 388.81,400.21C375.69,411.79 353.91,410.11 342.24,423.15C339.54,426.15 337.51,430.28 338.5,434.21C338.91,435.82 339.79,437.29 340.08,438.93C340.65,442.16 338.81,445.26 337.25,448.14C335.69,451.02 334.33,454.54 335.78,457.47C338.01,461.95 344.78,461.62 348.31,465.17C349.95,466.82 350.73,469.17 352.44,470.77C355.18,473.29 359.37,473.09 363.07,472.77C365.07,472.58 368.34,471.92 367.77,469.24C367.29,466.84 364.12,465.81 365.87,462.83Z" style="fill:rgb(133,89,107);fill-rule:nonzero;"/>
    </g>
    <g transform="matrix(1,0,0,1,-71.39,-32.23)">
        <path d="M357,478C357,478 374.32,465 385.2,469.26C396.08,473.52 399.05,475.86 405.98,473.26C412.91,470.66 415.87,478.54 415.87,478.54L372.71,491L357,478Z" style="fill:rgb(248,249,250);fill-rule:nonzero;"/>
    </g>
    <g transform="matrix(1,0,0,1,-71.39,-32.23)">
        <path d="M333.63,500.73C333.63,500.73 341.55,480.28 351.11,476.32" style="fill-opacity:0.05;fill-rule:nonzero;"/>
    </g>
    <g transform="matrix(1,0,0,1,-71.39,-32.23)">
        <path d="M323.4,494.13C323.4,494.13 331.32,473.68 340.88,469.72" style="fill-opacity:0.05;fill-rule:nonzero;"/>
    </g>
    <g transform="matrix(1,0,0,1,-71.39,-32.23)">
        <path d="M508.76,499.08C508.76,499.08 536.76,485.56 555.59,486.88C574.42,488.2 577.69,476.33 577.69,476.33" style="fill-opacity:0.05;fill-rule:nonzero;"/>
    </g>
    <g transform="matrix(1,0,0,1,-71.39,-32.23)">
        <path d="M387.63,836.64C385.3,834.47 383.11,831.91 382.43,828.8C381.75,825.69 383.08,821.95 386.06,820.8C389.39,819.52 392.96,821.8 395.66,824.17C398.36,826.54 401.46,829.17 404.99,828.67C401.296,825.32 399.626,820.261 400.6,815.37C400.755,814.376 401.177,813.443 401.82,812.67C403.67,810.67 407.03,811.54 409.24,813.1C416.24,818.1 418.24,827.63 418.29,836.25C419,833.14 418.4,829.9 418.42,826.71C418.44,823.52 419.31,819.99 422,818.27C423.675,817.37 425.559,816.928 427.46,816.99C430.63,816.87 434.16,817.19 436.32,819.51C439.01,822.39 438.32,827.22 435.97,830.39C433.62,833.56 430.07,835.55 426.8,837.74C424.175,839.305 421.936,841.441 420.25,843.99C420.05,844.346 419.886,844.721 419.76,845.11L399.91,845.11C395.453,842.854 391.322,840.004 387.63,836.64Z" style="fill:rgb(33,179,171);fill-rule:nonzero;"/>
    </g>
    <g transform="matrix(1,0,0,1,-71.39,-32.23)">
        <path d="M846.16,747.49C844.614,746.229 843.487,744.526 842.93,742.61C842.51,740.67 843.34,738.35 845.19,737.61C847.26,736.82 849.48,738.25 851.19,739.71C852.9,741.17 854.79,742.82 856.99,742.51C854.692,740.427 853.653,737.281 854.26,734.24C854.356,733.621 854.619,733.041 855.02,732.56C856.17,731.33 858.26,731.86 859.64,732.83C864.02,735.91 865.24,741.83 865.27,747.22C865.71,745.29 865.34,743.27 865.35,741.29C865.36,739.31 865.9,737.11 867.58,736.05C868.623,735.488 869.796,735.212 870.98,735.25C872.98,735.18 875.14,735.38 876.49,736.82C878.16,738.61 877.73,741.61 876.27,743.58C874.81,745.55 872.6,746.79 870.57,748.15C868.938,749.124 867.547,750.454 866.5,752.04C866.378,752.26 866.277,752.491 866.2,752.73L853.79,752.73C851.022,751.335 848.456,749.572 846.16,747.49Z" style="fill:rgb(33,179,171);fill-rule:nonzero;"/>
    </g>
    <defs>
        <linearGradient id="_Linear1" x1="0" y1="0" x2="1" y2="0" gradientUnits="userSpaceOnUse" gradientTransform="matrix(1.58243e-14,-258.43,258.43,1.58243e-14,490.54,647.1)"><stop offset="0" style="stop-color:rgb(128,128,128);stop-opacity:0.247059"/><stop offset="0.54" style="stop-color:rgb(128,128,128);stop-opacity:0.117647"/><stop offset="1" style="stop-color:rgb(128,128,128);stop-opacity:0.0980392"/></linearGradient>
    </defs>
</svg>
