<?xml version="1.0" encoding="UTF-8" standalone="no"?>
<!DOCTYPE svg PUBLIC "-//W3C//DTD SVG 1.1//EN" "http://www.w3.org/Graphics/SVG/1.1/DTD/svg11.dtd">
<svg width="100%" height="100%" viewBox="0 0 1060 790" version="1.1" xmlns="http://www.w3.org/2000/svg" xmlns:xlink="http://www.w3.org/1999/xlink" xml:space="preserve" xmlns:serif="http://www.serif.com/" style="fill-rule:evenodd;clip-rule:evenodd;stroke-linejoin:round;stroke-miterlimit:1.41421;">
    <g transform="matrix(1,0,0,1,-70.44,-55.29)">
        <path d="M1112.21,406.81C1112.02,407.93 1111.83,409.05 1111.62,410.17C1104.84,448.31 1093.77,485.08 1077.31,518.84C1076.77,519.96 1076.22,521.08 1075.66,522.2C1065.1,543.487 1052.13,563.491 1037,581.82C1028.8,591.71 1019.86,601.1 1009.23,607.88C994.33,617.38 976.91,621.24 959.79,624.4C942,627.69 923.98,630.4 906,633.4C899.627,634.44 893.293,635.53 887,636.67C869.63,639.81 852.39,643.44 835.56,648.25C814.75,654.25 794.56,661.98 775.56,672.93C774.04,673.797 772.537,674.687 771.05,675.6C769.56,676.5 768.05,677.42 766.6,678.36C765.15,679.3 763.69,680.23 762.25,681.18L760.03,682.68C759.3,683.16 758.58,683.68 757.86,684.16C755.72,685.62 753.61,687.16 751.5,688.64L751.42,688.7C750.03,689.7 748.65,690.7 747.27,691.7C739.48,697.47 731.86,703.51 724.27,709.57L719.48,713.4C717.007,715.36 714.533,717.317 712.06,719.27C710.61,720.42 709.14,721.56 707.68,722.7C706.62,723.53 705.57,724.36 704.49,725.18C699.08,729.35 693.6,733.43 688.01,737.33C686.68,738.26 685.33,739.19 684.01,740.1C672.82,747.754 660.918,754.311 648.47,759.68L648.31,759.75C642.178,762.364 635.869,764.539 629.43,766.26C625.74,767.26 622.05,768.05 618.31,768.67C608.347,770.393 598.177,770.569 588.16,769.19C568.47,766.4 550.02,757.19 530.38,754.11C489.86,747.82 450.51,768.11 412.38,784.04C403.047,787.947 393.61,791.613 384.07,795.04C377.75,797.32 371.4,799.49 365.02,801.55C326.151,814.122 286.1,822.69 245.49,827.12C228.91,828.93 211.62,829.79 194.74,828.49C188.366,828.022 182.022,827.197 175.74,826.02C154.37,822.02 134.42,813.53 118.35,798.02C105,785.33 95.58,768.74 88.4,751.43C85.513,744.477 82.97,737.363 80.77,730.09C77.312,718.691 74.715,707.048 73,695.26C72.61,692.6 72.26,689.93 72,687.26C71.48,682.68 71.093,678.08 70.84,673.46C69.44,648.906 71.838,624.282 77.95,600.46C84.76,574.07 96.12,548.8 101.12,522.16C101.33,521.04 101.52,519.92 101.71,518.8C102.377,514.8 102.883,510.727 103.23,506.58C105.75,474 96,442.11 88.3,410.17C88.03,409.05 87.76,407.93 87.5,406.81C86.667,403.27 85.877,399.727 85.13,396.18C78,362.4 76.05,326.25 82.38,292.54C82.58,291.42 82.81,290.29 83.04,289.18C87.31,268.3 94.85,248.44 106.4,230.75C118.25,212.59 133.81,197.48 150.4,184.2C158.5,177.733 166.877,171.683 175.53,166.05C181.75,162.01 188.083,158.187 194.53,154.58C246.62,125.58 306.05,111.41 364.81,114.58C367.923,114.74 371.03,114.953 374.13,115.22C377.383,115.5 380.627,115.833 383.86,116.22C421.69,120.59 458.5,131.42 495.09,143.27C507.35,147.27 519.58,151.27 531.81,155.27C537.25,157.043 542.687,158.793 548.12,160.52C574.77,168.93 601.86,176.52 629.2,182.24C635.54,183.573 641.873,184.79 648.2,185.89C670.195,189.83 692.454,192.123 714.79,192.75C723.457,192.963 732.123,192.873 740.79,192.48C745.17,192.28 749.553,191.987 753.94,191.6C799.25,187.72 842.94,174.71 886.81,162.49C893.15,160.72 899.5,158.96 905.81,157.26C914.15,155.02 922.5,152.85 930.88,150.85C983.06,138.32 1029.56,145.52 1078.07,171.36C1089.07,177.23 1100.07,184.31 1106.87,195.27C1113.67,206.23 1115.32,219.8 1116.58,232.86C1118.36,251.44 1119.58,270.28 1119.97,289.2C1119.97,290.32 1119.97,291.44 1120.04,292.56C1120.92,330.87 1118.59,369.47 1112.21,406.81Z" style="fill:rgb(28,117,188);fill-opacity:0.1;fill-rule:nonzero;"/>
    </g>
    <g transform="matrix(1,0,0,1,-70.44,-55.29)">
        <path d="M766.12,518.84L762.71,518.84L762.71,522.2L766.57,522.2L766.12,518.84ZM727.47,518.84C727.465,518.866 727.465,518.894 727.47,518.92L727.17,521.7L727.17,522.2L756.77,522.2L756.77,522L758.88,518.84L727.47,518.84ZM648.32,518.84L648.32,410.17L682.32,410.17C681.96,409.87 681.59,409.57 681.21,409.29L680.71,408.91C680.5,408.74 680.29,408.58 680.07,408.43C679.85,408.28 679.33,407.9 678.94,407.64C678.55,407.38 678.31,407.21 677.94,407L677.71,406.85L677.66,406.85L648.32,406.85L648.32,400.9L647.53,401.28L646.69,401.75L646.63,401.75L646.45,401.86L645.93,402.2C645.75,402.31 645.57,402.42 645.4,402.54C644.88,402.89 644.4,403.27 643.85,403.66L643.35,404.06C643.01,404.32 642.69,404.59 642.35,404.86C641.02,405.95 639.71,407.09 638.35,408.14C638.01,408.41 637.67,408.67 637.35,408.92C636.623,409.452 635.869,409.946 635.09,410.4C634.767,410.601 634.433,410.785 634.09,410.95L633.53,411.21L633.02,411.43C631.819,411.937 630.574,412.332 629.3,412.61L629.3,518.84L578.3,518.84C578.3,518.96 578.37,519.07 578.4,519.19C578.68,520.19 578.96,521.19 579.23,522.19L629.31,522.19L629.31,638.68L630.09,638.68L630.98,638.74L632.6,638.86L635.22,639.12L636.4,639.26L637.7,639.42L637.89,639.42C638.64,639.52 639.4,639.64 640.17,639.76L640.66,639.84L641.76,640.02L643.34,640.3L647.13,640.1L647.65,640.21C647.86,640.21 648.07,640.29 648.29,640.34L648.29,522.2L727.1,522.2L727.1,521.95L727.1,521.7L727.4,518.92C727.395,518.894 727.395,518.866 727.4,518.84L648.32,518.84ZM766.12,518.84L762.71,518.84L762.71,522.2L766.57,522.2L766.12,518.84ZM725.34,518.84L725,522.2L757.93,522.2L760.17,518.84L725.34,518.84ZM648.34,518.84L648.34,410.17L682.34,410.17C681.98,409.87 681.61,409.57 681.23,409.29L680.73,408.91C680.52,408.74 680.31,408.58 680.09,408.43C679.87,408.28 679.35,407.9 678.96,407.64C678.57,407.38 678.33,407.21 677.96,407L677.73,406.85L677.66,406.85L648.32,406.85L648.32,400.9L647.53,401.28L646.69,401.75L646.63,401.75L646.45,401.86L645.93,402.2C645.75,402.31 645.57,402.42 645.4,402.54C644.88,402.89 644.4,403.27 643.85,403.66L643.35,404.06C643.01,404.32 642.69,404.59 642.35,404.86C641.02,405.95 639.71,407.09 638.35,408.14C638.01,408.41 637.67,408.67 637.35,408.92C636.623,409.452 635.869,409.946 635.09,410.4C634.767,410.601 634.433,410.785 634.09,410.95L633.53,411.21L633.02,411.43C631.819,411.937 630.574,412.332 629.3,412.61L629.3,518.84L578.3,518.84C578.3,518.96 578.37,519.07 578.4,519.19C578.68,520.19 578.97,521.19 579.24,522.19L629.31,522.19L629.31,638.67L630.09,638.72L630.98,638.78L632.6,638.9L635.22,639.16L636.4,639.3L637.7,639.46L637.89,639.46C638.64,639.56 639.4,639.68 640.17,639.8L640.66,639.88L641.76,640.06L643.34,640.34L647.13,640.14L647.65,640.25C647.86,640.25 648.07,640.33 648.29,640.38L648.29,522.2L725,522.2L725.36,518.84L648.34,518.84ZM906,292.54L1120.23,292.54C1120.23,291.42 1120.23,290.3 1120.16,289.18L906,289.18L906,157.24C899.64,158.94 893.29,160.7 887,162.47L887,289.18L654,289.18L653.41,288.54L654.3,287.54L740.96,192.43C732.293,192.83 723.627,192.92 714.96,192.7L648.32,265.8L648.32,185.87C641.96,184.77 635.627,183.553 629.32,182.22L629.32,262.12L531.89,155.25C519.66,151.25 507.43,147.18 495.17,143.25L627.6,288.54L627.01,289.18L383.94,289.18L383.94,116.18C380.7,115.813 377.457,115.48 374.21,115.18C371.11,114.907 368.003,114.693 364.89,114.54L364.89,289.18L194.61,289.18L194.61,154.58C188.15,158.18 181.817,162.003 175.61,166.05L175.61,289.18L83,289.18C82.77,290.29 82.54,291.42 82.34,292.54L175.53,292.54L175.53,406.81L87.5,406.81C87.76,407.93 88.03,409.05 88.3,410.17L175.57,410.17L175.57,518.84L101.68,518.84C101.49,519.96 101.3,521.08 101.09,522.2L175.57,522.2L175.57,826.05C181.852,827.227 188.196,828.052 194.57,828.52L194.57,522.2L364.89,522.2L364.89,801.58C371.277,799.507 377.627,797.337 383.94,795.07L383.94,522.2L629.28,522.2L629.28,766.3C635.719,764.579 642.028,762.404 648.16,759.79L648.32,759.72L648.32,522.2L886.94,522.2L886.94,636.67C893.267,635.53 899.6,634.44 905.94,633.4L905.94,522.2L1075.61,522.2C1076.17,521.08 1076.72,519.96 1077.26,518.84L906,518.84L906,410.17L1111.63,410.17C1111.84,409.05 1112.03,407.93 1112.22,406.81L906,406.81L906,292.54ZM194.62,292.54L364.89,292.54L364.89,406.81L194.61,406.81L194.62,292.54ZM194.62,518.84L194.62,410.17L364.89,410.17L364.89,518.84L194.62,518.84ZM383.95,292.54L629.28,292.54L629.28,406.81L383.94,406.81L383.95,292.54ZM383.95,518.84L383.95,410.17L629.28,410.17L629.28,518.84L383.95,518.84ZM886.95,518.84L648.32,518.84L648.32,410.17L886.94,410.17L886.95,518.84ZM886.95,406.84L648.32,406.84L648.32,295.6L651.67,292.54L886.94,292.54L886.95,406.84ZM727.48,518.84C727.475,518.866 727.475,518.894 727.48,518.92L727.18,521.7L727.18,522.2L756.78,522.2L756.78,522L758.89,518.84L727.48,518.84ZM766.13,518.84L762.72,518.84L762.72,522.2L766.58,522.2L766.13,518.84ZM648.33,518.84L648.33,410.17L682.33,410.17C681.97,409.87 681.6,409.57 681.22,409.29L680.72,408.91C680.51,408.74 680.3,408.58 680.08,408.43C679.86,408.28 679.34,407.9 678.95,407.64C678.56,407.38 678.32,407.21 677.95,407L677.72,406.85L677.67,406.85L648.32,406.85L648.32,400.9L647.53,401.28L646.69,401.75L646.63,401.75L646.45,401.86L645.93,402.2C645.75,402.31 645.57,402.42 645.4,402.54C644.88,402.89 644.4,403.27 643.85,403.66L643.35,404.06C643.01,404.32 642.69,404.59 642.35,404.86C641.02,405.95 639.71,407.09 638.35,408.14C638.01,408.41 637.67,408.67 637.35,408.92C636.623,409.452 635.869,409.946 635.09,410.4C634.767,410.601 634.433,410.785 634.09,410.95L633.53,411.21L633.02,411.43C631.819,411.937 630.574,412.332 629.3,412.61L629.3,518.84L578.3,518.84C578.3,518.96 578.37,519.07 578.4,519.19C578.68,520.19 578.96,521.19 579.23,522.19L629.31,522.19L629.31,638.68L630.09,638.68L630.98,638.74L632.6,638.86L635.22,639.12L636.4,639.26L637.7,639.42L637.89,639.42C638.64,639.52 639.4,639.64 640.17,639.76L640.66,639.84L641.76,640.02L643.34,640.3L647.13,640.1L647.65,640.21C647.86,640.21 648.07,640.29 648.29,640.34L648.29,522.2L727.1,522.2L727.1,521.95L727.1,521.7L727.4,518.92C727.395,518.894 727.395,518.866 727.4,518.84L648.33,518.84Z" style="fill:rgb(28,117,188);fill-opacity:0.1;fill-rule:nonzero;"/>
    </g>
    <g transform="matrix(1,0,0,1,-70.44,-55.29)">
        <path d="M276.48,213.86L278,213.86C276.945,213.249 276.264,212.147 276.19,210.93C276.19,208.61 279.03,206.72 282.5,206.72L326.65,206.72C330.12,206.72 332.96,208.61 332.96,210.93C332.96,213.24 330.12,215.14 326.65,215.14L325.18,215.14C326.23,215.755 326.907,216.855 326.98,218.07C326.98,220.07 324.92,221.71 322.16,222.16L334.87,222.16C338.33,222.16 341.17,224.05 341.17,226.37C341.17,228.69 338.33,230.57 334.87,230.57L290.67,230.57C287.21,230.57 284.37,228.68 284.37,226.37C284.37,224.37 286.43,222.73 289.19,222.28L276.48,222.28C273.02,222.28 270.18,220.39 270.18,218.07C270.18,215.75 273,213.86 276.48,213.86Z" style="fill:rgb(28,117,188);fill-opacity:0.1;fill-rule:nonzero;"/>
    </g>
    <g transform="matrix(1,0,0,1,-70.44,-55.29)">
        <path d="M755,253.93L756.48,253.93C755.423,253.316 754.742,252.21 754.67,250.99C754.67,248.68 757.51,246.79 760.98,246.79L805.13,246.79C808.6,246.79 811.44,248.68 811.44,250.99C811.44,253.31 808.6,255.2 805.13,255.2L803.66,255.2C804.712,255.818 805.388,256.922 805.46,258.14C805.46,260.14 803.4,261.77 800.64,262.22L813.35,262.22C816.81,262.22 819.65,264.12 819.65,266.43C819.65,268.74 816.81,270.64 813.35,270.64L769.21,270.64C765.75,270.64 762.91,268.75 762.91,266.43C762.91,264.43 764.97,262.79 767.73,262.35L755,262.35C751.54,262.35 748.7,260.45 748.7,258.14C748.7,255.83 751.56,253.93 755,253.93Z" style="fill:rgb(28,117,188);fill-opacity:0.1;fill-rule:nonzero;"/>
    </g>
    <g transform="matrix(1,0,0,1,-70.44,-55.29)">
        <path d="M208.75,425.4L210.23,425.4C209.178,424.782 208.502,423.678 208.43,422.46C208.43,420.15 211.26,418.25 214.73,418.25L258.88,418.25C262.35,418.25 265.19,420.15 265.19,422.46C265.19,424.78 262.35,426.67 258.88,426.67L257.41,426.67C258.462,427.288 259.138,428.392 259.21,429.61C259.21,431.61 257.15,433.24 254.39,433.69L267.1,433.69C270.57,433.69 273.4,435.58 273.4,437.9C273.4,440.22 270.57,442.11 267.1,442.11L222.94,442.11C219.48,442.11 216.64,440.21 216.64,437.9C216.64,435.9 218.71,434.26 221.46,433.81L208.75,433.81C205.29,433.81 202.45,431.92 202.45,429.61C202.45,427.3 205.29,425.4 208.75,425.4Z" style="fill:rgb(28,117,188);fill-opacity:0.1;fill-rule:nonzero;"/>
    </g>
    <g transform="matrix(1,0,0,1,-70.44,-55.29)">
        <path d="M719.36,713.44C716.887,715.4 714.413,717.357 711.94,719.31C710.49,720.46 709.02,721.6 707.56,722.74C706.5,723.57 705.45,724.4 704.37,725.22C698.96,729.39 693.48,733.47 687.89,737.37C686.56,738.3 685.21,739.23 683.89,740.14C672.7,747.794 660.798,754.351 648.35,759.72L648.19,759.79L648.19,713.44L719.36,713.44Z" style="fill:rgb(101,97,125);fill-rule:nonzero;"/>
    </g>
    <g transform="matrix(1,0,0,1,-70.44,-55.29)">
        <path d="M830.64,531.28L831.76,496.73C831.09,496.21 830.41,495.73 829.76,495.25C830.036,484.949 829.448,474.643 828,464.44C823.48,429.89 794.13,429.14 785.85,436.27C784.753,437.217 783.556,438.042 782.28,438.73C783.03,433.8 783.96,428.86 784.63,423.98C788.25,397.66 782.63,368.05 762.21,351.04C753.66,343.93 743.21,339.56 733.82,333.61C717,323 703.71,307.33 686.7,297C669.69,286.67 645.8,282.8 630.96,296.08C625.21,301.22 621.5,308.35 615.6,313.31C604.6,322.55 587.45,323.16 577.85,333.48C577.37,334 576.91,334.53 576.47,335.09C568.47,345.35 570.66,359.9 573.21,372.63C576.28,387.95 575.01,400.23 588.15,404.63C588.2,405.24 588.24,405.85 588.31,406.45C590.473,425.462 600.935,442.577 616.87,453.17L614.74,453.93C609.06,455.93 603.95,457.87 600.68,459.2C588.68,464.09 563.42,470.46 563.42,470.46C563.42,470.46 562.82,477.66 562.93,488.28C554.51,497.43 540.46,513.51 536.33,523.04C530.33,536.94 496.43,576.75 487.4,582.76C478.37,588.77 468.58,595.9 468.58,595.9C468.58,595.9 454.28,603.79 447.51,604.54C442.82,605.06 428.31,602.28 428.31,602.28C428.31,602.28 370.36,531.28 374.12,585.76C377.88,640.24 424.17,642.09 424.17,642.09L470.84,641.34C470.84,641.34 496.06,644.72 507.35,635.34C516.99,627.34 566.95,583.45 583,563.54C583.37,563.95 583.74,564.35 584.13,564.74C584.13,564.74 590.52,556.48 591.28,564.74C592.04,573 587.13,576.74 589.77,579.74C592.41,582.74 600.31,593.26 600.68,597.39C601.05,601.52 590.15,618.39 608.58,631.19C608.87,631.39 609.18,631.58 609.52,631.77C612.81,639.26 623.27,646.59 623.27,646.59L679.72,645.84L786.23,654.1C786.23,654.1 789.4,651.31 793.69,646.75C799.42,652.01 807.37,656.52 816.33,653.75C816.33,653.75 829.13,638.36 829.51,628.22C829.51,628.22 821.23,606.81 817.51,600.43C813.79,594.05 820.15,580.15 820.15,580.15C820.15,580.15 824.66,566.63 827.3,566.63C829.94,566.63 828.05,557.63 828.05,557.63C826.026,554.646 825.602,550.846 826.92,547.49C829.13,541.8 830.64,531.28 830.64,531.28Z" style="fill:url(#_Linear1);fill-rule:nonzero;"/>
    </g>
    <g transform="matrix(1,0,0,1,-70.44,-55.29)">
        <path d="M766.79,523.5L762.79,528.18L746.63,547L725.52,548.28L691.73,550.36C691.73,550.36 646.17,495.46 654.73,483.51C657.84,479.2 658.35,473.51 657.73,468.14C657.65,467.4 657.54,466.66 657.41,465.93C656.386,460.248 654.596,454.731 652.09,449.53L653.21,449.02L653.93,448.69L693.77,430.51L703.63,426.01C704.121,428.728 705.032,431.352 706.33,433.79C706.52,434.17 706.73,434.55 706.95,434.91C720.54,457.41 764.12,443.18 764.12,443.18L766.79,523.5Z" style="fill:rgb(247,196,167);fill-rule:nonzero;"/>
    </g>
    <g transform="matrix(1,0,0,1,-70.44,-55.29)">
        <path d="M825.7,495.41C825.4,509.03 823.18,514.91 823.18,514.91L766.79,523.5L764.68,508.86L756.33,451.05L764.17,443.21C770.514,444.578 777.146,442.921 782.1,438.73C790.31,431.63 819.44,432.38 823.92,466.73C825.236,476.231 825.831,485.819 825.7,495.41Z" style="fill:rgb(247,196,167);fill-rule:nonzero;"/>
    </g>
    <g transform="matrix(1,0,0,1,-70.44,-55.29)">
        <path d="M812.35,654.94C812.35,654.94 825.04,639.63 825.42,629.55L812.72,608.26L801.52,596.26L780.6,636.64C780.6,636.64 794.42,660.54 812.35,654.94Z" style="fill:rgb(223,229,238);fill-rule:nonzero;"/>
    </g>
    <g transform="matrix(1,0,0,1,-70.44,-55.29)">
        <path d="M812.35,654.94C812.35,654.94 825.04,639.63 825.42,629.55L812.72,608.26L801.52,596.26L780.6,636.64C780.6,636.64 794.42,660.54 812.35,654.94Z" style="fill-opacity:0.1;fill-rule:nonzero;"/>
    </g>
    <g transform="matrix(1,0,0,1,-70.44,-55.29)">
        <path d="M707.56,722.74C706.5,723.57 705.45,724.4 704.37,725.22C698.96,729.39 693.48,733.47 687.89,737.37C686.56,738.3 685.21,739.23 683.89,740.14L629.28,740.14L383.94,740.14L364.89,740.14L270.51,736.76L194.61,736.12L175.61,735.12L80.81,730.12C77.337,718.712 74.726,707.059 73,695.26C72.61,692.6 72.26,689.93 72,687.26L175.57,693L194.57,694.07L364.85,703.57L383.9,704.63L629.24,718.33L648.12,719.39L648.28,719.39L707.56,722.74Z" style="fill:rgb(212,138,155);fill-rule:nonzero;"/>
    </g>
    <g transform="matrix(1,0,0,1,-70.44,-55.29)">
        <path d="M835.5,648.25C814.69,654.25 794.5,661.98 775.5,672.93C773.99,673.8 772.5,674.69 770.99,675.6C769.48,676.51 767.99,677.42 766.54,678.36C765.09,679.3 763.63,680.23 762.19,681.18L759.97,682.68L757.8,684.16C755.66,685.63 753.55,687.16 751.44,688.64L751.36,688.7C749.97,689.7 748.59,690.7 747.21,691.7C739.42,697.47 731.8,703.51 724.21,709.57C722.61,710.85 721.007,712.127 719.4,713.4L712,719.27C710.55,720.42 709.08,721.56 707.62,722.7C706.56,723.53 705.51,724.36 704.43,725.18L648.43,722.51L648.27,722.51L629.39,721.63L383.94,710L364.89,709.09L194.61,701L175.61,700.09L73,695.26C72.61,692.6 72.26,689.93 72,687.26C71.48,682.68 71.093,678.08 70.84,673.46L175.6,636.46L194.6,629.73L211.86,623.63L243.31,625.27L316,629L364.92,631.57L383.97,632.57L396.14,633.21L399.05,633.37L501.47,638.72L502.55,638.79L548.25,641.17L549.07,641.17L553.64,641.4L569.22,642.22L588.7,643.22L595.12,643.56L596.33,643.63L605.41,644.1L608,644.23L616.67,644.69L620.12,644.88L620.95,644.88L629.06,645.31L641.62,645.97L641.68,645.97L645.58,646.17L646,646.17L648.33,646.3L654.05,646.6L659.05,646.86L659.1,646.86L664.71,647.15L664.8,647.15L669.05,647.38L672.31,647.55L683.88,648.16L685.96,648.27L686.68,648.27L687.68,648.33L691.07,648.51L692.59,648.59L704.39,649.2L705.47,649.2L722.89,649.05L723.01,649.05L789.24,648.51L795.79,648.51L817.11,648.34L820.29,648.34L835.5,648.25Z" style="fill:rgb(239,198,205);fill-rule:nonzero;"/>
    </g>
    <g transform="matrix(1,0,0,1,-70.44,-55.29)">
        <path d="M388.51,649.62L394.67,682.39L562.15,679.87C562.15,679.87 574.75,683.51 574.47,673.43C574.47,673.43 599.96,649.34 729.07,677.35L679.5,638.42L544,645.7L386.88,641.5L388.51,649.62Z" style="fill:rgb(28,117,188);fill-rule:nonzero;"/>
    </g>
    <g transform="matrix(1,0,0,1,-70.44,-55.29)">
        <path d="M391.59,641.78L397.47,677.35C397.47,677.35 541.47,673.15 564.11,677.07L547,644.58C547,644.58 459.93,636.46 391.59,641.78Z" style="fill:white;fill-rule:nonzero;"/>
    </g>
    <g transform="matrix(1,0,0,1,-70.44,-55.29)">
        <path d="M391.59,641.78L397.47,677.35C397.47,677.35 541.47,673.15 564.11,677.07L547,644.58C547,644.58 459.93,636.46 391.59,641.78Z" style="fill-opacity:0.1;fill-rule:nonzero;"/>
    </g>
    <g transform="matrix(1,0,0,1,-70.44,-55.29)">
        <path d="M393.74,641.65L399.54,674.73C399.54,674.73 541.71,670.83 564.11,674.47L547.24,644.26C547.24,644.26 461.22,636.7 393.74,641.65Z" style="fill:white;fill-rule:nonzero;"/>
    </g>
    <g transform="matrix(1,0,0,1,-70.44,-55.29)">
        <path d="M396.35,642.67L402,673.61C402,673.61 541.05,669.96 563,673.37L546.5,645.1C546.5,645.1 462.36,638 396.35,642.67Z" style="fill-opacity:0.1;fill-rule:nonzero;"/>
    </g>
    <g transform="matrix(1,0,0,1,-70.44,-55.29)">
        <path d="M397.47,641.54L403.15,672.54C403.15,672.54 542.2,668.89 564.15,672.3L547.61,644C547.61,644 463.48,636.91 397.47,641.54Z" style="fill:white;fill-rule:nonzero;"/>
    </g>
    <g transform="matrix(1,0,0,1,-70.44,-55.29)">
        <path d="M299.09,557.41C299.09,557.41 306.37,566.92 295.74,581.29C285.11,595.66 276.33,607.78 279.88,616.74C279.88,616.74 295.88,590.06 308.98,589.74C322.08,589.42 313.46,573.45 299.09,557.41Z" style="fill:rgb(28,117,188);fill-rule:nonzero;"/>
    </g>
    <g transform="matrix(1,0,0,1,-70.44,-55.29)">
        <path d="M299.09,557.41C299.73,558.332 300.232,559.343 300.58,560.41C313.32,575.41 320.11,589.41 307.86,589.71C296.45,590.03 282.77,610.43 279.49,615.59C279.603,615.977 279.733,616.367 279.88,616.76C280.027,617.153 295.88,590.08 308.98,589.76C322.08,589.44 313.46,573.45 299.09,557.41Z" style="fill-opacity:0.1;fill-rule:nonzero;"/>
    </g>
    <g transform="matrix(1,0,0,1,-70.44,-55.29)">
        <path d="M312.62,569.54C312.62,572.88 312.24,575.6 311.78,575.6C311.32,575.6 310.94,572.88 310.94,569.54C310.94,566.2 311.41,567.76 311.87,567.76C312.33,567.76 312.62,566.19 312.62,569.54Z" style="fill:rgb(255,208,55);fill-rule:nonzero;"/>
    </g>
    <g transform="matrix(1,0,0,1,-70.44,-55.29)">
        <path d="M317.26,573.53C314.32,575.14 311.76,576.11 311.54,575.7C311.32,575.29 313.54,573.7 316.46,572.06C319.38,570.42 318.24,571.62 318.46,572.06C318.68,572.5 320.2,571.93 317.26,573.53Z" style="fill:rgb(255,208,55);fill-rule:nonzero;"/>
    </g>
    <g transform="matrix(1,0,0,1,-70.44,-55.29)">
        <path d="M260.66,557.41C260.66,557.41 253.38,566.92 264.02,581.29C274.66,595.66 283.42,607.78 279.88,616.74C279.88,616.74 263.83,590.06 250.77,589.74C237.71,589.42 246.29,573.45 260.66,557.41Z" style="fill:rgb(28,117,188);fill-rule:nonzero;"/>
    </g>
    <g transform="matrix(1,0,0,1,-70.44,-55.29)">
        <path d="M260.66,557.41C260.026,558.335 259.524,559.345 259.17,560.41C246.43,575.41 239.64,589.41 251.89,589.71C263.3,590.03 276.99,610.43 280.27,615.59C280.163,615.977 280.033,616.367 279.88,616.76C279.727,617.153 263.83,590.08 250.77,589.76C237.71,589.44 246.29,573.45 260.66,557.41Z" style="fill-opacity:0.1;fill-rule:nonzero;"/>
    </g>
    <g transform="matrix(1,0,0,1,-70.44,-55.29)">
        <path d="M247.13,569.54C247.13,572.88 247.51,575.6 247.97,575.6C248.43,575.6 248.81,572.88 248.81,569.54C248.81,566.2 248.34,567.76 247.88,567.76C247.42,567.76 247.13,566.19 247.13,569.54Z" style="fill:rgb(255,208,55);fill-rule:nonzero;"/>
    </g>
    <g transform="matrix(1,0,0,1,-70.44,-55.29)">
        <path d="M242.49,573.53C245.43,575.14 248,576.11 248.22,575.7C248.44,575.29 246.22,573.7 243.3,572.06C240.38,570.42 241.52,571.62 241.3,572.06C241.08,572.5 239.55,571.93 242.49,573.53Z" style="fill:rgb(255,208,55);fill-rule:nonzero;"/>
    </g>
    <g transform="matrix(1,0,0,1,-70.44,-55.29)">
        <path d="M319,603.91L318.64,606.91L318.13,611.1L317.92,612.85L317.41,617.05L317.19,618.8L316.67,623L310.85,670.72C310.33,674.98 303.37,678.3 294.97,678.3L264.75,678.3C256.35,678.3 249.4,674.98 248.88,670.72L243.05,623L242.54,618.8L242.33,617.05L241.81,612.85L241.6,611.1L241.09,606.91L240.72,603.91C240.43,601.5 244.19,599.47 248.95,599.47L310.81,599.47C315.56,599.47 319.33,601.5 319,603.91Z" style="fill:rgb(101,97,125);fill-rule:nonzero;"/>
    </g>
    <path d="M248.23,551.59L247.72,555.79L171.16,555.79L170.65,551.59L248.23,551.59Z" style="fill:rgb(157,156,181);fill-rule:nonzero;"/>
    <path d="M247.51,557.54L247,561.74L171.89,561.74L171.37,557.54L247.51,557.54Z" style="fill:rgb(157,156,181);fill-rule:nonzero;"/>
    <path d="M246.78,563.49L246.27,567.68L172.61,567.68L172.1,563.49L246.78,563.49Z" style="fill:rgb(157,156,181);fill-rule:nonzero;"/>
    <g transform="matrix(1,0,0,1,-70.44,-55.29)">
        <path d="M411.29,600.05C411.29,600.05 391.87,581.38 392.62,605.65C393.37,629.92 411.29,600.05 411.29,600.05Z" style="fill:rgb(238,142,158);fill-rule:nonzero;"/>
    </g>
    <g transform="matrix(1,0,0,1,-70.44,-55.29)">
        <path d="M585.68,557.48C585.25,559.36 583.16,562.48 579.9,566.39C563.06,586.67 515.15,628.82 505.76,636.64C494.56,645.98 469.54,642.64 469.54,642.64L423.24,643.39C423.24,643.39 377.31,641.52 373.57,587.39C369.83,533.26 427.34,603.82 427.34,603.82C427.34,603.82 441.74,606.58 446.39,606.06C453.11,605.32 467.3,597.48 467.3,597.48C467.3,597.48 477.01,590.38 485.97,584.41C494.93,578.44 528.54,538.85 534.52,525.03C538.31,516.26 550.52,501.92 558.95,492.62C563.79,487.27 567.38,483.62 567.38,483.62C567.38,483.62 588.29,545.9 585.68,557.48Z" style="fill:rgb(247,196,167);fill-rule:nonzero;"/>
    </g>
    <g transform="matrix(1,0,0,1,-70.44,-55.29)">
        <path d="M585.68,557.48C585.25,559.36 583.16,562.48 579.9,566.39C562.9,549.08 559.35,514.54 558.95,492.58C563.79,487.23 567.38,483.58 567.38,483.58C567.38,483.58 588.29,545.9 585.68,557.48Z" style="fill-opacity:0.1;fill-rule:nonzero;"/>
    </g>
    <g transform="matrix(1,0,0,1,-70.44,-55.29)">
        <path d="M762.78,528.18L746.63,547L725.52,548.28L691.73,550.36C691.73,550.36 646.17,495.46 654.73,483.51C657.84,479.2 658.35,473.51 657.73,468.14C657.65,467.4 657.54,466.66 657.41,465.93C656.386,460.248 654.596,454.731 652.09,449.53L653.21,449.02L653.93,448.69C655.708,453.644 656.936,458.778 657.59,464C657.7,464.71 657.8,465.45 657.9,466.21C658.25,468.91 658.57,471.91 658.9,475.21C661.5,505.43 680.51,516.8 689.09,520.42C691.849,521.584 694.546,522.889 697.17,524.33C705.423,528.882 714.946,530.603 724.27,529.23C745.45,526.45 762.72,511.06 762.72,511.06L762.81,526.21L762.78,528.18Z" style="fill-opacity:0.1;fill-rule:nonzero;"/>
    </g>
    <g transform="matrix(1,0,0,1,-70.44,-55.29)">
        <path d="M763.43,645.61C763.43,645.61 624.52,645.23 606.21,632.54C587.9,619.85 598.75,603.04 598.37,598.93C597.99,594.82 590.16,584.37 587.55,581.37C584.94,578.37 589.79,574.65 589.04,566.44C588.29,558.23 581.95,566.44 581.95,566.44C555.8,539.92 561.4,472.71 561.4,472.71C561.4,472.71 586.4,466.37 598.4,461.5C601.65,460.18 606.71,458.3 612.4,456.27L614.51,455.51C629.18,450.26 646.62,444.33 646.62,444.33C646.62,444.33 649.97,441.96 653.34,449.05C654.88,452.31 656.43,457.56 657.67,465.95C657.78,466.66 657.88,467.4 657.98,468.16C658.33,470.86 658.65,473.86 658.98,477.16C661.58,507.38 680.59,518.75 689.17,522.37C691.929,523.534 694.626,524.839 697.25,526.28C705.503,530.832 715.026,532.553 724.35,531.18C745.53,528.4 762.8,513.01 762.8,513.01L762.89,528.16L763.15,573.68L763.43,645.61Z" style="fill:rgb(223,229,238);fill-rule:nonzero;"/>
    </g>
    <g transform="matrix(1,0,0,1,-70.44,-55.29)">
        <path d="M757.45,586.61L755.21,600.8C755.21,600.8 699.94,614.61 678.29,618.72C656.64,622.83 609.95,617.6 606.59,626.56C603.23,635.52 620.78,647.85 620.78,647.85L676.78,647.1L782.46,655.32C782.46,655.32 822.79,619.84 809.72,595.19C796.65,570.54 757.45,586.61 757.45,586.61Z" style="fill:rgb(247,196,167);fill-rule:nonzero;"/>
    </g>
    <g transform="matrix(1,0,0,1,-70.44,-55.29)">
        <path d="M643.56,474.58C643.56,474.58 618.16,495.49 623.02,505.58C627.88,515.67 643.56,474.58 643.56,474.58Z" style="fill-opacity:0.1;fill-rule:nonzero;"/>
    </g>
    <g transform="matrix(1,0,0,1,-70.44,-55.29)">
        <path d="M612.19,512.29C612.19,512.29 586.42,556.73 587.92,560.09C589.42,563.45 596.51,575.4 596.13,566.44C595.75,557.48 612.19,512.29 612.19,512.29Z" style="fill-opacity:0.1;fill-rule:nonzero;"/>
    </g>
    <g transform="matrix(1,0,0,1,-70.44,-55.29)">
        <path d="M622.65,520.14C622.65,520.14 616.65,547.77 610.7,559.35C604.75,570.93 622.65,520.14 622.65,520.14Z" style="fill-opacity:0.1;fill-rule:nonzero;"/>
    </g>
    <g transform="matrix(1,0,0,1,-70.44,-55.29)">
        <path d="M707,434.94C696.989,453.297 678.664,465.695 657.9,468.16L657.78,468.16C641.674,470.051 625.433,465.8 612.32,456.26C627.32,450.84 646.54,444.32 646.54,444.32C646.54,444.32 649.89,441.95 653.26,449.04L703.68,426.04C704.246,429.181 705.371,432.195 707,434.94Z" style="fill-opacity:0.1;fill-rule:nonzero;"/>
    </g>
    <g transform="matrix(1,0,0,1,-70.44,-55.29)">
        <path d="M714.88,401.76C714.899,413.005 711.967,424.061 706.38,433.82C703.711,438.474 700.476,442.78 696.75,446.64C686.357,457.461 672.498,464.312 657.59,466L657.46,466C655.076,466.273 652.679,466.41 650.28,466.41C617.58,466.411 589.775,441.582 586.09,409.09C585.812,406.67 585.675,404.236 585.68,401.8C585.68,401.8 585.68,401.8 585.68,401.8C585.68,366.361 614.841,337.2 650.28,337.2C685.719,337.2 714.88,366.361 714.88,401.8C714.88,401.8 714.88,401.8 714.88,401.8L714.88,401.76Z" style="fill:rgb(247,196,167);fill-rule:nonzero;"/>
    </g>
    <g transform="matrix(1,0,0,1,-70.44,-55.29)">
        <path d="M756.71,524L762.71,515C762.71,515 795.57,475.79 827.71,500.81L826.59,535.17C826.59,535.17 825.09,545.62 822.85,551.17C821.545,554.51 821.964,558.287 823.97,561.26C825.976,564.233 825.84,570.26 823.23,570.26C820.62,570.26 816.13,583.7 816.13,583.7C816.13,583.7 809.78,597.52 813.52,603.87C817.26,610.22 825.47,631.5 825.47,631.5C825.47,631.5 812.4,623.66 808.66,610.59C808.66,610.59 776.92,585.94 752.27,601.59L756.71,524Z" style="fill-opacity:0.1;fill-rule:nonzero;"/>
    </g>
    <g transform="matrix(1,0,0,1,-70.44,-55.29)">
        <path d="M825.7,495.41C825.4,509.03 823.18,514.91 823.18,514.91L766.79,523.5L764.68,508.86C772.06,501.16 798.9,476.68 825.7,495.41Z" style="fill-opacity:0.1;fill-rule:nonzero;"/>
    </g>
    <g transform="matrix(1,0,0,1,-70.44,-55.29)">
        <path d="M756.71,522L762.71,513C762.71,513 795.57,473.79 827.71,498.81L826.59,533.17C826.59,533.17 825.09,543.62 822.85,549.17C821.545,552.51 821.964,556.287 823.97,559.26C825.976,562.233 825.84,568.26 823.23,568.26C820.62,568.26 816.13,581.7 816.13,581.7C816.13,581.7 809.78,595.52 813.52,601.87C817.26,608.22 825.47,629.5 825.47,629.5C825.47,629.5 812.4,621.66 808.66,608.59C808.66,608.59 776.92,583.94 752.27,599.59L756.71,522Z" style="fill:rgb(223,229,238);fill-rule:nonzero;"/>
    </g>
    <g transform="matrix(1,0,0,1,-70.44,-55.29)">
        <path d="M809.73,496.61C809.73,496.61 755.59,529.85 758.2,559C758.2,559 788.45,505.57 809.73,496.61Z" style="fill-opacity:0.1;fill-rule:nonzero;"/>
    </g>
    <g transform="matrix(1,0,0,1,-70.44,-55.29)">
        <path d="M762.77,528.19L763.03,573.71C752.79,574.17 743.14,572.84 735.51,566.21C730.2,561.59 727.11,555.21 725.51,548.31C724.32,542.75 723.882,537.056 724.21,531.38C724.205,531.323 724.205,531.267 724.21,531.21C724.84,518.64 727.73,506.07 726.21,493.58C724.69,481.09 717.12,467.91 704.76,465.28C702.32,464.75 699.58,464.56 697.84,462.77C695.92,460.77 696.01,457.66 696.22,454.89L696.58,450.22C696.67,449.02 696.71,447.83 696.71,446.64C696.695,424.829 681.112,405.902 659.71,401.7L659.31,401.63C655.83,400.93 652.21,400.24 648.73,401.04C642.11,402.57 637.83,408.99 631.73,412.04C620.03,417.88 600.52,411.49 588.27,409.48C587.47,409.35 586.71,409.2 585.98,409.03C585.702,406.61 585.565,404.176 585.57,401.74C585.586,366.313 614.743,337.17 650.17,337.17C685.609,337.17 714.77,366.331 714.77,401.77C714.77,413.003 711.84,424.045 706.27,433.8C706.46,434.18 706.67,434.56 706.89,434.92C720.48,457.42 764.06,443.19 764.06,443.19L766.68,523.48L762.77,528.19Z" style="fill-opacity:0.1;fill-rule:nonzero;"/>
    </g>
    <g transform="matrix(1,0,0,1,-70.44,-55.29)">
        <path d="M634.08,410.93C640.14,407.87 644.42,401.45 651.08,399.93C654.55,399.13 658.17,399.82 661.67,400.51L662.07,400.59C684.758,405.079 700.681,426.061 698.9,449.12L698.54,453.79C698.32,456.55 698.23,459.68 700.17,461.66C701.9,463.45 704.64,463.66 707.08,464.16C719.44,466.8 727.01,479.91 728.53,492.47C730.05,505.03 727.11,517.64 726.53,530.26C725.95,542.88 728.27,556.81 737.81,565.1C752.81,578.1 775.61,570.7 795.46,569.51C786.68,569.51 780.1,560.45 779.62,551.69C779.14,542.93 783.04,534.59 786.77,526.69C790.5,518.79 794.24,510.29 793.41,501.55C792.27,489.55 782.81,479.94 779.19,468.39C774.97,454.95 779.04,440.52 780.95,426.55C784.54,400.39 778.95,370.94 758.7,354.03C750.22,346.96 739.85,342.61 730.53,336.69C713.83,326.1 700.66,310.57 683.78,300.27C666.9,289.97 643.2,286.15 628.47,299.35C622.77,304.46 619.09,311.55 613.23,316.48C601.78,326.13 583.58,326.31 574.4,338.15C566.5,348.34 568.64,362.81 571.17,375.46C574.54,392.33 572.64,405.46 590.67,408.46C602.87,410.39 622.37,416.78 634.08,410.93Z" style="fill:rgb(98,53,40);fill-rule:nonzero;"/>
    </g>
    <g transform="matrix(1,0,0,1,-70.44,-55.29)">
        <path d="M782.64,561.45C768.19,563.22 753.87,564.13 743.35,555.01C733.81,546.72 731.46,532.8 732.07,520.17C732.68,507.54 735.6,494.92 734.07,482.37C732.54,469.82 724.98,456.71 712.62,454.07C710.18,453.55 707.45,453.36 705.71,451.57C703.78,449.57 703.86,446.45 704.08,443.69L704.44,439.02C706.22,415.963 690.296,394.985 667.61,390.5L667.21,390.42C663.71,389.73 660.09,389.04 656.62,389.84C650,391.37 645.72,397.84 639.62,400.84C627.91,406.69 608.42,400.3 596.15,398.29C578.15,395.34 580.03,382.19 576.65,365.29C574.76,355.85 573.09,345.39 575.65,336.45C575.17,336.96 574.71,337.45 574.27,338.06C566.37,348.25 568.51,362.72 571.04,375.37C574.41,392.24 572.51,405.37 590.54,408.37C602.8,410.37 622.3,416.77 634.01,410.92C640.07,407.86 644.35,401.44 651.01,399.92C654.48,399.12 658.1,399.81 661.6,400.5L662,400.58C684.688,405.069 700.611,426.051 698.83,449.11L698.47,453.78C698.25,456.54 698.16,459.67 700.1,461.65C701.83,463.44 704.57,463.65 707.01,464.15C719.37,466.79 726.94,479.9 728.46,492.46C729.98,505.02 727.05,517.63 726.46,530.25C725.87,542.87 728.2,556.8 737.74,565.09C752.74,578.09 775.54,570.69 795.39,569.5C790,569.53 785.47,566.11 782.64,561.45Z" style="fill-opacity:0.1;fill-rule:nonzero;"/>
    </g>
    <g transform="matrix(1,0,0,1,-70.44,-55.29)">
        <path d="M376.8,594.81L438.45,571.81C441.464,570.685 444.871,572.237 446,575.25C447.125,578.264 445.573,581.671 442.56,582.8L380.91,605.8L367.69,604.48L376.8,594.81Z" style="fill:rgb(92,92,142);fill-rule:nonzero;"/>
    </g>
    <g transform="matrix(1,0,0,1,-70.44,-55.29)">
        <path d="M444.14,573.37C445.264,576.387 443.707,579.795 440.69,580.92L379,604L369.08,603L367.65,604.52L380.87,605.84L442.52,582.84C445.533,581.711 447.085,578.304 445.96,575.29C445.506,574.075 444.662,573.045 443.56,572.36C443.782,572.679 443.976,573.017 444.14,573.37Z" style="fill:white;fill-opacity:0.1;fill-rule:nonzero;"/>
    </g>
    <path d="M306.37,539.52L310.47,550.51L299.63,549.42L297.26,549.18L300.5,545.74L306.37,539.52Z" style="fill:rgb(239,200,196);fill-rule:nonzero;"/>
    <g transform="matrix(1,0,0,1,-70.44,-55.29)">
        <path d="M370.93,601C371.183,601.189 371.4,601.423 371.57,601.69C371.777,602.016 371.777,602.434 371.57,602.76C371.4,602.936 371.2,603.082 370.98,603.19C370.479,603.525 370.155,604.07 370.1,604.67L367.72,604.44L370.93,601Z" style="fill:rgb(114,122,156);fill-rule:nonzero;"/>
    </g>
    <g transform="matrix(1,0,0,1,-70.44,-55.29)">
        <path d="M570.37,665C570.37,665 623.77,653.79 713.37,668L678.27,642.24L614.41,629.17L569.23,641.17L570.37,665Z" style="fill:white;fill-rule:nonzero;"/>
    </g>
    <g transform="matrix(1,0,0,1,-70.44,-55.29)">
        <path d="M570.37,665C570.37,665 623.77,653.79 713.37,668L678.27,642.24L614.41,629.17L569.23,641.17L570.37,665Z" style="fill-opacity:0.1;fill-rule:nonzero;"/>
    </g>
    <g transform="matrix(1,0,0,1,-70.44,-55.29)">
        <path d="M564.11,677.12C564.11,677.12 591,604.38 729.11,677.35L679.54,645.45C679.54,645.45 560.79,612.64 547.07,650.45L564.11,677.12Z" style="fill:white;fill-rule:nonzero;"/>
    </g>
    <g transform="matrix(1,0,0,1,-70.44,-55.29)">
        <path d="M564.11,677.07C564.11,677.07 591,599.3 729.11,678.47L679.54,643.87C679.54,643.87 560.75,604.63 547,645.7L564.11,677.07Z" style="fill-opacity:0.1;fill-rule:nonzero;"/>
    </g>
    <g transform="matrix(1,0,0,1,-70.44,-55.29)">
        <path d="M564.11,677.1C564.11,677.1 591,598.18 729.11,677.35L679.54,642.75C679.54,642.75 560.79,604.63 547.07,645.75L564.11,677.1Z" style="fill:white;fill-rule:nonzero;"/>
    </g>
    <g transform="matrix(1,0,0,1,-70.44,-55.29)">
        <path d="M564.11,677.12C564.11,677.12 591,589.41 729.11,678.47L679.5,639.54C679.5,639.54 560.75,599.54 547.03,645.7L564.11,677.12Z" style="fill-opacity:0.1;fill-rule:nonzero;"/>
    </g>
    <g transform="matrix(1,0,0,1,-70.44,-55.29)">
        <path d="M564.11,677.07C564.11,677.07 591,588.29 729.11,677.35L679.5,638.42C679.5,638.42 560.75,598.42 547.03,644.58L564.11,677.07Z" style="fill:white;fill-rule:nonzero;"/>
    </g>
    <g transform="matrix(1,0,0,1,-70.44,-55.29)">
        <path d="M978.45,668.71C978.45,668.71 945.3,704.22 975.14,721.47C975.14,721.47 979.04,726.17 984.61,723.71C984.61,723.71 982.73,722.04 986.5,718.82C987.833,717.665 989.025,716.355 990.05,714.92C991.44,712.982 992.164,710.644 992.11,708.26C992.056,705.876 996.45,694.17 982.66,675.88C982.66,675.88 981.41,669.76 980.35,669.09L977.83,677.62C977.83,677.62 984.16,679.23 986.54,684.05C986.54,684.05 978.2,677.5 977.39,678.87C977.23,679.15 976.26,683.46 976.26,683.46C976.26,683.46 987.26,686.3 990.7,693.86C990.7,693.86 981.81,684.73 975.88,685.09L974.8,691.67C974.8,691.67 986.57,694.11 990.8,702.57C990.8,702.57 981.18,693.34 974.64,693.13L974.45,699.74C974.45,699.74 985.88,702.34 989.37,709.4C989.37,709.4 977.18,699.87 974.51,701.26C974.51,701.26 974.7,707.35 975.51,708.94C975.51,708.94 983.67,710.94 985.33,715.28C985.33,715.28 976.51,709.77 975.75,710.61C975.75,710.61 978.12,718.47 981.42,721.82C981.42,721.82 976.18,717.23 974.54,711.04C974.54,711.04 972.32,714.91 972.88,718.71C972.88,718.71 969.61,715.09 973.99,709.13C973.99,709.13 972.39,702.93 972.79,701.95C972.79,701.95 967.64,707.22 966.32,711.95C966.32,711.95 965.32,706.03 972.78,700.24L972.78,693.58C972.78,693.58 965.6,700.19 964.12,704.28C964.12,704.28 964.02,698.08 972.93,691.91L973.93,685.44C973.93,685.44 967.31,690.66 964.68,694.86C964.68,694.86 965.82,689.08 974.28,683.6L975.45,679.36C975.45,679.36 970.69,683.26 969.45,684.5C968.21,685.74 967.74,685.5 967.74,685.5C969.688,682.147 972.526,679.399 975.94,677.56C979.354,675.721 979,668.94 978.45,668.71Z" style="fill:rgb(28,117,188);fill-opacity:0.1;fill-rule:nonzero;"/>
    </g>
    <g transform="matrix(1,0,0,1,-70.44,-55.29)">
        <path d="M1126.64,90.91C1126.64,90.91 1082.35,110.91 1103.23,138.3C1103.23,138.3 1105.02,144.15 1111.1,144.03C1111.1,144.03 1110.01,141.76 1114.73,140.24C1116.41,139.692 1118.01,138.943 1119.51,138.01C1121.54,136.759 1123.11,134.88 1123.98,132.66C1124.85,130.44 1133.42,121.34 1127.75,99.15C1127.75,99.15 1128.96,93.02 1128.24,91.99L1122.62,98.89C1122.62,98.89 1127.84,102.81 1128.18,108.18C1128.18,108.18 1123.02,98.92 1121.74,99.88C1121.48,100.07 1118.93,103.67 1118.93,103.67C1118.93,103.67 1127.93,110.53 1128.24,118.84C1128.24,118.84 1123.56,106.98 1117.94,105.02L1114.41,110.68C1114.41,110.68 1124.33,117.47 1124.99,126.91C1124.99,126.91 1119.67,114.69 1113.72,111.97L1110.99,117.97C1110.99,117.97 1120.54,124.78 1120.99,132.64C1120.99,132.64 1113.42,119.14 1110.42,119.4C1110.42,119.4 1108.25,125.08 1108.42,126.87C1108.42,126.87 1115.16,131.87 1115.04,136.51C1115.04,136.51 1109.04,128.03 1108.04,128.51C1108.04,128.51 1107.19,136.67 1108.95,141.04C1108.95,141.04 1105.88,134.78 1106.76,128.44C1106.76,128.44 1103.21,131.16 1102.27,134.88C1102.27,134.88 1100.65,130.27 1106.99,126.46C1106.99,126.46 1107.9,120.13 1108.65,119.38C1108.65,119.38 1101.86,122.25 1098.84,126.07C1098.84,126.07 1100.19,120.22 1109.32,117.76L1111.92,111.64C1111.92,111.64 1102.75,114.96 1099.8,118.16C1099.8,118.16 1102.1,112.4 1112.7,110.16L1116.11,104.58C1116.11,104.58 1107.99,106.85 1103.94,109.7C1103.94,109.7 1107.23,104.82 1117.15,103.02L1119.86,99.56C1119.86,99.56 1113.96,101.32 1112.31,101.98C1110.66,102.64 1110.31,102.25 1110.31,102.25C1113.42,99.898 1117.12,98.458 1121,98.09C1124.88,97.722 1127,91.31 1126.64,90.91Z" style="fill:rgb(28,117,188);fill-opacity:0.1;fill-rule:nonzero;"/>
    </g>
    <g transform="matrix(1,0,0,1,-70.44,-55.29)">
        <path d="M706.27,103.29C706.27,103.29 639.73,122.29 672.08,150.57C672.08,150.57 674.95,156.57 684.16,156.57C684.16,156.57 682.44,154.25 689.56,152.84C692.011,152.347 694.414,151.638 696.74,150.72C699.482,149.759 701.818,147.893 703.36,145.43C704.902,142.967 717.36,134.23 708.17,111.65C708.17,111.65 709.84,105.49 708.72,104.43L700.4,111.25C700.4,111.25 708.4,115.36 709.07,120.79C709.07,120.79 701,111.3 699.07,112.23C698.68,112.42 694.91,115.98 694.91,115.98C694.91,115.98 708.79,123.16 709.42,131.57C709.42,131.57 702.02,119.46 693.42,117.33L688.22,122.95C688.22,122.95 703.42,130.08 704.67,139.64C704.67,139.64 696.29,127.15 687.21,124.24L683.21,130.24C683.21,130.24 697.85,137.38 698.81,145.34C698.81,145.34 686.98,131.49 682.44,131.66C682.44,131.66 679.31,137.36 679.59,139.17C679.59,139.17 689.93,144.45 689.88,149.09C689.88,149.09 680.54,140.35 679,140.81C679,140.81 677.94,149.04 680.72,153.5C680.72,153.5 675.9,147.09 677.06,140.71C677.06,140.71 671.77,143.36 670.44,147.09C670.44,147.09 667.86,142.4 677.36,138.72C677.36,138.72 678.57,132.34 679.68,131.6C679.68,131.6 669.48,134.32 665.01,138.1C665.01,138.1 666.89,132.22 680.65,129.98L684.43,123.86C684.43,123.86 670.63,126.98 666.25,130.13C666.25,130.13 669.58,124.37 685.58,122.37L690.58,116.82C690.58,116.82 678.34,118.89 672.28,121.67C672.28,121.67 677.13,116.82 692.1,115.27L696.1,111.85C696.1,111.85 687.21,113.47 684.73,114.09C682.25,114.71 681.73,114.31 681.73,114.31C686.727,111.89 692.18,110.554 697.73,110.39C703.28,110.226 706.85,103.71 706.27,103.29Z" style="fill:rgb(28,117,188);fill-opacity:0.1;fill-rule:nonzero;"/>
    </g>
    <g transform="matrix(1,0,0,1,-70.44,-55.29)">
        <path d="M902.58,844.71C902.58,844.71 936.08,809.52 906.41,791.98C906.41,791.98 902.55,787.24 896.96,789.64C896.96,789.64 898.83,791.33 895.03,794.52C893.687,795.662 892.482,796.958 891.44,798.38C890.028,800.302 889.283,802.635 889.32,805.02C889.357,807.405 884.83,819.07 898.45,837.49C898.45,837.49 899.64,843.62 900.69,844.31L903.3,835.8C903.3,835.8 896.98,834.13 894.65,829.29C894.65,829.29 902.92,835.91 903.74,834.55C903.91,834.27 904.92,829.98 904.92,829.98C904.92,829.98 893.92,826.98 890.58,819.44C890.58,819.44 899.38,828.66 905.32,828.35L906.46,821.78C906.46,821.78 894.72,819.23 890.55,810.78C890.55,810.78 900.08,820.1 906.62,820.38L906.87,813.76C906.87,813.76 895.46,811 892,803.9C892,803.9 904.1,813.56 906.78,812.19C906.78,812.19 906.65,806.11 905.78,804.51C905.78,804.51 897.64,802.37 896.02,798.07C896.02,798.07 904.79,803.67 905.55,802.83C905.55,802.83 903.26,794.95 899.99,791.57C899.99,791.57 905.19,796.21 906.77,802.41C906.77,802.41 909.03,798.56 908.5,794.76C908.5,794.76 911.74,798.42 907.3,804.33C907.3,804.33 908.84,810.55 908.43,811.52C908.43,811.52 913.63,806.3 914.99,801.63C914.99,801.63 915.99,807.56 908.42,813.27L908.32,819.93C908.32,819.93 915.56,813.39 917.08,809.31C917.08,809.31 917.08,815.52 908.15,821.6L907.15,828.06C907.15,828.06 913.82,822.9 916.49,818.73C916.49,818.73 915.29,824.49 906.78,829.89L905.57,834.12C905.57,834.12 910.37,830.27 911.65,829.04C912.93,827.81 913.37,828.04 913.37,828.04C911.392,831.376 908.525,834.098 905.09,835.9C901.655,837.702 902.08,844.47 902.58,844.71Z" style="fill:rgb(28,117,188);fill-opacity:0.1;fill-rule:nonzero;"/>
    </g>
    <g transform="matrix(1,0,0,1,-70.44,-55.29)">
        <path d="M575.85,56.53C575.85,56.53 581.56,104.77 614,93.13C614,93.13 620.11,93.18 621.83,87.34C621.83,87.34 619.33,87.7 619.31,82.74C619.287,80.976 619.055,79.22 618.62,77.51C618.044,75.197 616.727,73.135 614.87,71.64C613.013,70.145 606.91,59.22 584,58C584,58 578.52,55 577.32,55.38L582.21,62.81C582.21,62.81 587.52,59.01 592.74,60.31C592.74,60.31 582.36,62.45 582.89,63.95C582.99,64.26 585.65,67.77 585.65,67.77C585.65,67.77 595,61.17 603,63.42C603,63.42 590.29,64.3 586.73,69.07L591,74.15C591,74.15 600.46,66.73 609.67,68.94C609.67,68.94 596.41,70.34 592.02,75.19L597,79.61C597,79.61 606.36,72.55 614,74.45C614,74.45 598.84,77.61 598.18,80.54C598.18,80.54 602.95,84.32 604.71,84.72C604.71,84.72 611.55,79.81 615.89,81.31C615.89,81.31 605.99,84.49 606.14,85.61C606.14,85.61 613.67,88.87 618.36,88.51C618.36,88.51 611.47,89.51 605.69,86.81C605.69,86.81 607.21,91 610.48,93.03C610.48,93.03 605.6,93.18 603.87,86.03C603.87,86.03 598.11,83.25 597.62,82.32C597.62,82.32 598.32,89.65 601.05,93.68C601.05,93.68 595.87,90.68 596.27,81.19L591.27,76.86C591.27,76.86 591.68,86.61 593.84,90.39C593.84,90.39 589.04,86.46 590.08,75.67L585.79,70.74C585.79,70.74 585.5,79.16 587,83.88C587,83.88 583.33,79.28 584.61,69.28L582.12,65.65C582.12,65.65 582.03,71.8 582.12,73.58C582.21,75.36 581.78,75.53 581.78,75.53C580.466,71.866 580.196,67.908 581,64.1C581.804,60.292 576.35,56.29 575.85,56.53Z" style="fill:rgb(28,117,188);fill-opacity:0.1;fill-rule:nonzero;"/>
    </g>
    <g transform="matrix(1,0,0,1,-70.44,-55.29)">
        <path d="M818.31,735.3C818.31,735.3 771.49,722.3 769.99,756.74C769.99,756.74 767.63,762.38 772.38,766.18C772.38,766.18 772.99,763.74 777.59,765.59C779.231,766.239 780.943,766.692 782.69,766.94C785.052,767.28 787.463,766.838 789.55,765.68C791.637,764.522 804.05,763.02 813.89,742.34C813.89,742.34 818.74,738.41 818.89,737.15L810.16,738.86C810.16,738.86 811.66,745.22 808.48,749.56C808.48,749.56 810.48,739.14 808.85,739.06C808.52,739.06 804.26,740.17 804.26,740.17C804.26,740.17 806.82,751.23 801.71,757.78C801.71,757.78 805.71,745.68 802.64,740.58L796.3,742.67C796.3,742.67 799.58,754.23 794.04,761.91C794.04,761.91 797.78,749.12 794.94,743.22L789,746.11C789,746.11 792,757.45 787.33,763.81C787.33,763.81 790.15,748.59 787.68,746.86C787.68,746.86 782.38,749.86 781.35,751.32C781.35,751.32 783.35,759.51 780.27,762.96C780.27,762.96 781.07,752.59 779.98,752.31C779.98,752.31 774.1,758.04 772.66,762.52C772.66,762.52 774.31,755.75 779.04,751.44C779.04,751.44 774.58,751.26 771.47,753.51C771.47,753.51 773.17,748.94 780.47,750.07C780.47,750.07 785.23,745.78 786.28,745.69C786.28,745.69 779.28,743.55 774.46,744.55C774.46,744.55 779.24,740.91 787.83,744.87L793.75,741.87C793.75,741.87 784.57,738.56 780.26,739.13C780.26,739.13 785.71,736.13 795.26,741.22L801.44,739.11C801.44,739.11 793.76,735.66 788.82,735.26C788.82,735.26 794.47,733.61 803.24,738.58L807.54,737.65C807.54,737.65 801.88,735.23 800.19,734.65C798.5,734.07 798.51,733.65 798.51,733.65C802.383,733.827 806.132,735.073 809.34,737.25C812.548,739.427 818.34,735.85 818.31,735.3Z" style="fill:rgb(28,117,188);fill-opacity:0.1;fill-rule:nonzero;"/>
    </g>
    <defs>
        <linearGradient id="_Linear1" x1="0" y1="0" x2="1" y2="0" gradientUnits="userSpaceOnUse" gradientTransform="matrix(2.24729e-14,-367.01,367.01,2.24729e-14,602.85,654.57)"><stop offset="0" style="stop-color:rgb(128,128,128);stop-opacity:0.247059"/><stop offset="0.54" style="stop-color:rgb(128,128,128);stop-opacity:0.117647"/><stop offset="1" style="stop-color:rgb(128,128,128);stop-opacity:0.0980392"/></linearGradient>
    </defs>
</svg>
