<?xml version="1.0" encoding="UTF-8" standalone="no"?>
<!DOCTYPE svg PUBLIC "-//W3C//DTD SVG 1.1//EN" "http://www.w3.org/Graphics/SVG/1.1/DTD/svg11.dtd">
<svg width="100%" height="100%" viewBox="0 0 1140 811" version="1.1" xmlns="http://www.w3.org/2000/svg" xmlns:xlink="http://www.w3.org/1999/xlink" xml:space="preserve" xmlns:serif="http://www.serif.com/" style="fill-rule:evenodd;clip-rule:evenodd;stroke-miterlimit:10;">
    <ellipse cx="509" cy="689.93" rx="509" ry="120.5" style="fill:rgb(28,117,188);fill-opacity:0.1;"/>
    <g transform="matrix(1,0,0,1,-30.16,-44.79)">
        <path d="M154.69,406.21C154.69,406.21 202.1,453.62 175.34,524C148.58,594.38 221.22,711.34 221.22,711.34C221.22,711.34 220.44,711.23 219,710.97C121.63,693.76 73.24,582.4 127.39,499.66C147.52,468.9 164,432.82 154.69,406.21Z" style="fill:rgb(28,117,188);fill-rule:nonzero;"/>
    </g>
    <g transform="matrix(1,0,0,1,-30.16,-44.79)">
        <path d="M154.69,406.21C154.69,406.21 181.45,464.32 154.69,511.73C127.93,559.14 150.1,692.2 221.22,711.32" style="fill:none;stroke:rgb(83,84,97);stroke-width:2px;"/>
    </g>
    <g transform="matrix(1,0,0,1,-30.16,-44.79)">
        <path d="M70.25,598C70.25,598 124.35,589.38 129.25,637.87C134.15,686.36 233.25,693.07 233.25,693.07C233.25,693.07 232.6,693.51 231.39,694.31C149.63,748 71.41,728.49 83.2,657.17C87.58,630.65 87.23,604 70.25,598Z" style="fill:rgb(28,117,188);fill-rule:nonzero;"/>
    </g>
    <g transform="matrix(1,0,0,1,-30.16,-44.79)">
        <path d="M70.25,598C70.25,598 124.35,589.38 129.25,637.87C134.15,686.36 233.25,693.07 233.25,693.07C233.25,693.07 232.6,693.51 231.39,694.31C149.63,748 71.41,728.49 83.2,657.17C87.58,630.65 87.23,604 70.25,598Z" style="fill:rgb(245,245,245);fill-opacity:0.2;fill-rule:nonzero;"/>
    </g>
    <g transform="matrix(1,0,0,1,-30.16,-44.79)">
        <path d="M70.25,598C70.25,598 112.25,607.22 108.79,645.4C105.33,683.58 171.15,729.4 233.3,693.07" style="fill:none;stroke:rgb(83,84,97);stroke-width:2px;"/>
    </g>
    <g transform="matrix(1,0,0,1,-30.16,-44.79)">
        <path d="M1168.59,405.63C1161.64,439.69 1125.96,456.77 1105.97,482.18C1068.3,530.07 1082.97,600.02 1106.87,656.04C1114.87,674.8 1123.95,694.65 1120.56,714.76C1116.43,739.36 1094.48,757.34 1071.43,766.88C1029.43,784.25 979.13,780.11 940.52,756.09C907.16,735.34 883.26,701.58 849.33,681.77C792.54,648.62 720.26,661.14 658.59,683.98C614.97,700.13 567.27,721.15 523.92,704.26C493.42,692.38 472.33,663.46 460.84,632.81C455.3,618.01 451.27,601.99 440.68,590.26C434.38,583.26 426.16,578.33 417.75,574.16C340.87,536.04 243.75,556.46 169.12,514.16C118.7,485.61 86.41,431.76 72.12,375.6C57.83,319.44 59.49,260.6 63.12,202.72C65.7,161.62 70.33,117.72 96.59,86.02C124.37,52.49 172,40 215.14,46.39C258.28,52.78 297.29,75.5 331.66,102.27C374.66,135.74 414.44,177.4 467.17,190.96C503.08,200.19 540.85,195.14 577.89,193.39C639.81,190.47 701.75,196.97 763.32,204.09C793.32,207.56 823.42,211.2 853.16,216.48C859.827,217.66 866.493,218.93 873.16,220.29C876.493,220.957 879.827,221.67 883.16,222.43C885.76,223 888.35,223.6 890.94,224.21C895.027,225.17 899.1,226.17 903.16,227.21C914.82,230.21 926.37,233.66 937.8,237.56C977.54,251.13 1009.4,275.76 1046.93,292.97C1071.39,304.19 1098.06,307.29 1121.22,321.57C1149.75,339.19 1175.9,369.81 1168.59,405.63Z" style="fill:rgb(28,117,188);fill-opacity:0.1;fill-rule:nonzero;"/>
    </g>
    <g transform="matrix(1,0,0,1,-30.16,-44.79)">
        <path d="M636.3,688.77C636.3,688.77 677.4,685.51 689.23,699.65C701.06,713.79 743.29,746.21 725.86,753.43C708.43,760.65 614.86,731.82 614.86,731.82L636.3,688.77Z" style="fill:rgb(255,185,185);fill-rule:nonzero;"/>
    </g>
    <g transform="matrix(1,0,0,1,-30.16,-44.79)">
        <path d="M467.33,196.56C466.612,186.876 459.399,178.833 449.85,177.07C443.59,176.07 436.6,177.84 431.22,174.47C428.79,172.94 427.05,170.55 425.09,168.47C417.41,160.26 405.88,156.47 394.64,156.14C383.4,155.81 372.32,158.53 361.52,161.64C339.96,167.85 317.18,176.96 305.71,196.24C288.27,225.59 304.36,265.15 290.57,296.38C284.57,310.02 273.13,321.16 269.41,335.6C264.41,354.89 274.27,374.46 281.86,392.88C288.669,409.401 293.84,426.549 297.3,444.08C300.35,459.56 302.05,475.65 298.61,491.08C297.1,497.83 294.61,504.7 295.95,511.48C297.95,521.74 307.87,528.21 316.89,533.48L319.24,534.86C332.24,542.46 345.61,550.22 360.5,552.1C369.75,553.26 379.5,551.98 387.5,547.25C395.5,542.52 401.59,534.08 402.27,524.79C403.03,514.28 397.18,504.44 395.92,493.97C395.631,492.393 395.751,490.767 396.27,489.25C397.1,487.25 399.03,485.96 400.81,484.72C426.45,466.84 440.2,433.38 434.53,402.64C430.67,381.7 418.67,360.88 424.48,340.39C427.69,329.07 435.96,319.9 440.6,309.09C445.501,297.547 446.111,284.623 442.32,272.67C439.67,264.41 434.87,256.16 436.52,247.67C439.43,232.59 459.52,227.78 467.11,214.42C472.74,204.48 469.41,190.42 459.91,184.1" style="fill:rgb(98,53,40);fill-rule:nonzero;"/>
    </g>
    <g transform="matrix(1,0,0,1,-30.16,-44.79)">
        <path d="M467.33,196.56C466.612,186.876 459.399,178.833 449.85,177.07C443.59,176.07 436.6,177.84 431.22,174.47C428.79,172.94 427.05,170.55 425.09,168.47C417.41,160.26 405.88,156.47 394.64,156.14C383.4,155.81 372.32,158.53 361.52,161.64C339.96,167.85 317.18,176.96 305.71,196.24C288.27,225.59 304.36,265.15 290.57,296.38C284.57,310.02 273.13,321.16 269.41,335.6C264.41,354.89 274.27,374.46 281.86,392.88C288.669,409.401 293.84,426.549 297.3,444.08C300.35,459.56 302.05,475.65 298.61,491.08C297.1,497.83 294.61,504.7 295.95,511.48C297.95,521.74 307.87,528.21 316.89,533.48L319.24,534.86C332.24,542.46 345.61,550.22 360.5,552.1C369.75,553.26 379.5,551.98 387.5,547.25C395.5,542.52 401.59,534.08 402.27,524.79C403.03,514.28 397.18,504.44 395.92,493.97C395.631,492.393 395.751,490.767 396.27,489.25C397.1,487.25 399.03,485.96 400.81,484.72C426.45,466.84 440.2,433.38 434.53,402.64C430.67,381.7 418.67,360.88 424.48,340.39C427.69,329.07 435.96,319.9 440.6,309.09C445.501,297.547 446.111,284.623 442.32,272.67C439.67,264.41 434.87,256.16 436.52,247.67C439.43,232.59 459.52,227.78 467.11,214.42C472.74,204.48 469.41,190.42 459.91,184.1" style="fill:rgb(98,53,40);fill-opacity:0.1;fill-rule:nonzero;"/>
    </g>
    <path d="M478.5,675.93L263.5,675.93L263.5,560.93L383.5,606.93L478.5,560.93L478.5,675.93Z" style="fill:rgb(119,123,155);fill-rule:nonzero;"/>
    <path d="M478.5,675.93L263.5,675.93L263.5,560.93L383.5,606.93L478.5,560.93L478.5,675.93Z" style="fill-opacity:0.1;fill-rule:nonzero;"/>
    <g transform="matrix(1,0,0,1,-30.16,-44.79)">
        <path d="M482.66,731.77C482.66,731.77 443.66,741.09 439.66,758.17C435.66,775.25 462.66,773.7 462.66,773.7C462.66,773.7 500.66,765.93 505.66,734.87C510.66,703.81 482.66,731.77 482.66,731.77Z" style="fill:rgb(255,185,185);fill-rule:nonzero;"/>
    </g>
    <g transform="matrix(1,0,0,1,-30.16,-44.79)">
        <path d="M482.66,731.77C482.66,731.77 443.66,741.09 439.66,758.17C435.66,775.25 462.66,773.7 462.66,773.7C462.66,773.7 500.66,765.93 505.66,734.87C510.66,703.81 482.66,731.77 482.66,731.77Z" style="fill-opacity:0.1;fill-rule:nonzero;"/>
    </g>
    <g transform="matrix(1,0,0,1,-30.16,-44.79)">
        <path d="M377.93,783.83C377.93,783.83 341.16,786.22 340.66,816.05C340.59,820.05 378.96,821.21 424.51,796.72C470.06,772.23 473.16,769.65 473.16,769.65C473.16,769.65 455.56,741.29 443.16,737.43C430.76,733.57 377.93,783.83 377.93,783.83Z" style="fill:rgb(203,205,218);fill-rule:nonzero;"/>
    </g>
    <g transform="matrix(1,0,0,1,-30.16,-44.79)">
        <path d="M162.66,669.71C162.66,669.71 120.66,704.71 198.66,753.71C276.66,802.71 351.66,793.71 351.66,793.71C351.66,793.71 433.02,784.08 445.34,745.89C457.66,707.7 384.66,675.71 384.66,675.71C384.66,675.71 304.66,675.71 268.66,652.71C232.66,629.71 162.66,669.71 162.66,669.71Z" style="fill:rgb(119,123,155);fill-rule:nonzero;"/>
    </g>
    <g transform="matrix(1,0,0,1,-30.16,-44.79)">
        <path d="M389.66,609.71C389.66,609.71 425.66,630.71 474.66,609.71C512.36,593.55 595.06,599.89 631.19,603.71C648.13,605.48 662.64,617.15 667.27,633.54C671.05,646.91 668.27,663.34 645.65,678.74C595.65,712.74 560.65,722.74 547.65,736.74C534.65,750.74 497.65,757.74 497.65,757.74C497.65,757.74 450.65,750.74 450.65,740.74C450.65,730.74 493.65,681.74 493.65,681.74C493.65,681.74 430.65,739.74 365.65,661.74C300.65,583.74 389.66,609.71 389.66,609.71Z" style="fill:rgb(119,123,155);fill-rule:nonzero;"/>
    </g>
    <g transform="matrix(1,0,0,1,-30.16,-44.79)">
        <path d="M371.66,468.71L244.66,381.71C244.66,381.71 305.58,340.4 310.81,303.48C311.998,296.284 310.522,288.897 306.66,282.71C281.66,242.71 394.66,282.71 394.66,282.71C395.39,293.126 396.81,303.482 398.91,313.71C403.82,338.06 414.18,370.49 435.66,386.71C472.66,414.71 371.66,468.71 371.66,468.71Z" style="fill:rgb(247,196,167);fill-rule:nonzero;"/>
    </g>
    <g transform="matrix(1,0,0,1,-30.16,-44.79)">
        <path d="M398.91,313.67C370.613,330.128 334.603,325.963 310.81,303.48C311.998,296.284 310.522,288.897 306.66,282.71C281.66,242.71 394.66,282.71 394.66,282.71C395.392,293.112 396.812,303.455 398.91,313.67Z" style="fill-opacity:0.1;fill-rule:nonzero;"/>
    </g>
    <circle cx="331.5" cy="202.93" r="74" style="fill:rgb(247,196,167);"/>
    <g transform="matrix(1,0,0,1,-30.16,-44.79)">
        <path d="M407.66,345.71C407.66,345.71 392.66,433.71 367.66,428.71C342.66,423.71 264.66,335.71 264.66,335.71C264.66,335.71 183.66,362.71 196.66,428.71C209.66,494.71 222.66,550.71 195.66,571.71C168.66,592.71 151.66,690.71 151.66,690.71C151.66,690.71 237.66,654.71 282.66,668.71C327.66,682.71 373.66,675.71 384.66,662.71C395.66,649.71 411.66,621.71 411.66,621.71C411.66,621.71 388.66,587.71 399.66,570.71C410.66,553.71 424.66,552.71 432.66,504.71C440.66,456.71 503.66,439.71 491.66,412.71C479.66,385.71 456.66,345.71 407.66,345.71Z" style="fill-opacity:0.1;fill-rule:nonzero;"/>
    </g>
    <g transform="matrix(1,0,0,1,-30.16,-44.79)">
        <path d="M407.66,341.71C407.66,341.71 392.66,429.71 367.66,424.71C342.66,419.71 264.66,331.71 264.66,331.71C264.66,331.71 183.66,358.71 196.66,424.71C209.66,490.71 222.66,546.71 195.66,567.71C168.66,588.71 151.66,686.71 151.66,686.71C151.66,686.71 237.66,650.71 282.66,664.71C327.66,678.71 373.66,671.71 384.66,658.71C395.66,645.71 411.66,617.71 411.66,617.71C411.66,617.71 388.66,583.71 399.66,566.71C410.66,549.71 424.66,548.71 432.66,500.71C440.66,452.71 503.66,435.71 491.66,408.71C479.66,381.71 456.66,341.71 407.66,341.71Z" style="fill:rgb(203,205,218);fill-rule:nonzero;"/>
    </g>
    <g transform="matrix(1,0,0,1,-30.16,-44.79)">
        <path d="M467.66,702.71C467.66,702.71 507.66,692.71 521.66,704.71C535.66,716.71 582.66,741.71 566.66,751.71C550.66,761.71 453.66,748.71 453.66,748.71L467.66,702.71Z" style="fill:rgb(247,196,167);fill-rule:nonzero;"/>
    </g>
    <g>
        <g opacity="0.05">
            <g transform="matrix(1,0,0,1,-30.16,-44.79)">
                <path d="M357.66,424.71C359.997,425.151 362.416,424.799 364.53,423.71C336.75,412.99 264.66,331.71 264.66,331.71C264.66,331.71 261.82,332.66 257.28,334.63C271.06,349.94 335.39,420.26 357.66,424.71Z" style="fill-rule:nonzero;"/>
            </g>
            <g transform="matrix(1,0,0,1,-30.16,-44.79)">
                <path d="M481.66,408.71C509.24,398.1 430.66,452.71 422.66,500.71C414.66,548.71 400.66,549.71 389.66,566.71C378.66,583.71 401.66,617.71 401.66,617.71C401.66,617.71 385.66,645.71 374.66,658.71C368.36,666.16 350.57,671.62 328.07,672.31C355.21,673.17 377.45,667.22 384.66,658.71C395.66,645.71 411.66,617.71 411.66,617.71C411.66,617.71 388.66,583.71 399.66,566.71C410.66,549.71 424.66,548.71 432.66,500.71C440.66,452.71 475.16,411.21 481.66,408.71Z" style="fill-rule:nonzero;"/>
            </g>
            <g transform="matrix(1,0,0,1,-30.16,-44.79)">
                <path d="M152.43,682.54C151.92,685.21 151.66,686.72 151.66,686.72C151.66,686.72 207.58,663.31 252.84,661.59C217.91,660.14 172.77,675 152.43,682.54Z" style="fill-rule:nonzero;"/>
            </g>
        </g>
    </g>
    <g transform="matrix(1,0,0,1,-30.16,-44.79)">
        <path d="M484.66,403.71C484.66,403.71 493.66,404.71 502.66,451.71C511.66,498.71 546.66,543.71 546.66,543.71C560.494,562.218 571.296,582.809 578.66,604.71C590.66,640.71 644.16,688.21 663.16,690.21C663.16,690.21 626.66,726.71 630.66,736.71C634.66,746.71 626.66,736.71 626.66,736.71C626.66,736.71 576.66,717.71 565.66,686.71C554.66,655.71 506.66,605.71 506.66,605.71C506.66,605.71 442.66,481.71 439.66,461.71C436.66,441.71 484.66,403.71 484.66,403.71Z" style="fill:rgb(203,205,218);fill-rule:nonzero;"/>
    </g>
    <g transform="matrix(1,0,0,1,-30.16,-44.79)">
        <path d="M209.16,572.21C209.16,572.21 286.16,581.21 303.16,605.21C320.16,629.21 398.91,591.27 398.91,591.27" style="fill-opacity:0.1;fill-rule:nonzero;"/>
    </g>
    <g transform="matrix(1,0,0,1,-30.16,-44.79)">
        <path d="M284.66,435.71C284.66,435.71 317.66,556.71 329.66,571.71C341.66,586.71 434.66,709.71 478.66,701.71C478.66,701.71 465.66,757.71 456.66,759.71C456.66,759.71 365.66,669.71 334.66,670.71C334.66,670.71 277.66,623.71 271.66,600.71C265.66,577.71 217.66,502.71 217.66,502.71C217.66,502.71 193.66,449.71 203.66,426.71C213.66,403.71 266.66,413.71 284.66,435.71Z" style="fill-opacity:0.1;fill-rule:nonzero;"/>
    </g>
    <g transform="matrix(1,0,0,1,-30.16,-44.79)">
        <path d="M285.66,433.71C285.66,433.71 318.66,554.71 330.66,569.71C342.66,584.71 435.66,707.71 479.66,699.71C479.66,699.71 466.66,755.71 457.66,757.71C457.66,757.71 366.66,667.71 335.66,668.71C335.66,668.71 278.66,621.71 272.66,598.71C266.66,575.71 218.66,500.71 218.66,500.71C218.66,500.71 194.66,447.71 204.66,424.71C214.66,401.71 267.66,411.71 285.66,433.71Z" style="fill:rgb(203,205,218);fill-rule:nonzero;"/>
    </g>
    <g transform="matrix(1,0,0,1,-30.16,-44.79)">
        <path d="M415.33,177.56C414.612,167.876 407.399,159.833 397.85,158.07C391.59,157.07 384.6,158.84 379.22,155.47C376.79,153.94 375.05,151.55 373.09,149.47C365.41,141.26 353.88,137.47 342.64,137.14C331.4,136.81 320.32,139.53 309.52,142.64C287.96,148.85 265.18,157.96 253.71,177.24C236.27,206.59 252.36,246.15 238.57,277.38C232.57,291.02 221.13,302.16 217.41,316.6C212.41,335.89 222.27,355.46 229.86,373.88C236.669,390.401 241.84,407.549 245.3,425.08C248.35,440.56 250.05,456.65 246.61,472.08C245.1,478.83 242.61,485.7 243.95,492.48C245.95,502.74 255.87,509.21 264.89,514.48L267.24,515.86C280.24,523.46 293.61,531.22 308.5,533.1C317.75,534.26 327.5,532.98 335.5,528.25C343.5,523.52 349.59,515.08 350.27,505.79C351.03,495.28 345.18,485.44 343.92,474.97C343.631,473.393 343.751,471.767 344.27,470.25C345.1,468.25 347.03,466.96 348.81,465.72C374.45,447.84 388.2,414.38 382.53,383.64C378.67,362.7 366.67,341.88 372.48,321.39C375.69,310.07 383.96,300.9 388.6,290.09C393.501,278.547 394.111,265.623 390.32,253.67C387.67,245.41 382.87,237.16 384.52,228.67C387.43,213.59 407.52,208.78 415.11,195.42C420.74,185.48 417.41,171.42 407.91,165.1" style="fill-opacity:0.1;fill-rule:nonzero;"/>
    </g>
    <g transform="matrix(1,0,0,1,-30.16,-44.79)">
        <path d="M413.33,176.56C412.612,166.876 405.399,158.833 395.85,157.07C389.59,156.07 382.6,157.84 377.22,154.47C374.79,152.94 373.05,150.55 371.09,148.47C363.41,140.26 351.88,136.47 340.64,136.14C329.4,135.81 318.32,138.53 307.52,141.64C285.96,147.85 263.18,156.96 251.71,176.24C234.27,205.59 250.36,245.15 236.57,276.38C230.57,290.02 219.13,301.16 215.41,315.6C210.41,334.89 220.27,354.46 227.86,372.88C234.669,389.401 239.84,406.549 243.3,424.08C246.35,439.56 248.05,455.65 244.61,471.08C243.1,477.83 240.61,484.7 241.95,491.48C243.95,501.74 253.87,508.21 262.89,513.48L265.24,514.86C278.24,522.46 291.61,530.22 306.5,532.1C315.75,533.26 325.5,531.98 333.5,527.25C341.5,522.52 347.59,514.08 348.27,504.79C349.03,494.28 343.18,484.44 341.92,473.97C341.631,472.393 341.751,470.767 342.27,469.25C343.1,467.25 345.03,465.96 346.81,464.72C372.45,446.84 386.2,413.38 380.53,382.64C376.67,361.7 364.67,340.88 370.48,320.39C373.69,309.07 381.96,299.9 386.6,289.09C391.501,277.547 392.111,264.623 388.32,252.67C385.67,244.41 380.87,236.16 382.52,227.67C385.43,212.59 405.52,207.78 413.11,194.42C418.74,184.48 415.41,170.42 405.91,164.1" style="fill:rgb(98,53,40);fill-rule:nonzero;"/>
    </g>
    <g transform="matrix(1,0,0,1,-30.16,-44.79)">
        <path d="M481.36,812C483.193,810.506 484.528,808.49 485.19,806.22C485.69,803.92 484.71,801.17 482.51,800.33C480.05,799.39 477.42,801.09 475.43,802.82C473.44,804.55 471.15,806.51 468.54,806.14C471.266,803.669 472.498,799.938 471.78,796.33C471.667,795.594 471.356,794.903 470.88,794.33C469.51,792.87 467.04,793.5 465.4,794.65C460.2,798.31 458.75,805.37 458.72,811.73C458.2,809.44 458.64,807.05 458.62,804.73C458.6,802.41 457.96,799.73 455.98,798.51C454.752,797.85 453.373,797.523 451.98,797.56C449.64,797.47 447.04,797.71 445.44,799.42C443.44,801.54 443.97,805.11 445.7,807.42C447.43,809.73 450.05,811.22 452.47,812.84C454.409,813.993 456.064,815.569 457.31,817.45C457.457,817.711 457.577,817.986 457.67,818.27L472.3,818.27C475.589,816.599 478.637,814.49 481.36,812Z" style="fill:rgb(28,117,188);fill-rule:nonzero;"/>
    </g>
    <rect x="585" y="227.43" width="318" height="22" style="fill:rgb(28,117,188);fill-opacity:0.1;"/>
    <rect x="585" y="322.43" width="318" height="22" style="fill:rgb(28,117,188);fill-opacity:0.1;"/>
    <rect x="585" y="421.43" width="318" height="22" style="fill:rgb(28,117,188);fill-opacity:0.1;"/>
    <rect x="613" y="170.43" width="20" height="57" style="fill:rgb(28,117,188);fill-opacity:0.1;"/>
    <rect x="613" y="179.43" width="20" height="4" style="fill:rgb(28,117,188);fill-opacity:0.1;"/>
    <rect x="613" y="210.43" width="20" height="4" style="fill:rgb(28,117,188);fill-opacity:0.1;"/>
    <rect x="643" y="170.43" width="20" height="57" style="fill:rgb(28,117,188);fill-opacity:0.1;"/>
    <rect x="643" y="179.43" width="20" height="4" style="fill:rgb(28,117,188);fill-opacity:0.1;"/>
    <rect x="643" y="210.43" width="20" height="4" style="fill:rgb(28,117,188);fill-opacity:0.1;"/>
    <rect x="673" y="170.43" width="20" height="57" style="fill:rgb(28,117,188);fill-opacity:0.1;"/>
    <rect x="673" y="179.43" width="20" height="4" style="fill:rgb(28,117,188);fill-opacity:0.1;"/>
    <rect x="673" y="210.43" width="20" height="4" style="fill:rgb(28,117,188);fill-opacity:0.1;"/>
    <rect x="703" y="170.43" width="20" height="57" style="fill:rgb(28,117,188);fill-opacity:0.1;"/>
    <rect x="703" y="179.43" width="20" height="4" style="fill:rgb(28,117,188);fill-opacity:0.1;"/>
    <rect x="703" y="210.43" width="20" height="4" style="fill:rgb(28,117,188);fill-opacity:0.1;"/>
    <rect x="733" y="170.43" width="20" height="57" style="fill:rgb(28,117,188);fill-opacity:0.1;"/>
    <rect x="733" y="179.43" width="20" height="4" style="fill:rgb(28,117,188);fill-opacity:0.1;"/>
    <rect x="733" y="210.43" width="20" height="4" style="fill:rgb(28,117,188);fill-opacity:0.1;"/>
    <rect x="763" y="170.43" width="20" height="57" style="fill:rgb(28,117,188);fill-opacity:0.1;"/>
    <rect x="763" y="179.43" width="20" height="4" style="fill:rgb(28,117,188);fill-opacity:0.1;"/>
    <rect x="763" y="210.43" width="20" height="4" style="fill:rgb(28,117,188);fill-opacity:0.1;"/>
    <rect x="793" y="170.43" width="20" height="57" style="fill:rgb(28,117,188);fill-opacity:0.1;"/>
    <rect x="793" y="179.43" width="20" height="4" style="fill:rgb(28,117,188);fill-opacity:0.1;"/>
    <rect x="793" y="210.43" width="20" height="4" style="fill:rgb(28,117,188);fill-opacity:0.1;"/>
    <g transform="matrix(0.89392,-0.448227,0.448227,0.89392,-137.76,375.95)">
        <rect x="825.16" y="409.21" width="20" height="57" style="fill:rgb(28,117,188);fill-opacity:0.1;"/>
    </g>
    <g transform="matrix(0.89392,-0.448227,0.448227,0.89392,-131.58,370.77)">
        <rect x="817.32" y="420.07" width="20" height="4" style="fill:rgb(28,117,188);fill-opacity:0.1;"/>
    </g>
    <g transform="matrix(0.89392,-0.448227,0.448227,0.89392,-142.53,379.94)">
        <rect x="831.21" y="447.78" width="20" height="4" style="fill:rgb(28,117,188);fill-opacity:0.1;"/>
    </g>
    <rect x="613" y="266.43" width="20" height="57" style="fill:rgb(28,117,188);fill-opacity:0.1;"/>
    <rect x="613" y="275.43" width="20" height="4" style="fill:rgb(28,117,188);fill-opacity:0.1;"/>
    <rect x="613" y="306.43" width="20" height="4" style="fill:rgb(28,117,188);fill-opacity:0.1;"/>
    <rect x="643" y="266.43" width="20" height="57" style="fill:rgb(28,117,188);fill-opacity:0.1;"/>
    <rect x="643" y="275.43" width="20" height="4" style="fill:rgb(28,117,188);fill-opacity:0.1;"/>
    <rect x="643" y="306.43" width="20" height="4" style="fill:rgb(28,117,188);fill-opacity:0.1;"/>
    <rect x="673" y="266.43" width="20" height="57" style="fill:rgb(28,117,188);fill-opacity:0.1;"/>
    <rect x="673" y="275.43" width="20" height="4" style="fill:rgb(28,117,188);fill-opacity:0.1;"/>
    <rect x="673" y="306.43" width="20" height="4" style="fill:rgb(28,117,188);fill-opacity:0.1;"/>
    <rect x="798" y="266.43" width="20" height="57" style="fill:rgb(28,117,188);fill-opacity:0.1;"/>
    <rect x="798" y="275.43" width="20" height="4" style="fill:rgb(28,117,188);fill-opacity:0.1;"/>
    <rect x="798" y="306.43" width="20" height="4" style="fill:rgb(28,117,188);fill-opacity:0.1;"/>
    <rect x="828" y="266.43" width="20" height="57" style="fill:rgb(28,117,188);fill-opacity:0.1;"/>
    <rect x="828" y="275.43" width="20" height="4" style="fill:rgb(28,117,188);fill-opacity:0.1;"/>
    <rect x="828" y="306.43" width="20" height="4" style="fill:rgb(28,117,188);fill-opacity:0.1;"/>
    <rect x="858" y="266.43" width="20" height="57" style="fill:rgb(28,117,188);fill-opacity:0.1;"/>
    <rect x="858" y="275.43" width="20" height="4" style="fill:rgb(28,117,188);fill-opacity:0.1;"/>
    <rect x="858" y="306.43" width="20" height="4" style="fill:rgb(28,117,188);fill-opacity:0.1;"/>
    <rect x="613" y="364.43" width="20" height="57" style="fill:rgb(28,117,188);fill-opacity:0.1;"/>
    <rect x="613" y="373.43" width="20" height="4" style="fill:rgb(28,117,188);fill-opacity:0.1;"/>
    <rect x="613" y="404.43" width="20" height="4" style="fill:rgb(28,117,188);fill-opacity:0.1;"/>
    <rect x="643" y="364.43" width="20" height="57" style="fill:rgb(28,117,188);fill-opacity:0.1;"/>
    <rect x="643" y="373.43" width="20" height="4" style="fill:rgb(28,117,188);fill-opacity:0.1;"/>
    <rect x="643" y="404.43" width="20" height="4" style="fill:rgb(28,117,188);fill-opacity:0.1;"/>
    <rect x="673" y="364.43" width="20" height="57" style="fill:rgb(28,117,188);fill-opacity:0.1;"/>
    <rect x="673" y="373.43" width="20" height="4" style="fill:rgb(28,117,188);fill-opacity:0.1;"/>
    <rect x="673" y="404.43" width="20" height="4" style="fill:rgb(28,117,188);fill-opacity:0.1;"/>
    <rect x="703" y="364.43" width="20" height="57" style="fill:rgb(28,117,188);fill-opacity:0.1;"/>
    <rect x="703" y="373.43" width="20" height="4" style="fill:rgb(28,117,188);fill-opacity:0.1;"/>
    <rect x="703" y="404.43" width="20" height="4" style="fill:rgb(28,117,188);fill-opacity:0.1;"/>
    <rect x="733" y="364.43" width="20" height="57" style="fill:rgb(28,117,188);fill-opacity:0.1;"/>
    <rect x="733" y="373.43" width="20" height="4" style="fill:rgb(28,117,188);fill-opacity:0.1;"/>
    <rect x="733" y="404.43" width="20" height="4" style="fill:rgb(28,117,188);fill-opacity:0.1;"/>
    <rect x="763" y="364.43" width="20" height="57" style="fill:rgb(28,117,188);fill-opacity:0.1;"/>
    <rect x="763" y="373.43" width="20" height="4" style="fill:rgb(28,117,188);fill-opacity:0.1;"/>
    <rect x="763" y="404.43" width="20" height="4" style="fill:rgb(28,117,188);fill-opacity:0.1;"/>
    <g transform="matrix(1,0,0,1,-30.16,-44.79)">
        <path d="M873.16,220.29L873.16,272.21L853.16,272.21L853.16,216.48C859.853,217.66 866.52,218.93 873.16,220.29Z" style="fill:rgb(28,117,188);fill-opacity:0.1;fill-rule:nonzero;"/>
    </g>
    <rect x="823" y="179.43" width="20" height="4" style="fill:rgb(28,117,188);fill-opacity:0.1;"/>
    <rect x="823" y="210.43" width="20" height="4" style="fill:rgb(28,117,188);fill-opacity:0.1;"/>
    <g transform="matrix(1,0,0,1,-30.16,-44.79)">
        <path d="M903.16,227.23L903.16,272.23L883.16,272.23L883.16,222.43C885.76,223 888.35,223.6 890.94,224.21C895.033,225.17 899.107,226.177 903.16,227.23Z" style="fill:rgb(28,117,188);fill-opacity:0.1;fill-rule:nonzero;"/>
    </g>
    <g transform="matrix(1,0,0,1,-30.16,-44.79)">
        <path d="M903.16,227.23L903.16,228.23L883.16,228.23L883.16,224.23L890.94,224.23C895.033,225.177 899.107,226.177 903.16,227.23Z" style="fill:rgb(28,117,188);fill-opacity:0.1;fill-rule:nonzero;"/>
    </g>
    <rect x="853" y="210.43" width="20" height="4" style="fill:rgb(28,117,188);fill-opacity:0.1;"/>
    <circle cx="146.7" cy="161.75" r="37.33" style="fill:rgb(28,117,188);fill-opacity:0.1;"/>
    <circle cx="146.7" cy="161.75" r="31.68" style="fill:rgb(28,117,188);fill-opacity:0.1;"/>
    <circle cx="146.7" cy="161.75" r="2.26" style="fill:rgb(28,117,188);fill-opacity:0.1;"/>
    <path d="M160.28,138L147.82,159.8" style="fill:none;stroke:rgb(28,117,188);stroke-opacity:0.1;stroke-width:1px;"/>
    <path d="M160.84,169.11L148.74,162.74" style="fill:none;stroke:rgb(28,117,188);stroke-opacity:0.1;stroke-width:1px;"/>
    <path d="M585.69,721.98C585.69,718.393 582.777,715.48 579.19,715.48L474.76,715.48C471.173,715.48 468.26,718.393 468.26,721.98L468.26,725.57C468.26,729.157 471.173,732.07 474.76,732.07L579.19,732.07C582.777,732.07 585.69,729.157 585.69,725.57L585.69,721.98Z" style="fill:rgb(83,84,97);"/>
    <path d="M831.58,558.71C831.58,543.135 818.935,530.49 803.36,530.49L567.95,530.49C552.375,530.49 539.73,543.135 539.73,558.71L539.73,704.07C539.73,719.645 552.375,732.29 567.95,732.29L803.36,732.29C818.935,732.29 831.58,719.645 831.58,704.07L831.58,558.71Z" style="fill:url(#_Linear1);"/>
    <path d="M821.41,561.05C821.41,546.237 809.383,534.21 794.57,534.21L571.78,534.21C556.967,534.21 544.94,546.237 544.94,561.05L544.94,705.44C544.94,720.253 556.967,732.28 571.78,732.28L794.57,732.28C809.383,732.28 821.41,720.253 821.41,705.44L821.41,561.05Z" style="fill:rgb(62,63,73);"/>
    <path d="M825.24,561.05C825.24,546.237 813.213,534.21 798.4,534.21L575.61,534.21C560.797,534.21 548.77,546.237 548.77,561.05L548.77,705.44C548.77,720.253 560.797,732.28 575.61,732.28L798.4,732.28C813.213,732.28 825.24,720.253 825.24,705.44L825.24,561.05Z" style="fill:rgb(83,84,97);"/>
    <circle cx="699.92" cy="631.88" r="8.93" style="fill:rgb(224,224,224);"/>
    <g transform="matrix(1,0,0,1,-30.16,-44.79)">
        <path d="M252.72,765.12C252.72,765.12 236.84,759.74 229.2,773.73C225.108,781.431 225.236,790.715 229.54,798.3C234.54,807.37 244.9,819.15 264.54,818.1C281.16,817.21 286.69,804.53 288.19,792.73C288.335,791.616 288.407,790.494 288.407,789.371C288.407,775.075 276.643,763.311 262.347,763.311C259.359,763.311 256.394,763.825 253.58,764.83L252.72,765.12Z" style="fill:rgb(28,117,188);fill-rule:nonzero;"/>
    </g>
    <g transform="matrix(1,0,0,1,-30.16,-44.79)">
        <path d="M232.9,799.56C228.596,791.975 228.468,782.691 232.56,774.99C240.2,760.99 256.08,766.38 256.08,766.38L256.89,766.09C262.943,763.9 269.602,764.05 275.55,766.51C268.905,762.554 260.823,761.782 253.55,764.41L252.74,764.7C252.74,764.7 236.86,759.32 229.22,773.31C225.128,781.011 225.256,790.295 229.56,797.88C232.87,803.88 238.48,810.99 247.56,814.88C241.364,811.211 236.292,805.911 232.9,799.56Z" style="fill:white;fill-opacity:0.1;fill-rule:nonzero;"/>
    </g>
    <g transform="matrix(1,0,0,1,-30.16,-44.79)">
        <path d="M244.52,771.85C244.52,771.85 250.41,776.48 264.7,771.85" style="fill-opacity:0.2;fill-rule:nonzero;"/>
    </g>
    <g transform="matrix(1,0,0,1,-30.16,-44.79)">
        <path d="M243.26,738.21C243.26,738.21 253.35,765.54 252.51,772.69L260.51,771.85C260.51,771.85 247.05,747.85 250.42,738.21L243.26,738.21Z" style="fill:rgb(28,117,188);fill-rule:nonzero;"/>
    </g>
    <g transform="matrix(1,0,0,1,-30.16,-44.79)">
        <path d="M243.26,738.21C243.26,738.21 253.35,765.54 252.51,772.69L260.51,771.85C260.51,771.85 247.05,747.85 250.42,738.21L243.26,738.21Z" style="fill-opacity:0.2;fill-rule:nonzero;"/>
    </g>
    <g transform="matrix(1,0,0,1,-30.16,-44.79)">
        <path d="M284.45,740.5C284.45,740.5 268.57,732.38 261.45,739.09C254.33,745.8 253.25,762.95 253.25,762.95C253.25,762.95 279.16,766.51 284.45,740.5Z" style="fill:rgb(28,117,188);fill-rule:nonzero;"/>
    </g>
    <g transform="matrix(1,0,0,1,-30.16,-44.79)">
        <path d="M284.45,740.5C284.45,740.5 268.57,732.38 261.45,739.09C254.33,745.8 253.25,762.95 253.25,762.95C253.25,762.95 279.16,766.51 284.45,740.5Z" style="fill:white;fill-opacity:0.1;fill-rule:nonzero;"/>
    </g>
    <g transform="matrix(1,0,0,1,-30.16,-44.79)">
        <path d="M253.26,762.95C253.26,762.95 257.43,743.04 284.45,740.5" style="fill:none;stroke:rgb(28,117,188);stroke-width:1px;"/>
    </g>
    <g>
        <g opacity="0.1">
            <g transform="matrix(1,0,0,1,-30.16,-44.79)">
                <path d="M763.55,347.49C763.55,347.49 757.49,345.43 754.55,350.78C752.989,353.72 753.038,357.264 754.68,360.16C756.6,363.62 760.55,368.16 768.03,367.72C774.38,367.38 776.49,362.54 777.03,358.03C777.08,357.626 777.104,357.219 777.104,356.812C777.104,351.326 772.59,346.812 767.104,346.812C765.983,346.812 764.869,347 763.81,347.37L763.55,347.49Z" style="fill:rgb(28,117,188);fill-rule:nonzero;"/>
            </g>
            <g transform="matrix(1,0,0,1,-30.16,-44.79)">
                <path d="M756,360.65C754.358,357.754 754.309,354.21 755.87,351.27C758.79,345.93 764.87,347.98 764.87,347.98L765.18,347.87C767.493,347.033 770.037,347.09 772.31,348.03C769.77,346.517 766.68,346.223 763.9,347.23L763.59,347.34C763.59,347.34 757.53,345.28 754.59,350.63C753.029,353.57 753.078,357.114 754.72,360.01C756.222,362.874 758.637,365.159 761.58,366.5C759.22,365.098 757.289,363.074 756,360.65Z" style="fill:rgb(28,117,188);fill-opacity:0.1;fill-rule:nonzero;"/>
            </g>
            <g transform="matrix(1,0,0,1,-30.16,-44.79)">
                <path d="M760.42,350.06C760.42,350.06 762.67,351.83 768.13,350.06" style="fill:rgb(28,117,188);fill-opacity:0.2;fill-rule:nonzero;"/>
            </g>
            <g transform="matrix(1,0,0,1,-30.16,-44.79)">
                <path d="M759.93,337.21C759.93,337.21 763.78,347.65 763.46,350.38L766.51,350.06C766.51,350.06 761.37,340.91 762.66,337.21L759.93,337.21Z" style="fill:rgb(28,117,188);fill-rule:nonzero;"/>
            </g>
            <g transform="matrix(1,0,0,1,-30.16,-44.79)">
                <path d="M759.93,337.21C759.93,337.21 763.78,347.65 763.46,350.38L766.51,350.06C766.51,350.06 761.37,340.91 762.66,337.21L759.93,337.21Z" style="fill:rgb(28,117,188);fill-opacity:0.2;fill-rule:nonzero;"/>
            </g>
            <g transform="matrix(1,0,0,1,-30.16,-44.79)">
                <path d="M775.67,338.09C775.67,338.09 769.6,334.99 766.89,337.55C764.18,340.11 763.76,346.66 763.76,346.66C763.76,346.66 773.65,348 775.67,338.09Z" style="fill:rgb(28,117,188);fill-rule:nonzero;"/>
            </g>
            <g transform="matrix(1,0,0,1,-30.16,-44.79)">
                <path d="M775.67,338.09C775.67,338.09 769.6,334.99 766.89,337.55C764.18,340.11 763.76,346.66 763.76,346.66C763.76,346.66 773.65,348 775.67,338.09Z" style="fill:rgb(28,117,188);fill-opacity:0.1;fill-rule:nonzero;"/>
            </g>
            <g transform="matrix(1,0,0,1,-30.16,-44.79)">
                <path d="M763.75,346.66C763.75,346.66 765.34,339.06 775.66,338.08" style="fill:rgb(28,117,188);fill-rule:nonzero;"/>
            </g>
        </g>
    </g>
    <g>
        <g opacity="0.1">
            <g transform="matrix(1,0,0,1,-30.16,-44.79)">
                <path d="M891.55,446.49C891.55,446.49 885.49,444.43 882.55,449.78C880.989,452.72 881.038,456.264 882.68,459.16C884.6,462.62 888.55,467.16 896.03,466.72C902.38,466.38 904.49,461.54 905.03,457.03C905.08,456.626 905.104,456.219 905.104,455.812C905.104,450.326 900.59,445.812 895.104,445.812C893.983,445.812 892.869,446 891.81,446.37L891.55,446.49Z" style="fill:rgb(28,117,188);fill-rule:nonzero;"/>
            </g>
            <g transform="matrix(1,0,0,1,-30.16,-44.79)">
                <path d="M884,459.65C882.358,456.754 882.309,453.21 883.87,450.27C886.79,444.93 892.87,446.98 892.87,446.98L893.18,446.87C895.493,446.033 898.037,446.09 900.31,447.03C897.77,445.517 894.68,445.223 891.9,446.23L891.59,446.34C891.59,446.34 885.53,444.28 882.59,449.63C881.029,452.57 881.078,456.114 882.72,459.01C884.222,461.874 886.637,464.159 889.58,465.5C887.22,464.098 885.289,462.074 884,459.65Z" style="fill:rgb(28,117,188);fill-opacity:0.1;fill-rule:nonzero;"/>
            </g>
            <g transform="matrix(1,0,0,1,-30.16,-44.79)">
                <path d="M888.42,449.06C888.42,449.06 890.67,450.83 896.13,449.06" style="fill:rgb(28,117,188);fill-opacity:0.2;fill-rule:nonzero;"/>
            </g>
            <g transform="matrix(1,0,0,1,-30.16,-44.79)">
                <path d="M887.93,436.21C887.93,436.21 891.78,446.65 891.46,449.38L894.51,449.06C894.51,449.06 889.37,439.91 890.66,436.21L887.93,436.21Z" style="fill:rgb(28,117,188);fill-rule:nonzero;"/>
            </g>
            <g transform="matrix(1,0,0,1,-30.16,-44.79)">
                <path d="M887.93,436.21C887.93,436.21 891.78,446.65 891.46,449.38L894.51,449.06C894.51,449.06 889.37,439.91 890.66,436.21L887.93,436.21Z" style="fill:rgb(28,117,188);fill-opacity:0.2;fill-rule:nonzero;"/>
            </g>
            <g transform="matrix(1,0,0,1,-30.16,-44.79)">
                <path d="M903.67,437.09C903.67,437.09 897.6,433.99 894.89,436.55C892.18,439.11 891.76,445.66 891.76,445.66C891.76,445.66 901.65,447 903.67,437.09Z" style="fill:rgb(28,117,188);fill-rule:nonzero;"/>
            </g>
            <g transform="matrix(1,0,0,1,-30.16,-44.79)">
                <path d="M903.67,437.09C903.67,437.09 897.6,433.99 894.89,436.55C892.18,439.11 891.76,445.66 891.76,445.66C891.76,445.66 901.65,447 903.67,437.09Z" style="fill:rgb(28,117,188);fill-opacity:0.1;fill-rule:nonzero;"/>
            </g>
            <g transform="matrix(1,0,0,1,-30.16,-44.79)">
                <path d="M891.75,445.66C891.75,445.66 893.34,438.06 903.66,437.08" style="fill:rgb(28,117,188);fill-rule:nonzero;"/>
            </g>
        </g>
    </g>
    <defs>
        <linearGradient id="_Linear1" x1="0" y1="0" x2="1" y2="0" gradientUnits="userSpaceOnUse" gradientTransform="matrix(1.23561e-14,-201.79,201.79,1.23561e-14,685.66,732.28)"><stop offset="0" style="stop-color:rgb(128,128,128);stop-opacity:0.172941"/><stop offset="0.54" style="stop-color:rgb(128,128,128);stop-opacity:0.0823529"/><stop offset="1" style="stop-color:rgb(128,128,128);stop-opacity:0.0686275"/></linearGradient>
    </defs>
</svg>
