<?xml version="1.0" encoding="UTF-8" standalone="no"?>
<!DOCTYPE svg PUBLIC "-//W3C//DTD SVG 1.1//EN" "http://www.w3.org/Graphics/SVG/1.1/DTD/svg11.dtd">
<svg width="100%" height="100%" viewBox="0 0 1084 827" version="1.1" xmlns="http://www.w3.org/2000/svg" xmlns:xlink="http://www.w3.org/1999/xlink" xml:space="preserve" xmlns:serif="http://www.serif.com/" style="fill-rule:evenodd;clip-rule:evenodd;stroke-linejoin:round;stroke-miterlimit:1.41421;">
    <g transform="matrix(1,0,0,1,-58.43,-36.84)">
        <path d="M1035.68,605.74C1029.27,621.19 1020.86,636 1009.09,647.36C994.75,661.2 976.94,668.75 957.87,672.36C952.248,673.408 946.573,674.142 940.87,674.56C925.8,675.72 910.37,674.95 895.57,673.34C859.319,669.382 823.567,661.733 788.87,650.51C783.17,648.67 777.503,646.733 771.87,644.7C763.37,641.647 754.947,638.377 746.6,634.89C712.6,620.68 677.45,602.56 641.28,608.18C623.75,610.91 607.28,619.18 589.71,621.64C577.378,623.253 564.846,622.355 552.87,619C547.071,617.449 541.39,615.487 535.87,613.13C523.43,607.736 511.592,601.049 500.55,593.18C474.05,574.66 450.27,551.7 422.37,535.66C391.61,517.97 357.56,509.56 322.87,503.29C317.223,502.27 311.557,501.297 305.87,500.37C289.82,497.72 273.73,495.27 257.87,492.37C242.59,489.55 227.04,486.1 213.74,477.62C204.25,471.57 196.27,463.19 188.95,454.36C175.447,437.998 163.864,420.141 154.43,401.14C153.93,400.14 153.44,399.14 152.96,398.14C138.27,368 128.39,335.14 122.33,301.14C122.15,300.14 121.98,299.14 121.81,298.14C116.11,264.81 114.03,230.35 114.66,196.14L114.72,193.14C115.11,176.25 116.16,159.43 117.72,142.85C118.84,131.19 120.34,119.09 126.38,109.29C132.42,99.49 142.25,93.19 152.09,87.95C195.39,64.88 236.9,58.46 283.48,69.64C290.96,71.43 298.41,73.36 305.86,75.36C311.53,76.88 317.2,78.45 322.86,80.03C362,90.92 401,102.53 441.48,106C445.387,106.34 449.297,106.6 453.21,106.78C460.95,107.14 468.69,107.22 476.43,107.02C496.368,106.46 516.236,104.415 535.87,100.9C541.55,99.92 547.217,98.833 552.87,97.64C577.27,92.55 601.45,85.76 625.24,78.25C630.1,76.717 634.953,75.157 639.8,73.57C650.72,70 661.64,66.36 672.58,62.82C705.24,52.24 738.1,42.57 771.87,38.67C774.757,38.343 777.65,38.053 780.55,37.8C783.32,37.56 786.1,37.37 788.87,37.23C841.32,34.43 894.37,47.08 940.87,72.97C946.637,76.183 952.303,79.597 957.87,83.21C965.583,88.23 973.06,93.63 980.3,99.41C995.14,111.26 1009.03,124.75 1019.61,140.96C1029.92,156.75 1036.61,174.48 1040.46,193.12C1040.67,194.12 1040.87,195.12 1041.05,196.12C1046.7,226.21 1044.94,258.48 1038.6,288.63C1037.93,291.79 1037.22,294.96 1036.48,298.12C1036.25,299.12 1036.01,300.12 1035.77,301.12C1028.93,329.63 1020.19,358.06 1022.47,387.21C1022.76,390.88 1023.22,394.52 1023.82,398.12C1023.99,399.12 1024.16,400.12 1024.35,401.12C1028.81,424.9 1038.95,447.46 1045.03,471.01C1056.44,515.753 1053.16,563.002 1035.68,605.74Z" style="fill:rgb(28,117,188);fill-opacity:0.1;fill-rule:nonzero;"/>
    </g>
    <g transform="matrix(1,0,0,1,-58.43,-36.84)">
        <path d="M957.87,196.12L1041.05,196.12C1040.87,195.12 1040.67,194.12 1040.46,193.12L957.87,193.12L957.87,83.21C952.31,79.597 946.643,76.183 940.87,72.97L940.87,193.12L788.87,193.12L788.87,37.23C786.1,37.37 783.32,37.56 780.55,37.8C777.78,38.04 774.76,38.34 771.87,38.67L771.87,193.12L554.87,193.12L554.35,192.55L672.58,62.82C661.64,66.36 650.72,70 639.8,73.57L552.87,169L552.87,97.64C547.21,98.827 541.543,99.913 535.87,100.9L535.87,172.25L476.43,107C468.69,107.187 460.95,107.107 453.21,106.76L531.37,192.53L530.85,193.1L322.85,193.1L322.85,80C317.19,78.42 311.52,76.85 305.85,75.33L305.85,193.12L114.7,193.12L114.64,196.12L305.87,196.12L305.87,298.12L121.79,298.12C121.96,299.12 122.13,300.12 122.31,301.12L305.87,301.12L305.87,398.12L152.94,398.12C153.42,399.12 153.91,400.12 154.41,401.12L305.87,401.12L305.87,500.38C311.55,501.307 317.217,502.28 322.87,503.3L322.87,401.12L535.87,401.12L535.87,613.12C541.39,615.477 547.071,617.439 552.87,618.99L552.87,401.12L771.87,401.12L771.87,644.69C777.51,646.73 783.177,648.667 788.87,650.5L788.87,401.12L940.87,401.12L940.87,674.55C946.573,674.132 952.248,673.398 957.87,672.35L957.87,401.12L1024.35,401.12C1024.16,400.12 1023.99,399.12 1023.82,398.12L957.82,398.12L957.82,301.12L1035.72,301.12C1035.96,300.12 1036.2,299.12 1036.43,298.12L957.87,298.12L957.87,196.12ZM940.87,196.12L940.87,298.12L788.87,298.12L788.87,196.12L940.87,196.12ZM771.87,298.12L552.87,298.12L552.87,196.12L771.87,196.12L771.87,298.12ZM322.87,196.12L532.87,196.12L535.87,198.85L535.87,298.12L322.87,298.12L322.87,196.12ZM322.87,398.12L322.87,301.12L535.87,301.12L535.87,398.12L322.87,398.12ZM552.87,398.12L552.87,301.12L771.87,301.12L771.87,398.12L552.87,398.12ZM940.87,398.12L788.87,398.12L788.87,301.12L940.87,301.12L940.87,398.12Z" style="fill:rgb(28,117,188);fill-opacity:0.1;fill-rule:nonzero;"/>
    </g>
    <g transform="matrix(1,0,0,1,-58.43,-36.84)">
        <path d="M867.79,125.88L866.47,125.88C867.412,125.334 868.018,124.348 868.08,123.26C868.08,121.19 865.55,119.5 862.46,119.5L823,119.5C819.91,119.5 817.37,121.19 817.37,123.26C817.37,125.33 819.91,127.02 823,127.02L824.32,127.02C823.376,127.565 822.77,128.552 822.71,129.64C822.71,131.4 824.55,132.88 827.01,133.28L815.71,133.28C812.61,133.28 810.08,134.97 810.08,137.04C810.08,139.11 812.61,140.8 815.71,140.8L855.12,140.8C858.22,140.8 860.75,139.1 860.75,137.04C860.75,135.28 858.9,133.79 856.44,133.39L867.79,133.39C870.88,133.39 873.41,131.7 873.41,129.64C873.41,127.58 870.88,125.88 867.79,125.88Z" style="fill:rgb(28,117,188);fill-opacity:0.1;fill-rule:nonzero;"/>
    </g>
    <g transform="matrix(1,0,0,1,-58.43,-36.84)">
        <path d="M440.63,161.64L439.31,161.64C440.249,161.09 440.853,160.106 440.92,159.02C440.92,156.96 438.39,155.27 435.29,155.27L395.88,155.27C392.78,155.27 390.25,156.96 390.25,159.02C390.25,161.09 392.78,162.78 395.88,162.78L397.19,162.78C396.254,163.331 395.653,164.316 395.59,165.4C395.59,167.16 397.43,168.65 399.89,169.05L388.54,169.05C385.45,169.05 382.92,170.74 382.92,172.8C382.92,174.86 385.45,176.56 388.54,176.56L428,176.56C431.09,176.56 433.63,174.87 433.63,172.8C433.63,171.04 431.78,169.56 429.32,169.16L440.67,169.16C443.76,169.16 446.29,167.47 446.29,165.4C446.29,163.33 443.72,161.64 440.63,161.64Z" style="fill:rgb(28,117,188);fill-opacity:0.1;fill-rule:nonzero;"/>
    </g>
    <g transform="matrix(1,0,0,1,-58.43,-36.84)">
        <path d="M928.25,314.7L926.93,314.7C927.869,314.15 928.473,313.166 928.54,312.08C928.54,310.01 926.01,308.32 922.91,308.32L883.5,308.32C880.4,308.32 877.87,310.01 877.87,312.08C877.87,314.15 880.4,315.84 883.5,315.84L884.81,315.84C883.874,316.391 883.273,317.376 883.21,318.46C883.21,320.22 885.05,321.7 887.51,322.1L876.16,322.1C873.07,322.1 870.54,323.79 870.54,325.86C870.54,327.93 873.07,329.62 876.16,329.62L915.58,329.62C918.67,329.62 921.21,327.93 921.21,325.86C921.21,324.1 919.36,322.61 916.9,322.21L928.25,322.21C931.34,322.21 933.87,320.52 933.87,318.46C933.87,316.4 931.34,314.7 928.25,314.7Z" style="fill:rgb(28,117,188);fill-opacity:0.1;fill-rule:nonzero;"/>
    </g>
    <ellipse cx="525.58" cy="728.37" rx="422.56" ry="46.65" style="fill:rgb(28,117,188);fill-opacity:0.1;"/>
    <g transform="matrix(1,0,0,1,-58.43,-36.84)">
        <path d="M671.86,433.3L671.86,580C671.866,582.491 671.529,584.971 670.86,587.37C667.56,599.326 656.603,607.669 644.2,607.67L520.2,607.67C520.197,607.67 520.193,607.67 520.19,607.67C505.016,607.67 492.53,595.184 492.53,580.01C492.53,580.007 492.53,580.003 492.53,580L492.53,433.3C492.53,433.297 492.53,433.293 492.53,433.29C492.53,418.116 505.016,405.63 520.19,405.63C520.193,405.63 520.197,405.63 520.2,405.63L644.2,405.63C656.603,405.631 667.56,413.974 670.86,425.93C671.529,428.329 671.866,430.809 671.86,433.3Z" style="fill:rgb(233,204,219);fill-rule:nonzero;"/>
    </g>
    <g transform="matrix(1,0,0,1,-58.43,-36.84)">
        <path d="M494.53,433.3L494.53,580C494.531,582.494 494.195,584.976 493.53,587.38C492.865,584.976 492.529,582.494 492.53,580L492.53,433.3C492.529,430.806 492.865,428.324 493.53,425.92C494.195,428.324 494.531,430.806 494.53,433.3Z" style="fill-opacity:0.1;fill-rule:nonzero;"/>
    </g>
    <path d="M434.1,396.46C434.1,381.189 421.701,368.79 406.43,368.79L244.44,368.79C229.169,368.79 216.77,381.189 216.77,396.46L216.77,543.12C216.77,558.391 229.169,570.79 244.44,570.79L406.43,570.79C421.701,570.79 434.1,558.391 434.1,543.12L434.1,396.46Z" style="fill:rgb(233,204,219);"/>
    <g transform="matrix(1,0,0,1,-58.43,-36.84)">
        <path d="M671.86,433.3L671.86,580C671.866,582.491 671.529,584.971 670.86,587.37C670.196,584.97 669.859,582.491 669.86,580L669.86,433.3C669.859,430.809 670.196,428.33 670.86,425.93C671.529,428.329 671.866,430.809 671.86,433.3Z" style="fill-opacity:0.1;fill-rule:nonzero;"/>
    </g>
    <path d="M830.77,396.46C830.77,381.189 818.371,368.79 803.1,368.79L641.1,368.79C625.829,368.79 613.43,381.189 613.43,396.46L613.43,543.12C613.43,558.391 625.829,570.79 641.1,570.79L803.1,570.79C818.371,570.79 830.77,558.391 830.77,543.12L830.77,396.46Z" style="fill:rgb(233,204,219);"/>
    <g transform="matrix(1,0,0,1,-58.43,-36.84)">
        <path d="M481.53,622.63L283,622.63L282,605.28C280.9,585.8 306.08,569.63 337.53,569.63L472.65,569.63C483.2,569.63 491.34,575.37 489.99,581.85L481.53,622.63Z" style="fill-opacity:0.1;fill-rule:nonzero;"/>
    </g>
    <g transform="matrix(1,0,0,1,-58.43,-36.84)">
        <path d="M481.53,624.63L283,624.63L282,607.28C280.9,587.8 306.08,571.63 337.53,571.63L472.65,571.63C483.2,571.63 491.34,577.37 489.99,583.85L481.53,624.63Z" style="fill:rgb(202,164,188);fill-rule:nonzero;"/>
    </g>
    <g transform="matrix(1,0,0,1,-58.43,-36.84)">
        <path d="M680.47,623.78L879,623.78L880,606.43C881.1,586.95 855.92,570.78 824.47,570.78L689.35,570.78C678.81,570.78 670.66,576.52 672.01,583L680.47,623.78Z" style="fill-opacity:0.1;fill-rule:nonzero;"/>
    </g>
    <g transform="matrix(1,0,0,1,-58.43,-36.84)">
        <path d="M680.47,625.78L879,625.78L880,608.43C881.1,588.95 855.92,572.78 824.47,572.78L689.35,572.78C678.81,572.78 670.66,578.52 672.01,585L680.47,625.78Z" style="fill:rgb(202,164,188);fill-rule:nonzero;"/>
    </g>
    <path d="M457.48,533.94L592,533.94C607.684,533.94 620.59,546.846 620.59,562.53L620.59,580.29L426.1,580.29L426.1,565.29C426.111,548.085 440.275,533.935 457.48,533.94Z" style="fill-opacity:0.1;fill-rule:nonzero;"/>
    <path d="M457.48,535.94L592,535.94C607.684,535.94 620.59,548.846 620.59,564.53L620.59,582.29L426.1,582.29L426.1,567.29C426.111,550.085 440.275,535.935 457.48,535.94Z" style="fill:rgb(202,164,188);fill-rule:nonzero;"/>
    <path d="M238.13,553.79L399.13,553.79C413.942,553.79 426.13,565.978 426.13,580.79L426.13,617.29L226.16,617.29L226.16,565.76C226.176,559.2 231.57,553.806 238.13,553.79Z" style="fill:rgb(233,204,219);fill-rule:nonzero;"/>
    <path d="M446.1,553.79L599.1,553.79C613.912,553.79 626.1,565.978 626.1,580.79L626.1,617.29L420.61,617.29L420.61,579.29C420.61,565.305 432.115,553.795 446.1,553.79Z" style="fill-opacity:0.1;fill-rule:nonzero;"/>
    <path d="M450.1,553.79L603.1,553.79C617.912,553.79 630.1,565.978 630.1,580.79L630.1,617.29L424.61,617.29L424.61,579.29C424.61,565.305 436.115,553.795 450.1,553.79Z" style="fill-opacity:0.1;fill-rule:nonzero;"/>
    <path d="M448.1,553.79L601.1,553.79C615.912,553.79 628.1,565.978 628.1,580.79L628.1,617.29L422.61,617.29L422.61,579.29C422.61,565.305 434.115,553.795 448.1,553.79Z" style="fill:rgb(233,204,219);fill-rule:nonzero;"/>
    <path d="M634.38,553.79L797.85,553.79C811.976,553.79 823.6,565.414 823.6,579.54L823.6,617.29L623.66,617.29L623.66,564.51C623.66,558.629 628.499,553.79 634.38,553.79Z" style="fill-opacity:0.1;fill-rule:nonzero;"/>
    <path d="M636.38,553.79L799.85,553.79C813.976,553.79 825.6,565.414 825.6,579.54L825.6,617.29L625.66,617.29L625.66,564.51C625.66,558.629 630.499,553.79 636.38,553.79Z" style="fill:rgb(233,204,219);fill-rule:nonzero;"/>
    <g transform="matrix(1,0,0,1,-58.43,-36.84)">
        <path d="M287.53,738.63L287.53,765.88C287.525,773.421 281.321,779.625 273.78,779.63L264.28,779.63C256.739,779.625 250.535,773.421 250.53,765.88L250.53,738.63L287.53,738.63Z" style="fill:rgb(156,122,165);fill-rule:nonzero;"/>
    </g>
    <g transform="matrix(1,0,0,1,-58.43,-36.84)">
        <path d="M917,738.63L917,765.88C916.995,773.421 910.791,779.625 903.25,779.63L893.75,779.63C886.209,779.625 880.005,773.421 880,765.88L880,738.63L917,738.63Z" style="fill:rgb(156,122,165);fill-rule:nonzero;"/>
    </g>
    <g transform="matrix(1,0,0,1,-58.43,-36.84)">
        <path d="M297.62,559.78C297.62,559.78 297.62,559.78 297.62,559.779C297.62,539.756 281.143,523.279 261.12,523.279C241.097,523.279 224.62,539.756 224.62,559.779C224.62,577.149 237.019,592.23 254.06,595.59L254.06,743.13L295.06,743.13L295.06,573.25C296.756,568.962 297.625,564.391 297.62,559.78Z" style="fill:rgb(233,204,219);fill-rule:nonzero;"/>
    </g>
    <g transform="matrix(1,0,0,1,-58.43,-36.84)">
        <path d="M868.44,559.78C868.44,559.78 868.44,559.78 868.44,559.779C868.44,539.756 884.917,523.279 904.94,523.279C924.963,523.279 941.44,539.756 941.44,559.779C941.44,577.149 929.041,592.23 912,595.59L912,743.13L871,743.13L871,573.25C869.304,568.962 868.435,564.391 868.44,559.78Z" style="fill:rgb(233,204,219);fill-rule:nonzero;"/>
    </g>
    <g transform="matrix(1,0,0,1,-58.43,-36.84)">
        <path d="M297.62,559.78C297.62,559.78 297.62,559.78 297.62,559.779C297.62,539.756 281.143,523.279 261.12,523.279C241.097,523.279 224.62,539.756 224.62,559.779C224.62,577.149 237.019,592.23 254.06,595.59L254.06,743.13L295.06,743.13L295.06,573.25C296.756,568.962 297.625,564.391 297.62,559.78Z" style="fill-opacity:0.1;fill-rule:nonzero;"/>
    </g>
    <g transform="matrix(1,0,0,1,-58.43,-36.84)">
        <path d="M868.44,559.78C868.44,559.78 868.44,559.78 868.44,559.779C868.44,539.756 884.917,523.279 904.94,523.279C924.963,523.279 941.44,539.756 941.44,559.779C941.44,577.149 929.041,592.23 912,595.59L912,743.13L871,743.13L871,573.25C869.304,568.962 868.435,564.391 868.44,559.78Z" style="fill-opacity:0.1;fill-rule:nonzero;"/>
    </g>
    <rect x="216.77" y="680.79" width="617.83" height="28.5" style="fill:rgb(156,122,165);"/>
    <rect x="223.59" y="617.29" width="607.18" height="65.5" style="fill-opacity:0.1;"/>
    <rect x="223.59" y="615.29" width="607.18" height="65.5" style="fill:rgb(202,164,188);"/>
    <rect x="821.62" y="701.79" width="36.94" height="9.5" style="fill-opacity:0.1;"/>
    <g transform="matrix(1,0,0,1,-58.43,-36.84)">
        <path d="M877.47,562.78C877.47,562.778 877.47,562.776 877.47,562.773C877.47,542.75 893.947,526.273 913.97,526.273C933.993,526.273 950.47,542.75 950.47,562.773C950.47,580.154 938.055,595.242 921,598.59L921,746.13L880,746.13L880,576.25C878.31,571.961 877.451,567.39 877.47,562.78Z" style="fill:rgb(233,204,219);fill-rule:nonzero;"/>
    </g>
    <rect x="192.1" y="701.79" width="36.48" height="9.5" style="fill-opacity:0.1;"/>
    <g transform="matrix(1,0,0,1,-58.43,-36.84)">
        <path d="M289.59,562.78C289.587,542.759 273.111,526.285 253.09,526.285C233.067,526.285 216.59,542.762 216.59,562.785C216.59,580.143 228.972,595.218 246,598.59L246,746.13L287,746.13L287,576.25C288.711,571.965 289.59,567.394 289.59,562.78Z" style="fill:rgb(233,204,219);fill-rule:nonzero;"/>
    </g>
    <rect x="236.62" y="615.29" width="576.15" height="1.83" style="fill-opacity:0.1;"/>
    <circle cx="192.1" cy="524.79" r="16.5" style="fill:rgb(202,164,188);"/>
    <circle cx="858.56" cy="524.79" r="16.5" style="fill:rgb(202,164,188);"/>
    <g transform="matrix(1,0,0,1,-58.43,-36.84)">
        <path d="M425.05,533.74C409.33,529.81 376.14,488.37 376.14,488.37C363.66,479.65 338.21,426.83 338.21,426.83C338.21,426.83 328.55,422.28 320.04,442.74C311.53,463.2 262.04,479.56 247.22,481.85C238.87,483.14 239.68,486.85 241.98,489.85C243.53,491.775 245.588,493.23 247.92,494.05C254.22,496.44 273.77,519.91 273.77,519.91C292,532.23 312.22,589.14 318.94,604.01C322.67,612.28 326.82,608.32 329.78,603.17C335.495,593.227 343.323,584.659 352.71,578.07C378.15,560.18 405.42,552.76 407.28,552.73C409.63,552.67 440.77,537.67 425.05,533.74Z" style="fill-opacity:0.1;fill-rule:nonzero;"/>
    </g>
    <g transform="matrix(1,0,0,1,-58.43,-36.84)">
        <path d="M216.07,485C213.502,484.025 211.24,482.382 209.52,480.24C206.89,476.87 205.77,472.69 214.52,471.24C229.96,468.7 280.98,450.43 288.52,427.38C296.06,404.33 306.52,409.49 306.52,409.49C306.52,409.49 337,469.11 350.76,479C350.76,479 388.62,525.83 405.45,530.32C422.28,534.81 390.53,551.61 388.06,551.65C386.06,551.65 357.89,559.96 332.34,580.04C322.791,587.593 315.12,597.256 309.93,608.27C307.17,614.07 303.07,618.52 298.56,609.19C290.45,592.4 265.17,528.19 245.11,514.19C245.11,514.19 222.87,487.66 216.07,485Z" style="fill:rgb(28,117,188);fill-rule:nonzero;"/>
    </g>
    <g transform="matrix(1,0,0,1,-58.43,-36.84)">
        <path d="M216.07,485C213.502,484.025 211.24,482.382 209.52,480.24C206.89,476.87 205.77,472.69 214.52,471.24C229.96,468.7 280.98,450.43 288.52,427.38C296.06,404.33 306.52,409.49 306.52,409.49C306.52,409.49 337,469.11 350.76,479C350.76,479 388.62,525.83 405.45,530.32C422.28,534.81 390.53,551.61 388.06,551.65C386.06,551.65 357.89,559.96 332.34,580.04C322.791,587.593 315.12,597.256 309.93,608.27C307.17,614.07 303.07,618.52 298.56,609.19C290.45,592.4 265.17,528.19 245.11,514.19C245.11,514.19 222.87,487.66 216.07,485Z" style="fill-opacity:0.1;fill-rule:nonzero;"/>
    </g>
    <g transform="matrix(1,0,0,1,-58.43,-36.84)">
        <path d="M226.92,483.76C224.537,482.928 222.426,481.457 220.82,479.51C218.39,476.51 217.4,472.67 225.63,471.23C240.22,468.67 288.63,451.23 296.07,430.02C303.51,408.81 313.35,413.4 313.35,413.4C313.35,413.4 341.19,467.4 354.01,476.26C354.01,476.26 389.01,518.48 404.8,522.33C420.59,526.18 390.41,542 388.08,542.09C386.23,542.15 359.51,550.09 335.08,568.88C326.028,575.853 318.667,584.783 313.55,595C310.86,600.34 306.92,604.47 302.81,596C295.42,580.77 272.56,522.44 253.86,510C253.86,510 233.29,486.13 226.92,483.76Z" style="fill:rgb(28,117,188);fill-rule:nonzero;"/>
    </g>
    <g transform="matrix(1,0,0,1,-58.43,-36.84)">
        <path d="M283,502.85C283,502.85 277.76,507.78 302.82,498.33C327.88,488.88 283,502.85 283,502.85Z" style="fill-opacity:0.1;fill-rule:nonzero;"/>
    </g>
    <g transform="matrix(1,0,0,1,-58.43,-36.84)">
        <path d="M303.57,526.9C303.57,526.9 307.39,527.45 321.76,521.58C336.13,515.71 303.57,526.9 303.57,526.9Z" style="fill-opacity:0.1;fill-rule:nonzero;"/>
    </g>
    <g transform="matrix(1,0,0,1,-58.43,-36.84)">
        <path d="M302.31,571.06C302.31,571.06 305.88,571.06 320.22,565.12C334.56,559.18 302.31,571.06 302.31,571.06Z" style="fill-opacity:0.1;fill-rule:nonzero;"/>
    </g>
    <g transform="matrix(1,0,0,1,-58.43,-36.84)">
        <path d="M887.2,472.2L887.2,491.28C883.08,499.8 879.05,510.68 879.05,510.68C867.05,526.3 868.95,578.34 868.16,592.39C867.72,600.19 862.61,598.33 858.16,595.13C849.366,588.862 839.38,584.462 828.82,582.2C799.82,575.85 772.82,578.49 771.1,579.05C768.98,579.75 735.86,577.52 748.54,569.41C761.22,561.3 776.38,517.61 776.38,517.61C784.49,506.69 788.72,456.29 788.72,456.29C788.72,456.29 795.72,449.6 810.57,463.29C824.66,476.42 870.7,474.82 887.2,472.2Z" style="fill-opacity:0.1;fill-rule:nonzero;"/>
    </g>
    <g transform="matrix(1,0,0,1,-58.43,-36.84)">
        <path d="M898.11,478.8C899.871,477.462 901.205,475.642 901.95,473.56C902.95,470.44 902.39,467.21 894.46,468.8C880.41,471.62 830.37,474.09 815.57,460.35C800.77,446.61 793.72,453.3 793.72,453.3C793.72,453.3 789.49,503.69 781.38,514.62C781.38,514.62 766.23,558.31 753.54,566.42C740.85,574.53 773.98,576.76 776.1,576.05C777.78,575.49 804.78,572.86 833.82,579.21C844.378,581.472 854.363,585.869 863.16,592.13C867.61,595.33 872.72,597.2 873.16,589.39C873.95,575.39 872.07,523.31 884.05,507.69C884.05,507.69 893.31,482.7 898.11,478.8Z" style="fill:rgb(28,117,188);fill-rule:nonzero;"/>
    </g>
    <g transform="matrix(1,0,0,1,-58.43,-36.84)">
        <path d="M898.11,478.8C899.871,477.462 901.205,475.642 901.95,473.56C902.95,470.44 902.39,467.21 894.46,468.8C880.41,471.62 830.37,474.09 815.57,460.35C800.77,446.61 793.72,453.3 793.72,453.3C793.72,453.3 789.49,503.69 781.38,514.62C781.38,514.62 766.23,558.31 753.54,566.42C740.85,574.53 773.98,576.76 776.1,576.05C777.78,575.49 804.78,572.86 833.82,579.21C844.378,581.472 854.363,585.869 863.16,592.13C867.61,595.33 872.72,597.2 873.16,589.39C873.95,575.39 872.07,523.31 884.05,507.69C884.05,507.69 893.31,482.7 898.11,478.8Z" style="fill-opacity:0.1;fill-rule:nonzero;"/>
    </g>
    <g transform="matrix(1,0,0,1,-58.43,-36.84)">
        <path d="M894.49,481.05C896.163,479.772 897.428,478.035 898.13,476.05C899.13,473.05 898.55,470.05 891.03,471.54C877.68,474.21 830.17,476.54 816.12,463.54C802.07,450.54 795.37,456.85 795.37,456.85C795.37,456.85 791.37,504.69 783.66,515.06C783.66,515.06 769.28,556.55 757.23,564.25C745.18,571.95 776.64,574.06 778.64,573.39C780.24,572.86 805.88,570.39 833.45,576.39C843.475,578.532 852.954,582.708 861.3,588.66C865.53,591.66 870.38,593.47 870.8,586.06C871.55,572.72 869.8,523.32 881.14,508.48C881.14,508.47 889.93,484.75 894.49,481.05Z" style="fill:rgb(28,117,188);fill-rule:nonzero;"/>
    </g>
    <g transform="matrix(1,0,0,1,-58.43,-36.84)">
        <path d="M859.28,508.63C859.28,508.63 855.78,510.63 839.03,516.38C822.28,522.13 856.53,514.13 859.28,508.63Z" style="fill-opacity:0.1;fill-rule:nonzero;"/>
    </g>
    <g transform="matrix(1,0,0,1,-58.43,-36.84)">
        <path d="M857.53,526.28C857.53,526.28 847.03,534.88 841.78,535.63C836.53,536.38 854.53,534.68 857.53,526.28Z" style="fill-opacity:0.1;fill-rule:nonzero;"/>
    </g>
    <g transform="matrix(1,0,0,1,-58.43,-36.84)">
        <path d="M865.88,566C865.88,566 855.38,574.6 850.13,575.35C844.88,576.1 862.88,574.42 865.88,566Z" style="fill-opacity:0.1;fill-rule:nonzero;"/>
    </g>
    <g transform="matrix(1,0,0,1,-58.43,-36.84)">
        <path d="M706.64,573.22C705.156,573.155 703.682,572.944 702.24,572.59C702.14,572.12 701.34,571.8 699.65,571.73L699.31,571.73C694.11,569.749 689.445,566.578 685.69,562.47C680.87,557.17 667.23,550.54 667.23,550.54C667.23,550.54 657.59,542.41 651.23,541.75C644.87,541.09 627.29,523.35 612.33,506.93C597.37,490.51 574.25,472.61 574.25,472.61L564.44,461.67C564.44,461.67 553,453.52 550.35,449C548.9,446.55 544.35,445.29 539.69,444.85C534.69,442.85 526.44,442.85 522.59,443.69C520.24,444.22 513.74,450.37 507.34,456.92L512.6,389.42C512.748,387.499 511.539,385.715 509.7,385.14L492,393.77C490.705,394.396 489.844,395.675 489.75,397.11L485,469.57L464.1,484.85C463.625,482.289 462.526,479.885 460.9,477.85C449.18,462.57 430.96,491.56 424.17,503.69C423.85,503.69 423.54,503.79 423.25,503.86C423.123,504.217 422.914,504.539 422.64,504.8C417.473,502.283 412.569,499.258 408,495.77C407.68,495.418 407.414,495.02 407.21,494.59C406.21,492.1 402.28,487.82 400.01,485.45C393.11,477.68 382.82,467.27 381.35,466.61C380.57,466.27 376.88,463.44 372.3,459.85C371.6,458.333 370.819,456.854 369.96,455.42C366.7,450.02 361.14,448.42 357.25,447.99C353.65,445.19 350.9,443.1 350.17,442.74C347.68,441.5 341.94,432.54 339.17,426.82C336.4,421.1 316.27,420.36 316.27,420.36C316.116,412.502 317.939,404.73 321.57,397.76C321.78,397.36 321.98,396.97 322.19,396.59C337.698,392.076 348.439,377.763 348.439,361.612C348.439,357.561 347.763,353.538 346.44,349.71C349.02,348.8 352.17,349.2 354.88,348.25C358.52,346.98 361.82,344.04 362.38,340.25C362.622,337.715 362.033,335.17 360.7,333C359.48,330.838 357.931,328.878 356.11,327.19C351.17,322.01 344.06,318.82 337.11,316.43C328.3,313.43 319.05,311.12 309.74,311.63C300.43,312.14 291,315.72 285,322.82C283.936,324.286 282.682,325.605 281.27,326.74C279.13,328.2 276.39,328.44 273.8,328.34C265.26,328.03 256.34,324.66 248.46,327.96C238.99,331.96 235.68,343.5 234.46,353.67C233.19,364.14 232.88,374.79 230.11,384.96C227.34,395.13 221.63,405.07 212.35,410.12C209.64,411.59 206.68,412.62 204.13,414.36C201.58,416.1 199.41,418.8 199.4,421.88C199.4,426.08 203.17,429.17 205.14,432.88C206.14,434.77 206.72,436.93 207.71,438.79C207.81,438.98 207.91,439.16 208.02,439.34L208.08,439.44C208.17,439.58 208.26,439.72 208.36,439.86C208.388,439.911 208.421,439.958 208.46,440L208.74,440.38C208.779,440.425 208.816,440.471 208.85,440.52C208.99,440.68 209.13,440.84 209.28,440.99C209.43,441.14 209.64,441.33 209.83,441.48C210.02,441.63 210.12,441.82 210.28,441.98C214.57,446.31 222.19,443.86 227.69,446.49C228.739,447.014 229.706,447.687 230.56,448.49C232.4,450.49 233.88,452.96 235.56,455.18L235.66,455.3L236.18,455.96L236.45,456.27C236.57,456.42 236.7,456.57 236.83,456.71C236.96,456.85 237.29,457.21 237.52,457.44L237.97,457.85C238.15,458.05 238.33,458.25 238.52,458.44C243.04,462.94 249.72,464.51 256.1,464.95C259.59,465.18 263.2,465.12 266.43,463.76C267.903,463.131 269.257,462.251 270.43,461.16C272.309,462.631 274.317,463.93 276.43,465.04C281.69,468.48 287.52,471.69 293.02,475.34C298.75,480.79 305.69,488.52 305.78,494.15C305.91,501.62 316.18,516.29 320.78,522.47C321.01,523.7 321.11,524.4 321.11,524.4L342.22,555.49C342.22,555.49 343.8,560.34 352.04,560.61C350.52,569.97 351.04,586.43 358.35,588.15C366.83,590.15 380.63,588.48 382.63,590.97C384.63,593.46 417.54,589.64 417.54,589.64C417.54,589.64 435.83,585.5 447.97,589.15C455.521,591.252 463.573,590.665 470.74,587.49C477.907,584.315 483.86,586.25 485.56,581.12C485.891,580.644 486.113,580.101 486.21,579.53C486.29,578.971 486.437,578.423 486.65,577.9C487.97,575.75 490.02,575.12 489.25,574.64C490.25,573.78 490.46,573.58 487.37,573.06C485.324,572.755 483.24,572.826 481.22,573.27C481.96,572.523 482.69,571.733 483.41,570.9C483.87,570.925 484.33,570.925 484.79,570.9C489.38,571.16 489.06,569.17 493.35,568.1C498.35,566.86 503.35,566.36 509.81,565.61C516.27,564.86 523.03,561.14 525.81,557.61C528.59,554.08 540.27,556.11 543.51,550.14C546.29,545.04 536.46,540.66 531.22,541.06C529.961,540.887 528.679,541.107 527.55,541.69C524.47,543.69 513.42,544.61 509.63,544.85C508.8,544.55 505.46,543.4 501.53,542.4C504.93,536.83 509.69,529.24 514,523.12C521.82,512.01 526.47,508.03 526.47,508.03C528.08,505.433 530.108,503.119 532.47,501.18C538.32,516 572.84,540.81 589.47,543.68C607.76,546.83 625.72,561.75 625.72,561.75C625.72,561.75 624.06,568.75 624.06,571.75C624.06,573.09 627.38,573.75 631.55,574.08C634.35,576.18 647.94,575.95 653.15,575.08C658.97,574.08 675.43,578.23 688.9,579.08C702.37,579.93 714.78,573.55 706.64,573.22Z" style="fill:url(#_Linear1);fill-rule:nonzero;"/>
    </g>
    <g transform="matrix(1,0,0,1,-58.43,-36.84)">
        <path d="M374.41,459.9L373.16,475.78L380.87,492.5L391.77,502.1L403.63,509.1L414.63,516.76L425.63,506.88C425.63,506.88 409.52,496.54 408.08,493.03C406.64,489.52 399.4,482.41 399.4,482.41L389.18,472.53L380.88,464.96L374.41,459.9Z" style="fill:rgb(253,111,141);fill-rule:nonzero;"/>
    </g>
    <g transform="matrix(1,0,0,1,-58.43,-36.84)">
        <path d="M374.41,459.9L373.16,475.78L380.87,492.5L391.77,502.1L403.63,509.1L414.63,516.76L425.63,506.88C425.63,506.88 409.52,496.54 408.08,493.03C406.64,489.52 399.4,482.41 399.4,482.41L389.18,472.53L380.88,464.96L374.41,459.9Z" style="fill-opacity:0.1;fill-rule:nonzero;"/>
    </g>
    <g transform="matrix(1,0,0,1,-58.43,-36.84)">
        <path d="M324.49,398.25C320.49,406.09 317.11,417.61 320.97,430.6C328.11,454.6 275.77,421.02 275.77,421.02C275.77,421.02 287.05,404.18 290.35,389.64C291.42,384.93 291.65,380.45 290.35,376.87C285.16,362.26 331.58,387.58 331.58,387.58C328.768,390.817 326.385,394.403 324.49,398.25Z" style="fill:rgb(247,196,167);fill-rule:nonzero;"/>
    </g>
    <g transform="matrix(1,0,0,1,-58.43,-36.84)">
        <path d="M317.84,420.37C317.84,420.37 337.53,421.1 340.21,426.7C342.89,432.3 348.48,441.07 350.92,442.29C353.36,443.51 379.16,464.69 381.35,465.66C383.54,466.63 405.7,489.76 405.7,492.2C405.7,494.64 428.59,508.76 443.2,510.95C457.81,513.14 480.2,539.44 486.78,538.46C493.36,537.48 506.78,542.36 506.78,542.36C506.78,542.36 521.88,541.63 525.53,539.19C529.18,536.75 542.81,541.63 539.65,547.47C536.49,553.31 525.04,551.37 522.36,554.78C519.68,558.19 513.11,561.84 506.78,562.57C500.45,563.3 495.58,563.78 490.71,565C485.84,566.22 487.06,568.65 479.71,567.44C472.36,566.23 443.92,515.57 443.92,515.57L412.27,501.21C412.27,501.21 400.34,491.47 399.36,488.3C398.38,485.13 375.5,463.47 375.5,463.47L345.55,441.55L317.84,420.37Z" style="fill-opacity:0.1;fill-rule:nonzero;"/>
    </g>
    <g transform="matrix(1,0,0,1,-58.43,-36.84)">
        <path d="M319.3,420.37C319.3,420.37 338.99,421.1 341.67,426.7C344.35,432.3 349.95,441.07 352.38,442.29C354.81,443.51 380.62,464.69 382.82,465.66C385.02,466.63 407.16,489.76 407.16,492.2C407.16,494.64 430.05,508.76 444.66,510.95C459.27,513.14 481.66,539.44 488.24,538.46C494.82,537.48 508.24,542.36 508.24,542.36C508.24,542.36 523.34,541.63 526.99,539.19C530.64,536.75 544.28,541.63 541.11,547.47C537.94,553.31 526.5,551.37 523.82,554.78C521.14,558.19 514.57,561.84 508.24,562.57C501.91,563.3 497,563.78 492.14,565C487.28,566.22 488.49,568.65 481.14,567.44C473.79,566.23 445.35,515.57 445.35,515.57L413.7,501.21C413.7,501.21 401.77,491.47 400.79,488.3C399.81,485.13 377,463.47 377,463.47L347,441.55L319.3,420.37Z" style="fill:rgb(253,111,141);fill-rule:nonzero;"/>
    </g>
    <g transform="matrix(1,0,0,1,-58.43,-36.84)">
        <path d="M421.85,529.13C421.85,529.13 451.4,502.99 452.85,501.05C453.57,500.05 462.92,493 472.18,486.05C483.688,477.465 494.474,467.954 504.43,457.61C511.1,450.69 518.24,443.78 520.7,443.23C525.7,442.09 538.39,442.58 540.99,446.96C543.59,451.34 554.79,459.3 554.79,459.3L564.37,470C564.37,470 586.94,487.53 601.55,503.6C616.16,519.67 633.36,537.04 639.55,537.69C645.74,538.34 655.13,546.29 655.13,546.29C655.13,546.29 668.44,552.79 673.13,557.98C677.82,563.17 685.63,568.21 693.58,568.53C701.53,568.85 689.36,575.03 676.21,574.21C663.06,573.39 647,569.34 641.31,570.32C635.62,571.3 619.73,571.45 619.73,568.53C619.73,565.61 621.35,558.79 621.35,558.79C621.35,558.79 603.82,544.22 586,541.14C568.18,538.06 529.15,509 529.47,495.53C529.47,495.53 523.96,495.04 517.62,504.78C517.62,504.78 513.08,508.68 505.45,519.55C497.82,530.42 488.73,546 488.73,546C488.73,546 474.61,574.55 463.25,574.32C451.89,574.09 439.71,572.78 439.71,572.78L424.61,562.07L423.61,549.07L421.85,529.13Z" style="fill:rgb(247,196,167);fill-rule:nonzero;"/>
    </g>
    <g transform="matrix(1,0,0,1,-58.43,-36.84)">
        <path d="M421.85,529.13C421.85,529.13 451.4,502.99 452.85,501.05C453.57,500.05 462.92,493 472.18,486.05C483.688,477.465 494.474,467.954 504.43,457.61C511.1,450.69 518.24,443.78 520.7,443.23C525.7,442.09 538.39,442.58 540.99,446.96C543.59,451.34 554.79,459.3 554.79,459.3L564.37,470C564.37,470 586.94,487.53 601.55,503.6C616.16,519.67 633.36,537.04 639.55,537.69C645.74,538.34 655.13,546.29 655.13,546.29C655.13,546.29 668.44,552.79 673.13,557.98C677.82,563.17 685.63,568.21 693.58,568.53C701.53,568.85 689.36,575.03 676.21,574.21C663.06,573.39 647,569.34 641.31,570.32C635.62,571.3 619.73,571.45 619.73,568.53C619.73,565.61 621.35,558.79 621.35,558.79C621.35,558.79 603.82,544.22 586,541.14C568.18,538.06 529.15,509 529.47,495.53C529.47,495.53 523.96,495.04 517.62,504.78C517.62,504.78 513.08,508.68 505.45,519.55C497.82,530.42 488.73,546 488.73,546C488.73,546 474.61,574.55 463.25,574.32C451.89,574.09 439.71,572.78 439.71,572.78L424.61,562.07L423.61,549.07L421.85,529.13Z" style="fill-opacity:0.05;fill-rule:nonzero;"/>
    </g>
    <g transform="matrix(1,0,0,1,-58.43,-36.84)">
        <path d="M428.67,530.59C428.67,530.59 458.21,504.46 459.67,502.51C461.13,500.56 497.81,473.61 497.81,473.61C497.81,473.61 522.48,445.86 527.52,444.72C532.56,443.58 545.21,444.07 547.81,448.45C550.41,452.83 561.6,460.79 561.6,460.79L571.18,471.5C571.18,471.5 593.74,489.03 608.35,505.1C622.96,521.17 640.17,538.54 646.35,539.19C652.53,539.84 661.93,547.8 661.93,547.8C661.93,547.8 675.24,554.29 679.93,559.48C684.62,564.67 692.43,569.71 700.38,570.03C708.33,570.35 696.16,576.53 683.01,575.71C669.86,574.89 653.79,570.85 648.11,571.82C642.43,572.79 626.54,573 626.54,570C626.54,567 628.17,560.26 628.17,560.26C628.17,560.26 610.64,545.66 592.78,542.57C574.92,539.48 536,510.46 536.29,497C536.29,497 530.77,496.51 524.44,506.25C524.44,506.25 519.9,510.15 512.27,521.02C504.64,531.89 495.55,547.48 495.55,547.48C495.55,547.48 481.43,576 470.06,575.79C458.69,575.58 446.53,574.25 446.53,574.25L431.43,563.54L430.43,550.54L428.67,530.59Z" style="fill:rgb(247,196,167);fill-rule:nonzero;"/>
    </g>
    <g transform="matrix(1,0,0,1,-58.43,-36.84)">
        <path d="M523.75,545.8C522.95,546.14 522.17,546.55 521.4,546.96L516.4,549.63C520.756,550.349 525.189,550.481 529.58,550.02C532.02,549.76 535.45,547.69 532.67,545.24C530.46,543.32 526,544.82 523.75,545.8Z" style="fill-opacity:0.1;fill-rule:nonzero;"/>
    </g>
    <g transform="matrix(1,0,0,1,-58.43,-36.84)">
        <path d="M500.9,549.26C503.61,548.72 506.53,548.19 509.06,549.26C509.926,549.678 510.747,550.184 511.51,550.77L515.85,553.9C512.112,555.003 508.267,555.707 504.38,556C503.864,556.07 503.339,556.05 502.83,555.94C502.163,555.705 501.558,555.322 501.06,554.82C497.67,552 495.38,550.36 500.9,549.26Z" style="fill-opacity:0.1;fill-rule:nonzero;"/>
    </g>
    <g transform="matrix(1,0,0,1,-58.43,-36.84)">
        <path d="M331.6,387.58C328.781,390.816 326.391,394.402 324.49,398.25C312.401,401.559 299.423,398.286 290.35,389.64C291.42,384.93 291.65,380.45 290.35,376.87C285.18,362.26 331.6,387.58 331.6,387.58Z" style="fill-opacity:0.1;fill-rule:nonzero;"/>
    </g>
    <circle cx="256.58" cy="326" r="35.71" style="fill:rgb(247,196,167);"/>
    <path d="M260.88,383.53L258.97,386.61L282.16,411.78L293.06,419.4L299.36,410.95L260.88,383.53Z" style="fill:rgb(80,79,136);fill-rule:nonzero;"/>
    <g transform="matrix(1,0,0,1,-58.43,-36.84)">
        <path d="M355,447.38C355,447.38 366.43,445.94 371.71,454.7C374.823,459.759 376.79,465.439 377.47,471.34C378.15,477.241 382.74,475.56 382.26,477.92C381.865,479.433 380.943,480.756 379.66,481.65C378.377,482.544 369.43,475.81 369.35,475.56C369.27,475.31 361.48,466.71 361.48,466.71L355,459.9L355,447.38Z" style="fill:rgb(80,79,136);fill-rule:nonzero;"/>
    </g>
    <g transform="matrix(1,0,0,1,-58.43,-36.84)">
        <path d="M286.15,412.58C286.15,412.58 268.3,414 266.51,426.46C264.72,438.92 264.08,446.02 270.41,454.62C276.74,463.22 289.72,466.8 289.72,466.8C289.72,466.8 309.36,482.22 309.53,491.63C309.7,501.04 326.25,522.15 326.25,522.15C326.25,522.15 357.76,545.52 355.48,552.99C353.2,560.46 352.54,581.72 360.82,583.67C369.1,585.62 382.57,583.99 384.52,586.43C386.47,588.87 418.61,585.13 418.61,585.13C418.61,585.13 436.46,581.07 448.31,584.64C455.687,586.695 463.554,586.115 470.55,583C477.546,579.885 484.35,581.7 485.16,576.18C485.97,570.66 492.16,570.83 486.3,569.85C480.44,568.87 476.72,571.96 472.5,570.5C468.28,569.04 464.71,564.17 454.97,564.33C445.23,564.49 442.97,564.66 441.97,564.49C440.97,564.32 448.14,558.81 444.24,549.89C440.34,540.97 432.89,534 433.22,529C433.55,524 418.61,506.92 418.61,506.92C418.61,506.92 411.47,496.54 402.21,493.13C392.95,489.72 375.59,468.77 375.59,468.77C375.59,468.77 360.72,445.62 352.65,444.38C344.58,443.14 318.13,419.38 318.13,419.38C318.13,419.38 295.7,410.13 286.15,412.58Z" style="fill-opacity:0.1;fill-rule:nonzero;"/>
    </g>
    <g transform="matrix(1,0,0,1,-58.43,-36.84)">
        <path d="M285.67,413.55C285.67,413.55 267.81,415 266,427.43C264.19,439.86 263.57,446.99 269.9,455.6C276.23,464.21 289.22,467.77 289.22,467.77C289.22,467.77 308.86,483.19 309.02,492.61C309.18,502.03 325.74,523.12 325.74,523.12C325.74,523.12 357.27,546.5 355,554C352.73,561.5 352.07,582.73 360.34,584.68C368.61,586.63 382.1,585.01 384.04,587.44C385.98,589.87 418.13,586.14 418.13,586.14C418.13,586.14 435.99,582.09 447.84,585.66C455.212,587.71 463.074,587.123 470.06,584C477.046,580.877 483.86,582.7 484.67,577.19C485.48,571.68 491.67,571.83 485.81,570.86C479.95,569.89 476.23,572.97 472.01,571.5C467.79,570.03 464.22,565.17 454.48,565.34C444.74,565.51 442.48,565.66 441.48,565.5C440.48,565.34 447.64,559.82 443.75,550.89C439.86,541.96 432.39,534.98 432.75,529.95C433.11,524.92 418.14,507.87 418.14,507.87C418.14,507.87 411,497.49 401.75,494.08C392.5,490.67 375.13,469.73 375.13,469.73C375.13,469.73 360.25,446.58 352.19,445.33C344.13,444.08 317.66,420.38 317.66,420.38C317.66,420.38 295.21,411.1 285.67,413.55Z" style="fill:rgb(253,111,141);fill-rule:nonzero;"/>
    </g>
    <g transform="matrix(1,0,0,1,-58.43,-36.84)">
        <path d="M401.38,554C400.28,556.45 400.04,559.64 401.93,561.54C403.127,562.519 404.518,563.235 406.01,563.64C409.06,564.83 412.01,566.92 413.01,570.04C413.193,570.904 413.532,571.727 414.01,572.47C414.518,573.019 415.148,573.441 415.85,573.7C424.548,577.628 434.008,579.581 443.55,579.42C440.391,576.383 436.384,574.374 432.06,573.66C428.62,573.1 424.98,573.36 421.8,571.93C418.62,570.5 416.5,567.77 414.42,565.09C413.652,564.207 413.052,563.19 412.65,562.09C411.9,559.68 413.1,557.01 412.41,554.59C412.01,553.2 408.67,548.23 407.25,547.92C405.08,547.49 402.11,552.37 401.38,554Z" style="fill-opacity:0.1;fill-rule:nonzero;"/>
    </g>
    <g transform="matrix(1,0,0,1,-58.43,-36.84)">
        <path d="M527.39,493.75C529.39,493.1 539.56,491.2 536.49,487.34C533.69,483.8 529.56,493 527.39,493.75Z" style="fill-opacity:0.1;fill-rule:nonzero;"/>
    </g>
    <g transform="matrix(1,0,0,1,-58.43,-36.84)">
        <path d="M490.86,394.34L508.13,385.93L502.13,472.61L483.94,469L488.66,397.57C488.768,396.181 489.607,394.949 490.86,394.34Z" style="fill:rgb(203,227,255);fill-rule:nonzero;"/>
    </g>
    <g transform="matrix(1,0,0,1,-58.43,-36.84)">
        <path d="M508.13,385.93L502.13,472.61C503.497,472.609 504.646,471.543 504.75,470.18L511,390.13C511.143,388.238 509.945,386.484 508.13,385.93Z" style="fill:rgb(200,191,202);fill-rule:nonzero;"/>
    </g>
    <g transform="matrix(1,0,0,1,-58.43,-36.84)">
        <path d="M484,468.51L429.2,508.79C428.153,509.541 427.53,510.753 427.53,512.041C427.53,513.03 427.897,513.985 428.56,514.72L433.92,520.82L503.26,469L486.38,467.79C485.526,467.736 484.681,467.992 484,468.51Z" style="fill:rgb(241,241,242);fill-rule:nonzero;"/>
    </g>
    <path d="M424.16,435.76L387.25,461.6L392.39,467.17L435.45,436.53L424.16,435.76Z" style="fill:rgb(126,122,152);fill-rule:nonzero;"/>
    <g transform="matrix(1,0,0,1,-58.43,-36.84)">
        <path d="M433.94,520.82L503.26,469C504.388,471.351 503.689,474.199 501.6,475.76L440.71,521.43C438.644,522.995 435.692,522.729 433.94,520.82Z" style="fill:rgb(200,191,202);fill-rule:nonzero;"/>
    </g>
    <g transform="matrix(1,0,0,1,-58.43,-36.84)">
        <path d="M422,506.89C422,506.89 446.2,458 460.49,476.7C474.78,495.4 438.57,515.7 438.57,515.7L422,506.89Z" style="fill:rgb(247,196,167);fill-rule:nonzero;"/>
    </g>
    <g transform="matrix(1,0,0,1,-58.43,-36.84)">
        <path d="M293,426.55C283.26,429.085 275.518,436.528 272.6,446.16C271.03,451.53 271.14,457.42 276.46,461.36C288.64,470.36 305.84,476.7 313.8,491.47C318.782,501.129 322.224,511.508 324,522.23L344.62,552.66C344.62,552.66 347.75,562.4 368.62,554.78C389.49,547.16 400.9,543.25 400.9,543.25C400.9,543.25 417.08,534.57 424.31,531.4C425.329,530.881 426.412,530.498 427.53,530.26C429.96,530.26 447.36,515.37 448.16,513.32C448.96,511.27 430.57,502.75 423.22,504.6C423.22,504.6 422.17,509 408.37,508.35C394.57,507.7 389.37,513.55 389.37,513.55C389.37,513.55 382.55,511.11 378.17,511.35C373.79,511.59 365.84,507.35 359.91,507.86C359.91,507.86 362.91,501.86 359.02,496.86C355.13,491.86 351.55,492.31 349.93,486.39C349,483.01 345.93,472.26 343.44,463.62C340.195,452.117 333.726,441.778 324.8,433.83C318.98,428.7 312.06,424.53 305.12,424.78C301.026,424.913 296.961,425.507 293,426.55Z" style="fill-opacity:0.1;fill-rule:nonzero;"/>
    </g>
    <g transform="matrix(1,0,0,1,-58.43,-36.84)">
        <path d="M293.43,424.11C283.683,426.65 275.932,434.094 273,443.73C271.44,449.1 271.54,454.98 276.87,458.92C289.04,467.92 306.25,474.26 314.2,489.03C319.193,498.687 322.645,509.066 324.43,519.79L345.05,550.23C345.05,550.23 348.17,559.97 369.05,552.34C389.93,544.71 401.33,540.82 401.33,540.82C401.33,540.82 417.51,532.13 424.73,528.97C425.748,528.448 426.831,528.064 427.95,527.83C430.39,527.83 447.79,512.94 448.58,510.89C449.37,508.84 431,500.32 423.65,502.17C423.65,502.17 422.6,506.57 408.8,505.92C395,505.27 389.8,511.11 389.8,511.11C389.8,511.11 382.98,508.68 378.6,508.92C374.22,509.16 366.26,504.92 360.34,505.43C360.34,505.43 363.34,499.43 359.44,494.43C355.54,489.43 351.98,489.89 350.35,483.96C349.43,480.59 346.35,469.84 343.87,461.19C340.623,449.688 334.154,439.35 325.23,431.4C319.4,426.27 312.49,422.1 305.55,422.4C301.458,422.51 297.392,423.084 293.43,424.11Z" style="fill-opacity:0.1;fill-rule:nonzero;"/>
    </g>
    <g transform="matrix(1,0,0,1,-58.43,-36.84)">
        <path d="M293,425.09C283.26,427.625 275.518,435.068 272.6,444.7C271.03,450.07 271.14,455.96 276.46,459.9C288.64,468.9 305.84,475.24 313.8,490.01C318.782,499.669 322.224,510.048 324,520.77L344.62,551.2C344.62,551.2 347.75,560.94 368.62,553.31C389.49,545.68 400.9,541.79 400.9,541.79C400.9,541.79 417.08,533.1 424.31,529.94C425.327,529.416 426.41,529.033 427.53,528.8C429.96,528.8 447.36,513.91 448.16,511.86C448.96,509.81 430.57,501.29 423.22,503.14C423.22,503.14 422.17,507.54 408.37,506.89C394.57,506.24 389.37,512.08 389.37,512.08C389.37,512.08 382.55,509.65 378.17,509.89C373.79,510.13 365.84,505.89 359.91,506.4C359.91,506.4 362.91,500.4 359.02,495.4C355.13,490.4 351.55,490.86 349.93,484.94C349,481.56 345.93,470.81 343.44,462.16C340.195,450.66 333.726,440.325 324.8,432.38C318.98,427.24 312.06,423.08 305.12,423.38C301.029,423.493 296.963,424.067 293,425.09Z" style="fill:rgb(253,111,141);fill-rule:nonzero;"/>
    </g>
    <g transform="matrix(1,0,0,1,-58.43,-36.84)">
        <path d="M357,349.77C360.55,348.53 363.78,345.65 364.33,341.93C364.56,339.439 363.974,336.939 362.66,334.81C358.22,326.81 349.27,322.55 340.66,319.57C332.05,316.59 323.03,314.36 313.94,314.87C304.85,315.38 295.64,318.87 289.76,325.87C288.724,327.307 287.499,328.598 286.12,329.71C284.03,331.14 281.36,331.37 278.83,331.28C270.49,330.97 261.78,327.67 254.09,330.91C244.85,334.79 241.61,346.12 240.41,356.08C239.17,366.32 238.87,376.75 236.16,386.71C233.45,396.67 227.89,406.4 218.83,411.34C216.18,412.78 213.29,413.79 210.83,415.49C208.37,417.19 206.22,419.84 206.21,422.86C206.21,426.97 209.89,429.99 211.81,433.62C213.21,436.27 213.75,439.44 215.86,441.56C220.05,445.8 227.48,443.4 232.86,445.98C237.64,448.28 239.7,453.91 243.46,457.66C247.88,462.07 254.4,463.61 260.62,464.04C264.03,464.27 267.56,464.21 270.7,462.88C276.96,460.23 280.28,453.08 280.65,446.3C281.02,439.52 279.07,432.86 277.65,426.21C277.18,424.02 276.78,421.68 277.65,419.59C278.393,417.984 279.549,416.603 281,415.59C288.39,409.75 298.92,407.08 303.16,398.67C306.01,393.02 305.16,386.31 305.84,380.02C306.1,377.73 306.67,375.3 308.37,373.73C310.45,371.82 313.56,371.73 316.37,371.48C324.702,370.641 332.568,367.225 338.87,361.71C341.93,359.04 343.78,355.71 346.44,352.8C349.1,349.89 353.41,351 357,349.77Z" style="fill-opacity:0.1;fill-rule:nonzero;"/>
    </g>
    <g transform="matrix(1,0,0,1,-58.43,-36.84)">
        <path d="M356,348.8C359.55,347.55 362.78,344.67 363.33,340.95C363.555,338.461 362.965,335.965 361.65,333.84C357.22,325.84 348.26,321.58 339.65,318.59C331.04,315.6 322.01,313.39 312.93,313.9C303.85,314.41 294.63,317.9 288.74,324.9C287.707,326.337 286.486,327.628 285.11,328.74C283.02,330.17 280.35,330.41 277.82,330.31C269.48,330.01 260.77,326.71 253.07,329.94C243.83,333.83 240.59,345.16 239.39,355.11C238.16,365.36 237.86,375.78 235.15,385.74C232.44,395.7 226.87,405.44 217.81,410.37C215.16,411.82 212.27,412.82 209.81,414.53C207.35,416.24 205.2,418.88 205.2,421.89C205.2,426 208.88,429.03 210.8,432.66C212.19,435.3 212.74,438.48 214.8,440.6C219,444.83 226.43,442.43 231.8,445.02C236.59,447.32 238.65,452.95 242.41,456.7C246.82,461.1 253.34,462.65 259.57,463.07C262.97,463.31 266.51,463.24 269.65,461.91C275.91,459.26 279.23,452.12 279.6,445.34C279.97,438.56 278.01,431.89 276.6,425.25C276.14,423.06 275.74,420.72 276.55,418.63C277.3,417.025 278.459,415.646 279.91,414.63C287.29,408.8 297.82,406.13 302.06,397.72C304.91,392.07 304.06,385.36 304.75,379.07C305.01,376.77 305.58,374.34 307.27,372.78C309.36,370.86 312.47,370.78 315.27,370.53C323.605,369.683 331.473,366.264 337.78,360.75C340.84,358.09 342.68,354.75 345.35,351.84C348.02,348.93 352.44,350.06 356,348.8Z" style="fill:rgb(98,53,40);fill-rule:nonzero;"/>
    </g>
    <g>
        <g opacity="0.1">
            <g transform="matrix(1,0,0,1,-58.43,-36.84)">
                <path d="M229.39,442.06C224.39,439.66 217.59,441.58 213.29,438.42C213.695,439.206 214.21,439.93 214.82,440.57C219.02,444.8 226.45,442.4 231.82,444.99C233.038,445.585 234.142,446.391 235.08,447.37C233.653,445.156 231.698,443.331 229.39,442.06Z" style="fill-rule:nonzero;"/>
            </g>
            <g transform="matrix(1,0,0,1,-58.43,-36.84)">
                <path d="M361.68,333.84C360.68,332.036 359.443,330.374 358,328.9C358.467,329.542 358.898,330.209 359.29,330.9C360.604,333.025 361.19,335.522 360.96,338.01C360.41,341.73 357.18,344.61 353.63,345.86C350.08,347.11 345.63,345.93 342.98,348.86C340.33,351.79 338.46,355.11 335.4,357.77C329.096,363.283 321.231,366.702 312.9,367.55C310.08,367.81 306.97,367.88 304.9,369.8C303.2,371.36 302.63,373.8 302.38,376.09C301.66,382.37 302.54,389.09 299.69,394.74C295.45,403.14 284.92,405.81 277.53,411.65C276.082,412.666 274.927,414.046 274.18,415.65C273.36,417.73 273.76,420.08 274.23,422.27C275.65,428.91 277.61,435.57 277.23,442.36C276.85,449.15 273.53,456.28 267.28,458.93C264.13,460.26 260.6,460.32 257.19,460.09C250.97,459.67 244.45,458.09 240.03,453.72L239.97,453.65C240.72,454.716 241.557,455.72 242.47,456.65C246.88,461.05 253.4,462.6 259.63,463.02C263.03,463.26 266.57,463.19 269.71,461.86C275.97,459.21 279.29,452.07 279.66,445.29C280.03,438.51 278.07,431.84 276.66,425.2C276.2,423.01 275.8,420.67 276.61,418.58C277.36,416.975 278.519,415.596 279.97,414.58C287.35,408.75 297.88,406.08 302.12,397.67C304.97,392.02 304.12,385.31 304.81,379.02C305.07,376.72 305.64,374.29 307.34,372.73C309.42,370.81 312.53,370.73 315.34,370.48C323.675,369.633 331.543,366.214 337.85,360.7C340.91,358.04 342.75,354.7 345.42,351.79C348.09,348.88 352.49,350.06 356.08,348.79C359.67,347.52 362.86,344.66 363.41,340.94C363.618,338.449 363.01,335.956 361.68,333.84Z" style="fill-rule:nonzero;"/>
            </g>
        </g>
    </g>
    <ellipse cx="1008.55" cy="775.02" rx="74.6" ry="11.45" style="fill:rgb(28,117,188);fill-opacity:0.1;"/>
    <ellipse cx="106.71" cy="819.96" rx="41.4" ry="6.35" style="fill:rgb(28,117,188);fill-opacity:0.1;"/>
    <g transform="matrix(1,0,0,1,-58.43,-36.84)">
        <path d="M151.87,594.9C151.87,594.9 159,604.23 148.58,618.31C138.16,632.39 129.58,644.31 133.02,653.07C133.02,653.07 148.76,626.91 161.56,626.55C174.36,626.19 166,610.63 151.87,594.9Z" style="fill:rgb(28,117,188);fill-rule:nonzero;"/>
    </g>
    <g transform="matrix(1,0,0,1,-58.43,-36.84)">
        <path d="M151.87,594.9C152.493,595.799 152.985,596.782 153.33,597.82C165.82,612.5 172.48,626.2 160.47,626.55C149.28,626.87 135.86,646.87 132.64,651.92C132.75,652.31 132.88,652.7 133.02,653.07C133.02,653.07 148.76,626.91 161.56,626.55C174.36,626.19 166,610.63 151.87,594.9Z" style="fill-opacity:0.1;fill-rule:nonzero;"/>
    </g>
    <g transform="matrix(1,0,0,1,-58.43,-36.84)">
        <path d="M165.13,606.79C165.13,610.07 164.76,612.73 164.31,612.73C163.86,612.73 163.49,610.07 163.49,606.79C163.49,603.51 163.95,605.05 164.4,605.05C164.85,605.05 165.13,603.5 165.13,606.79Z" style="fill:rgb(255,208,55);fill-rule:nonzero;"/>
    </g>
    <g transform="matrix(1,0,0,1,-58.43,-36.84)">
        <path d="M169.68,610.71C166.8,612.28 164.29,613.23 164.07,612.83C163.85,612.43 166.01,610.83 168.9,609.26C171.79,607.69 170.64,608.84 170.9,609.26C171.16,609.68 172.57,609.14 169.68,610.71Z" style="fill:rgb(255,208,55);fill-rule:nonzero;"/>
    </g>
    <g transform="matrix(1,0,0,1,-58.43,-36.84)">
        <path d="M114.18,594.9C114.18,594.9 107.05,604.23 117.47,618.31C127.89,632.39 136.47,644.31 133.02,653.07C133.02,653.07 117.29,626.91 104.48,626.55C91.67,626.19 100.09,610.63 114.18,594.9Z" style="fill:rgb(28,117,188);fill-rule:nonzero;"/>
    </g>
    <g transform="matrix(1,0,0,1,-58.43,-36.84)">
        <path d="M114.18,594.9C113.557,595.799 113.065,596.782 112.72,597.82C100.23,612.5 93.57,626.2 105.58,626.55C116.77,626.87 130.19,646.87 133.4,651.92C133.299,652.311 133.172,652.696 133.02,653.07C132.868,653.444 117.29,626.91 104.48,626.55C91.67,626.19 100.09,610.63 114.18,594.9Z" style="fill-opacity:0.1;fill-rule:nonzero;"/>
    </g>
    <g transform="matrix(1,0,0,1,-58.43,-36.84)">
        <path d="M100.92,606.79C100.92,610.07 101.29,612.73 101.74,612.73C102.19,612.73 102.56,610.07 102.56,606.79C102.56,603.51 102.1,605.05 101.65,605.05C101.2,605.05 100.92,603.5 100.92,606.79Z" style="fill:rgb(255,208,55);fill-rule:nonzero;"/>
    </g>
    <g transform="matrix(1,0,0,1,-58.43,-36.84)">
        <path d="M96.37,610.71C99.25,612.28 101.76,613.23 101.98,612.83C102.2,612.43 100.04,610.83 97.15,609.26C94.26,607.69 95.41,608.84 95.15,609.26C94.89,609.68 93.48,609.14 96.37,610.71Z" style="fill:rgb(255,208,55);fill-rule:nonzero;"/>
    </g>
    <ellipse cx="74.6" cy="676.16" rx="74.6" ry="11.45" style="fill:rgb(28,117,188);fill-opacity:0.1;"/>
    <g transform="matrix(1,0,0,1,-58.43,-36.84)">
        <path d="M171.42,640.5L171.06,643.41L170.56,647.53L170.35,649.24L169.85,653.36L169.64,655.08L169.14,659.19L163.43,706C162.92,710.18 156.09,713.43 147.86,713.43L118.19,713.43C109.95,713.43 103.19,710.18 102.63,706L96.91,659.2L96.41,655.09L96.2,653.37L95.69,649.25L95.49,647.54L94.99,643.42L94.63,640.51C94.34,638.15 98.03,636.15 102.7,636.15L163.36,636.15C168,636.14 171.71,638.14 171.42,640.5Z" style="fill:rgb(101,97,125);fill-rule:nonzero;"/>
    </g>
    <path d="M112.64,606.57L112.14,610.68L37.06,610.68L36.56,606.57L112.64,606.57Z" style="fill:rgb(157,156,181);fill-rule:nonzero;"/>
    <path d="M111.93,612.4L111.43,616.52L37.78,616.52L37.27,612.4L111.93,612.4Z" style="fill:rgb(157,156,181);fill-rule:nonzero;"/>
    <path d="M111.21,618.23L110.71,622.35L38.48,622.35L37.98,618.23L111.21,618.23Z" style="fill:rgb(157,156,181);fill-rule:nonzero;"/>
    <defs>
        <linearGradient id="_Linear1" x1="0" y1="0" x2="1" y2="0" gradientUnits="userSpaceOnUse" gradientTransform="matrix(1.71616e-14,-280.27,280.27,1.71616e-14,454.31,591.8)"><stop offset="0" style="stop-color:rgb(128,128,128);stop-opacity:0.247059"/><stop offset="0.54" style="stop-color:rgb(128,128,128);stop-opacity:0.117647"/><stop offset="1" style="stop-color:rgb(128,128,128);stop-opacity:0.0980392"/></linearGradient>
    </defs>
</svg>
